SplineFontDB: 3.0
FontName: FatemiMaqala-Slanted
FullName: FatemiMaqala Slanted
FamilyName: FatemiMaqala
Weight: Regular
Copyright: All the rights are reserved to Dawat Hadiyah
Version: 1.3
ItalicAngle: 10
UnderlinePosition: -1250
UnderlineWidth: 100
Ascent: 1638
Descent: 410
InvalidEm: 0
LayerCount: 4
Layer: 0 1 "Back" 1
Layer: 1 1 "Fore" 0
Layer: 2 0 "Back 2" 1
Layer: 3 1 "Back 3" 1
XUID: [1021 574 -2067448607 31203]
UseXUID: 1
UseUniqueID: 1
StyleMap: 0x0001
FSType: 0
OS2Version: 0
OS2_WeightWidthSlopeOnly: 0
OS2_UseTypoMetrics: 1
CreationTime: 1033018408
ModificationTime: 1453827722
PfmFamily: 17
TTFWeight: 400
TTFWidth: 5
LineGap: -100
VLineGap: 0
Panose: 0 0 0 0 0 0 0 0 0 0
OS2TypoAscent: 2200
OS2TypoAOffset: 0
OS2TypoDescent: -1400
OS2TypoDOffset: 0
OS2TypoLinegap: -100
OS2WinAscent: 2200
OS2WinAOffset: 0
OS2WinDescent: 1400
OS2WinDOffset: 0
HheadAscent: 2200
HheadAOffset: 0
HheadDescent: -1400
HheadDOffset: 0
OS2Vendor: 'GLYF'
Lookup: 1 0 0 "dotlessi" { "'ccmp' Glyph Composition/Decomposition in Latin lookup 10 subtable"  } ['ccmp' ('latn' <'TRK ' > ) ]
Lookup: 1 8 0 "'locl' Localized Forms in Arabic lookup 18" { "'locl' Localized Forms in Arabic lookup 18-1"  } ['locl' ('arab' <'URD ' > ) ]
Lookup: 1 8 0 "'locl' Localized Forms in Arabic lookup 25" { "'locl' Localized Forms in Arabic lookup 25-1"  } ['locl' ('arab' <'FAR ' > ) ]
Lookup: 2 0 0 "longlaamkaafs" { "longlaamkaafs-1"  } []
Lookup: 3 0 0 "shortalefs" { "'aalt' Access All Alternates lookup 8 subtable"  } []
Lookup: 1 0 0 "straightrehs" { "straightrehs-1"  } []
Lookup: 1 8 0 "hehgoal" { "hehgoal-1"  } []
Lookup: 1 8 0 "'fina' Terminal Forms in Arabic lookup 4" { "'fina' Terminal Forms in Arabic lookup 4 subtable"  } ['fina' ('DFLT' <'dflt' > 'arab' <'ARA ' 'FAR ' 'URD ' 'dflt' > 'cyrl' <'dflt' > 'latn' <'TRK ' 'dflt' > ) ]

StartChar: .notdef
Encoding: 65536 -1 0
Width: 748
Flags: W
LayerCount: 4
Fore
SplineSet
188 0 m 1,0,-1
 -52 1365 l 1,1,-1
 492 1365 l 1,2,-1
 732 0 l 1,3,-1
 188 0 l 1,0,-1
244 68 m 1,4,-1
 652 68 l 1,5,-1
 436 1297 l 1,6,-1
 28 1297 l 1,7,-1
 244 68 l 1,4,-1
EndSplineSet
Validated: 1
EndChar

StartChar: exclam
Encoding: 33 33 4
Width: 482
GlyphClass: 2
Flags: W
LayerCount: 4
Fore
SplineSet
225 90 m 128,-1,1
 217 135 217 135 245 166.5 c 128,-1,2
 273 198 273 198 318 198 c 128,-1,3
 363 198 363 198 400 166.5 c 128,-1,4
 437 135 437 135 445 90 c 128,-1,5
 453 45 453 45 427.5 11.5 c 128,-1,6
 402 -22 402 -22 357 -22 c 128,-1,7
 312 -22 312 -22 272.5 11.5 c 128,-1,0
 233 45 233 45 225 90 c 128,-1,1
135 1284 m 0,8,9
 178 1284 178 1284 206.5 1248.5 c 128,-1,10
 235 1213 235 1213 243 1168 c 0,11,12
 247 1143 247 1143 255.5 1054.5 c 128,-1,13
 264 966 264 966 282.5 753.5 c 128,-1,14
 301 541 301 541 319 344 c 1,15,16
 311 320 311 320 291 318 c 1,17,18
 271 326 271 326 261 340 c 1,19,20
 79 1030 79 1030 55 1168 c 0,21,22
 47 1213 47 1213 68.5 1248.5 c 128,-1,23
 90 1284 90 1284 135 1284 c 0,8,9
EndSplineSet
Validated: 33
Substitution2: "'smcp' Lowercase to Small Capitals lookup 12 subtable" exclam.sc
EndChar

StartChar: quotedbl
Encoding: 34 34 5
Width: 560
GlyphClass: 2
Flags: W
LayerCount: 4
Fore
SplineSet
382 1398 m 0,0,1
 413 1398 413 1398 439 1372 c 1,2,3
 447 1328 447 1328 461 1194.5 c 128,-1,4
 475 1061 475 1061 479 984 c 1,5,6
 471 960 471 960 446 946 c 1,7,8
 434 946 434 946 426 958 c 0,9,10
 314 1198 314 1198 303 1258 c 0,11,12
 295 1305 295 1305 316.5 1351.5 c 128,-1,13
 338 1398 338 1398 382 1398 c 0,0,1
142 1398 m 0,14,15
 173 1398 173 1398 199 1372 c 1,16,17
 207 1328 207 1328 221 1194.5 c 128,-1,18
 235 1061 235 1061 239 984 c 1,19,20
 231 960 231 960 206 946 c 1,21,22
 194 946 194 946 186 958 c 0,23,24
 74 1198 74 1198 63 1258 c 0,25,26
 55 1305 55 1305 76.5 1351.5 c 128,-1,27
 98 1398 98 1398 142 1398 c 0,14,15
EndSplineSet
Validated: 33
EndChar

StartChar: numbersign
Encoding: 35 35 6
Width: 960
GlyphClass: 2
Flags: W
LayerCount: 4
Fore
SplineSet
676 454 m 1,0,-1
 810 454 l 2,1,2
 823 454 823 454 828.5 432 c 128,-1,3
 834 410 834 410 829 386 c 128,-1,4
 824 362 824 362 813 356 c 1,5,-1
 677 356 l 1,6,-1
 681 154 l 2,7,8
 680 146 680 146 668.5 137 c 128,-1,9
 657 128 657 128 637 128 c 0,10,11
 628 128 628 128 622.5 130 c 128,-1,12
 617 132 617 132 615 134 c 2,13,-1
 614 136 l 1,14,-1
 610 356 l 1,15,-1
 354 356 l 1,16,-1
 357 154 l 2,17,18
 356 146 356 146 345.5 137 c 128,-1,19
 335 128 335 128 315 128 c 0,20,21
 306 128 306 128 300.5 130 c 128,-1,22
 295 132 295 132 293 134 c 2,23,-1
 292 136 l 1,24,-1
 288 356 l 1,25,-1
 155 356 l 2,26,27
 143 359 143 359 139 379.5 c 128,-1,28
 135 400 135 400 141 425 c 128,-1,29
 147 450 147 450 158 454 c 1,30,-1
 287 454 l 1,31,-1
 282 738 l 1,32,-1
 144 738 l 2,33,34
 133 738 133 738 128.5 761 c 128,-1,35
 124 784 124 784 128.5 808 c 128,-1,36
 133 832 133 832 145 836 c 1,37,-1
 281 836 l 1,38,-1
 277 1036 l 2,39,40
 278 1046 278 1046 279 1048 c 128,-1,41
 280 1050 280 1050 283.5 1055 c 128,-1,42
 287 1060 287 1060 295 1061 c 128,-1,43
 303 1062 303 1062 317 1062 c 0,44,45
 334 1062 334 1062 344 1056 c 1,46,-1
 347 836 l 1,47,-1
 603 836 l 1,48,-1
 599 1036 l 2,49,50
 600 1046 600 1046 601 1048 c 128,-1,51
 602 1050 602 1050 605.5 1055 c 128,-1,52
 609 1060 609 1060 617 1061 c 128,-1,53
 625 1062 625 1062 639 1062 c 0,54,55
 656 1062 656 1062 666 1056 c 1,56,-1
 670 836 l 1,57,-1
 797 836 l 2,58,59
 810 836 810 836 815.5 814 c 128,-1,60
 821 792 821 792 817 768 c 128,-1,61
 813 744 813 744 802 738 c 1,62,-1
 671 738 l 1,63,-1
 676 454 l 1,0,-1
609 454 m 1,64,-1
 604 738 l 1,65,-1
 349 738 l 1,66,-1
 353 454 l 1,67,-1
 609 454 l 1,64,-1
EndSplineSet
Validated: 1
EndChar

StartChar: dollar
Encoding: 36 36 7
Width: 996
GlyphClass: 2
Flags: W
LayerCount: 4
Fore
SplineSet
454 1366 m 1,0,1
 524 1366 524 1366 527 1352 c 2,2,-1
 528 1265 l 1,3,4
 552 1260 552 1260 606.5 1246 c 128,-1,5
 661 1232 661 1232 699 1224 c 1,6,7
 713 1189 713 1189 727 1143.5 c 128,-1,8
 741 1098 741 1098 747 1071.5 c 128,-1,9
 753 1045 753 1045 762 1000 c 128,-1,10
 771 955 771 955 771 952 c 0,11,12
 759 944 759 944 737 944 c 0,13,14
 719 944 719 944 707 954 c 1,15,16
 690 1009 690 1009 641.5 1072.5 c 128,-1,17
 593 1136 593 1136 529 1174 c 1,18,-1
 534 711 l 2,19,20
 536 710 536 710 541.5 707 c 128,-1,21
 547 704 547 704 549 702 c 0,22,23
 566 692 566 692 605 671 c 128,-1,24
 644 650 644 650 667 637 c 128,-1,25
 690 624 690 624 728 600.5 c 128,-1,26
 766 577 766 577 790 558 c 128,-1,27
 814 539 814 539 844 511.5 c 128,-1,28
 874 484 874 484 892.5 458 c 128,-1,29
 911 432 911 432 927 399.5 c 128,-1,30
 943 367 943 367 949 332 c 0,31,32
 967 230 967 230 923.5 148 c 128,-1,33
 880 66 880 66 796.5 23 c 128,-1,34
 713 -20 713 -20 609 -20 c 0,35,36
 576 -20 576 -20 542 -17 c 1,37,-1
 544 -104 l 1,38,39
 523 -104 523 -104 497.5 -99.5 c 128,-1,40
 472 -95 472 -95 470 -86 c 2,41,-1
 470 -8 l 1,42,43
 449 -5 449 -5 253 36 c 1,44,45
 223 114 223 114 190.5 212.5 c 128,-1,46
 158 311 158 311 155 330 c 1,47,48
 160 336 160 336 175.5 341 c 128,-1,49
 191 346 191 346 202 346 c 0,50,51
 219 346 219 346 226 336 c 0,52,53
 237 309 237 309 251 281.5 c 128,-1,54
 265 254 265 254 294 210.5 c 128,-1,55
 323 167 323 167 368.5 130 c 128,-1,56
 414 93 414 93 469 72 c 1,57,-1
 463 568 l 1,58,59
 412 595 412 595 381 612.5 c 128,-1,60
 350 630 350 630 303 660 c 128,-1,61
 256 690 256 690 225 717 c 128,-1,62
 194 744 194 744 162 779 c 128,-1,63
 130 814 130 814 110.5 854.5 c 128,-1,64
 91 895 91 895 84 940 c 0,65,66
 67 1038 67 1038 106.5 1117 c 128,-1,67
 146 1196 146 1196 224.5 1237 c 128,-1,68
 303 1278 303 1278 400 1278 c 0,69,70
 421 1278 421 1278 455 1276 c 1,71,-1
 454 1366 l 1,0,1
537 530 m 1,72,-1
 542 52 l 1,73,74
 567 48 567 48 601 48 c 0,75,76
 696 48 696 48 752.5 110 c 128,-1,77
 809 172 809 172 790 280 c 0,78,79
 786 303 786 303 778 324 c 128,-1,80
 770 345 770 345 763 361 c 128,-1,81
 756 377 756 377 740 394.5 c 128,-1,82
 724 412 724 412 715.5 422 c 128,-1,83
 707 432 707 432 684.5 447.5 c 128,-1,84
 662 463 662 463 653 469 c 128,-1,85
 644 475 644 475 615 490.5 c 128,-1,86
 586 506 586 506 577 510 c 2,87,-1
 537 530 l 1,72,-1
461 751 m 1,88,-1
 456 1205 l 1,89,90
 430 1212 430 1212 400 1212 c 0,91,92
 340 1212 340 1212 300 1192.5 c 128,-1,93
 260 1173 260 1173 243.5 1140 c 128,-1,94
 227 1107 227 1107 223.5 1072.5 c 128,-1,95
 220 1038 220 1038 227 1000 c 0,96,97
 235 956 235 956 256 919.5 c 128,-1,98
 277 883 277 883 312 852 c 128,-1,99
 347 821 347 821 379 800 c 128,-1,100
 411 779 411 779 461 751 c 1,88,-1
EndSplineSet
Validated: 33
EndChar

StartChar: percent
Encoding: 37 37 8
Width: 1334
GlyphClass: 2
Flags: W
LayerCount: 4
Fore
SplineSet
265 1242 m 0,0,1
 209 1242 209 1242 177 1203 c 128,-1,2
 145 1164 145 1164 139.5 1109.5 c 128,-1,3
 134 1055 134 1055 145 992 c 0,4,5
 164 885 164 885 235.5 792.5 c 128,-1,6
 307 700 307 700 380 700 c 0,7,8
 421 700 421 700 448 722.5 c 128,-1,9
 475 745 475 745 484.5 783 c 128,-1,10
 494 821 494 821 494 863 c 128,-1,11
 494 905 494 905 486 952 c 0,12,13
 474 1021 474 1021 442 1086.5 c 128,-1,14
 410 1152 410 1152 362.5 1197 c 128,-1,15
 315 1242 315 1242 265 1242 c 0,0,1
264 1290 m 0,16,17
 392 1290 392 1290 491.5 1195.5 c 128,-1,18
 591 1101 591 1101 615 968 c 0,19,20
 629 887 629 887 607.5 815 c 128,-1,21
 586 743 586 743 525 696.5 c 128,-1,22
 464 650 464 650 377 650 c 0,23,24
 252 650 252 650 148 743 c 128,-1,25
 44 836 44 836 21 968 c 0,26,27
 -3 1104 -3 1104 65 1197 c 128,-1,28
 133 1290 133 1290 264 1290 c 0,16,17
960 578 m 0,29,30
 904 578 904 578 871.5 539 c 128,-1,31
 839 500 839 500 833 445.5 c 128,-1,32
 827 391 827 391 838 328 c 0,33,34
 857 221 857 221 929.5 128.5 c 128,-1,35
 1002 36 1002 36 1075 36 c 0,36,37
 1116 36 1116 36 1142.5 58.5 c 128,-1,38
 1169 81 1169 81 1178.5 119 c 128,-1,39
 1188 157 1188 157 1187.5 199 c 128,-1,40
 1187 241 1187 241 1179 288 c 0,41,42
 1167 357 1167 357 1136 422.5 c 128,-1,43
 1105 488 1105 488 1057.5 533 c 128,-1,44
 1010 578 1010 578 960 578 c 0,29,30
959 626 m 0,45,46
 1087 626 1087 626 1185.5 532 c 128,-1,47
 1284 438 1284 438 1308 304 c 0,48,49
 1330 177 1330 177 1266 81.5 c 128,-1,50
 1202 -14 1202 -14 1070 -14 c 0,51,52
 945 -14 945 -14 841 79 c 128,-1,53
 737 172 737 172 714 304 c 0,54,55
 690 440 690 440 758.5 533 c 128,-1,56
 827 626 827 626 959 626 c 0,45,46
1088 1248 m 1,57,-1
 342 0 l 2,58,59
 337 -8 337 -8 317 -16 c 128,-1,60
 297 -24 297 -24 280 -24 c 0,61,62
 255 -24 255 -24 240 -2 c 1,63,-1
 984 1248 l 2,64,65
 1000 1272 1000 1272 1019 1272 c 0,66,67
 1040 1272 1040 1272 1051.5 1270.5 c 128,-1,68
 1063 1269 1063 1269 1066.5 1267.5 c 128,-1,69
 1070 1266 1070 1266 1076.5 1259 c 128,-1,70
 1083 1252 1083 1252 1088 1248 c 1,57,-1
EndSplineSet
Validated: 33
EndChar

StartChar: ampersand
Encoding: 38 38 9
Width: 1366
GlyphClass: 2
Flags: W
LayerCount: 4
Fore
SplineSet
894 190 m 1,0,1
 826 249 826 249 724.5 358.5 c 128,-1,2
 623 468 623 468 556 548 c 2,3,-1
 488 628 l 1,4,5
 449 598 449 598 431.5 583 c 128,-1,6
 414 568 414 568 386 538.5 c 128,-1,7
 358 509 358 509 347.5 484 c 128,-1,8
 337 459 337 459 331 422.5 c 128,-1,9
 325 386 325 386 332 344 c 0,10,11
 355 212 355 212 449 146 c 128,-1,12
 543 80 543 80 663 80 c 0,13,14
 725 80 725 80 790.5 110 c 128,-1,15
 856 140 856 140 894 190 c 1,0,1
522 1240 m 0,16,17
 456 1240 456 1240 418 1197 c 128,-1,18
 380 1154 380 1154 392 1086 c 0,19,20
 415 958 415 958 551 770 c 1,21,22
 613 810 613 810 646.5 843.5 c 128,-1,23
 680 877 680 877 695.5 931.5 c 128,-1,24
 711 986 711 986 698 1060 c 0,25,26
 685 1132 685 1132 635.5 1186 c 128,-1,27
 586 1240 586 1240 522 1240 c 0,16,17
500 1312 m 0,28,29
 634 1312 634 1312 722 1253.5 c 128,-1,30
 810 1195 810 1195 829 1088 c 0,31,32
 840 1023 840 1023 827 967 c 128,-1,33
 814 911 814 911 775.5 863.5 c 128,-1,34
 737 816 737 816 697.5 781.5 c 128,-1,35
 658 747 658 747 599 706 c 1,36,37
 751 509 751 509 965 308 c 1,38,39
 1002 384 1002 384 1021.5 453.5 c 128,-1,40
 1041 523 1041 523 1038 542 c 0,41,42
 1035 560 1035 560 1015.5 567.5 c 128,-1,43
 996 575 996 575 969 576.5 c 128,-1,44
 942 578 942 578 941 578 c 0,45,46
 934 587 934 587 932 602.5 c 128,-1,47
 930 618 930 618 935 624 c 1,48,-1
 1093 624 l 2,49,50
 1124 624 1124 624 1157 625.5 c 128,-1,51
 1190 627 1190 627 1234 630 c 128,-1,52
 1278 633 1278 633 1311 634 c 0,53,54
 1316 631 1316 631 1320 604.5 c 128,-1,55
 1324 578 1324 578 1319 578 c 0,56,57
 1293 578 1293 578 1247 566 c 128,-1,58
 1201 554 1201 554 1187 544 c 0,59,60
 1184 542 1184 542 1166 498.5 c 128,-1,61
 1148 455 1148 455 1111 381.5 c 128,-1,62
 1074 308 1074 308 1032 246 c 1,63,64
 1086 198 1086 198 1107.5 179.5 c 128,-1,65
 1129 161 1129 161 1163 134.5 c 128,-1,66
 1197 108 1197 108 1217.5 99 c 128,-1,67
 1238 90 1238 90 1255 90 c 0,68,69
 1283 90 1283 90 1310 123.5 c 128,-1,70
 1337 157 1337 157 1343 182 c 1,71,72
 1359 182 1359 182 1376 169.5 c 128,-1,73
 1393 157 1393 157 1395 146 c 1,74,75
 1392 134 1392 134 1388 123 c 128,-1,76
 1384 112 1384 112 1369.5 87.5 c 128,-1,77
 1355 63 1355 63 1336 45.5 c 128,-1,78
 1317 28 1317 28 1281.5 14 c 128,-1,79
 1246 0 1246 0 1203 0 c 0,80,81
 1170 0 1170 0 1131.5 15 c 128,-1,82
 1093 30 1093 30 1061.5 51 c 128,-1,83
 1030 72 1030 72 1003.5 93 c 128,-1,84
 977 114 977 114 962 129 c 2,85,-1
 948 144 l 1,86,87
 884 77 884 77 794.5 35.5 c 128,-1,88
 705 -6 705 -6 610 -6 c 0,89,90
 433 -6 433 -6 312.5 80 c 128,-1,91
 192 166 192 166 165 316 c 0,92,93
 153 385 153 385 169.5 443.5 c 128,-1,94
 186 502 186 502 229 549 c 128,-1,95
 272 596 272 596 317.5 629.5 c 128,-1,96
 363 663 363 663 430 700 c 1,97,98
 382 764 382 764 355 802.5 c 128,-1,99
 328 841 328 841 296.5 907.5 c 128,-1,100
 265 974 265 974 254 1038 c 0,101,102
 234 1153 234 1153 304.5 1232.5 c 128,-1,103
 375 1312 375 1312 500 1312 c 0,28,29
EndSplineSet
Validated: 33
Substitution2: "'smcp' Lowercase to Small Capitals lookup 12 subtable" ampersand.sc
EndChar

StartChar: quotesingle
Encoding: 39 39 10
Width: 320
GlyphClass: 2
Flags: W
LayerCount: 4
Fore
SplineSet
142 1398 m 0,0,1
 173 1398 173 1398 199 1372 c 1,2,3
 207 1328 207 1328 221 1194.5 c 128,-1,4
 235 1061 235 1061 239 984 c 1,5,6
 231 960 231 960 206 946 c 1,7,8
 194 946 194 946 186 958 c 0,9,10
 74 1198 74 1198 63 1258 c 0,11,12
 55 1305 55 1305 76.5 1351.5 c 128,-1,13
 98 1398 98 1398 142 1398 c 0,0,1
EndSplineSet
Validated: 33
Substitution2: "'smcp' Lowercase to Small Capitals lookup 12 subtable" quotesingle.sc
EndChar

StartChar: parenleft
Encoding: 40 40 11
Width: 524
GlyphClass: 2
Flags: W
LayerCount: 4
Fore
SplineSet
219.5 570 m 128,-1,1
 263 324 263 324 382 92 c 128,-1,2
 501 -140 501 -140 658 -260 c 1,3,4
 657 -262 657 -262 654 -268 c 0,5,6
 649 -276 649 -276 641 -286 c 128,-1,7
 633 -296 633 -296 627 -300 c 1,8,9
 417 -155 417 -155 270 67.5 c 128,-1,10
 123 290 123 290 74 570 c 0,11,12
 24 851 24 851 92.5 1072 c 128,-1,13
 161 1293 161 1293 321 1438 c 1,14,15
 328 1434 328 1434 339.5 1424 c 128,-1,16
 351 1414 351 1414 357 1408 c 128,-1,17
 363 1402 363 1402 366 1398 c 1,18,19
 251 1277 251 1277 213.5 1046.5 c 128,-1,0
 176 816 176 816 219.5 570 c 128,-1,1
EndSplineSet
Validated: 33
Substitution2: "'smcp' Lowercase to Small Capitals lookup 12 subtable" parenleft.sc
EndChar

StartChar: parenright
Encoding: 41 41 12
Width: 524
GlyphClass: 2
Flags: W
LayerCount: 4
Fore
SplineSet
450 570 m 0,0,1
 499 290 499 290 430.5 67.5 c 128,-1,2
 362 -155 362 -155 203 -300 c 1,3,4
 196 -296 196 -296 184.5 -286 c 128,-1,5
 173 -276 173 -276 167.5 -270 c 128,-1,6
 162 -264 162 -264 158 -260 c 1,7,8
 273 -140 273 -140 310 92 c 128,-1,9
 347 324 347 324 303.5 570 c 128,-1,10
 260 816 260 816 141.5 1046.5 c 128,-1,11
 23 1277 23 1277 -134 1398 c 1,12,13
 -133 1400 -133 1400 -129 1407 c 128,-1,14
 -125 1414 -125 1414 -117 1424 c 128,-1,15
 -109 1434 -109 1434 -103 1438 c 1,16,17
 108 1293 108 1293 254 1072 c 128,-1,18
 400 851 400 851 450 570 c 0,0,1
EndSplineSet
Validated: 33
Substitution2: "'smcp' Lowercase to Small Capitals lookup 12 subtable" parenright.sc
EndChar

StartChar: plus
Encoding: 43 43 13
Width: 1084
GlyphClass: 2
Flags: W
LayerCount: 4
Fore
SplineSet
403 948 m 1,0,1
 458 970 458 970 485 970 c 0,2,3
 494 970 494 970 501 967 c 128,-1,4
 508 964 508 964 511 961 c 2,5,-1
 513 958 l 1,6,-1
 586 548 l 1,7,-1
 994 548 l 2,8,9
 1001 548 1001 548 1007.5 541.5 c 128,-1,10
 1014 535 1014 535 1016 524 c 0,11,12
 1020 500 1020 500 1015 474.5 c 128,-1,13
 1010 449 1010 449 1000 436 c 1,14,-1
 606 436 l 1,15,-1
 677 32 l 1,16,17
 652 10 652 10 595 10 c 0,18,19
 585 10 585 10 576 16 c 128,-1,20
 567 22 567 22 565 28 c 2,21,-1
 494 436 l 1,22,-1
 84 436 l 2,23,24
 72 436 72 436 68 456 c 0,25,26
 66 469 66 469 68.5 503.5 c 128,-1,27
 71 538 71 538 82 548 c 1,28,-1
 474 548 l 1,29,-1
 403 948 l 1,0,1
EndSplineSet
Validated: 1
EndChar

StartChar: comma
Encoding: 44 44 14
Width: 402
GlyphClass: 2
Flags: W
LayerCount: 4
Fore
SplineSet
166 246 m 0,0,1
 194 246 194 246 220 232 c 1,2,3
 267 170 267 170 281 92 c 0,4,5
 296 8 296 8 238.5 -113.5 c 128,-1,6
 181 -235 181 -235 110 -278 c 1,7,8
 100 -278 100 -278 87.5 -262 c 128,-1,9
 75 -246 75 -246 73 -236 c 1,10,11
 93 -219 93 -219 105.5 -205.5 c 128,-1,12
 118 -192 118 -192 137 -163.5 c 128,-1,13
 156 -135 156 -135 162 -97 c 128,-1,14
 168 -59 168 -59 160 -14 c 0,15,16
 154 18 154 18 113 63 c 128,-1,17
 72 108 72 108 65 148 c 0,18,19
 59 183 59 183 87 214.5 c 128,-1,20
 115 246 115 246 166 246 c 0,0,1
EndSplineSet
Validated: 33
Substitution2: "'smcp' Lowercase to Small Capitals lookup 12 subtable" comma.sc
Substitution2: "'c2sc' Capitals to Small Capitals in Latin lookup 11 subtable" comma.sc
EndChar

StartChar: hyphen
Encoding: 45 45 15
Width: 754
GlyphClass: 2
Flags: W
LayerCount: 4
Fore
SplineSet
133 522 m 1,0,1
 545 544 545 544 611 546 c 0,2,3
 625 546 625 546 628 528 c 0,4,5
 637 475 637 475 621 420 c 1,6,7
 581 417 581 417 143 398 c 0,8,9
 129 398 129 398 125 420 c 0,10,11
 117 466 117 466 133 522 c 1,0,1
EndSplineSet
Validated: 33
EndChar

StartChar: period
Encoding: 46 46 16
Width: 414
GlyphClass: 2
Flags: W
LayerCount: 4
Fore
SplineSet
96 90 m 128,-1,1
 88 135 88 135 116 166.5 c 128,-1,2
 144 198 144 198 189 198 c 128,-1,3
 234 198 234 198 271 166.5 c 128,-1,4
 308 135 308 135 316 90 c 128,-1,5
 324 45 324 45 298 11.5 c 128,-1,6
 272 -22 272 -22 227 -22 c 128,-1,7
 182 -22 182 -22 143 11.5 c 128,-1,0
 104 45 104 45 96 90 c 128,-1,1
EndSplineSet
Validated: 33
Substitution2: "'smcp' Lowercase to Small Capitals lookup 12 subtable" period.sc
Substitution2: "'c2sc' Capitals to Small Capitals in Latin lookup 11 subtable" period.sc
EndChar

StartChar: slash
Encoding: 47 47 17
Width: 826
GlyphClass: 2
Flags: W
LayerCount: 4
Fore
SplineSet
598 1522 m 0,0,1
 618 1522 618 1522 627 1504 c 1,2,-1
 306 -24 l 2,3,4
 303 -39 303 -39 284.5 -54.5 c 128,-1,5
 266 -70 266 -70 236 -70 c 0,6,7
 223 -70 223 -70 213.5 -66.5 c 128,-1,8
 204 -63 204 -63 201 -60 c 2,9,-1
 198 -56 l 1,10,-1
 523 1492 l 2,11,12
 523 1496 523 1496 531.5 1502.5 c 128,-1,13
 540 1509 540 1509 558 1515.5 c 128,-1,14
 576 1522 576 1522 598 1522 c 0,0,1
EndSplineSet
Validated: 1
Substitution2: "'smcp' Lowercase to Small Capitals lookup 12 subtable" slash.sc
EndChar

StartChar: zero
Encoding: 48 48 18
Width: 1090
GlyphClass: 2
Flags: W
LayerCount: 4
Fore
SplineSet
455 1208 m 0,0,1
 373 1208 373 1208 324.5 1131 c 128,-1,2
 276 1054 276 1054 266 926 c 128,-1,3
 256 798 256 798 284 640 c 0,4,5
 312 484 312 484 366 353.5 c 128,-1,6
 420 223 420 223 492.5 145.5 c 128,-1,7
 565 68 565 68 637 68 c 0,8,9
 723 68 723 68 770.5 149 c 128,-1,10
 818 230 818 230 824 359.5 c 128,-1,11
 830 489 830 489 802 650 c 0,12,13
 774 806 774 806 721 933 c 128,-1,14
 668 1060 668 1060 597.5 1134 c 128,-1,15
 527 1208 527 1208 455 1208 c 0,0,1
430 1282 m 0,16,17
 565 1282 565 1282 682 1193 c 128,-1,18
 799 1104 799 1104 874 959.5 c 128,-1,19
 949 815 949 815 980 638 c 0,20,21
 1011 462 1011 462 986 317 c 128,-1,22
 961 172 961 172 876.5 83 c 128,-1,23
 792 -6 792 -6 658 -6 c 0,24,25
 526 -6 526 -6 409.5 83 c 128,-1,26
 293 172 293 172 216 317 c 128,-1,27
 139 462 139 462 108 638 c 128,-1,28
 77 814 77 814 102 959 c 128,-1,29
 127 1104 127 1104 211.5 1193 c 128,-1,30
 296 1282 296 1282 430 1282 c 0,16,17
EndSplineSet
Validated: 33
Substitution2: "'ordn' Ordinals lookup 17 subtable" zero.ordn
Substitution2: "'onum' Oldstyle Figures lookup 16 subtable" zero.onum
Substitution2: "'zero' Slashed Zero lookup 15 subtable" zero.slash
Substitution2: "'pnum' Proportional Numbers lookup 14 subtable" zero.prop
EndChar

StartChar: one
Encoding: 49 49 19
Width: 1090
GlyphClass: 2
Flags: W
LayerCount: 4
Fore
SplineSet
566 232 m 2,0,-1
 423 1040 l 2,1,2
 416 1082 416 1082 403 1099 c 128,-1,3
 390 1116 390 1116 368 1116 c 0,4,5
 335 1116 335 1116 235 1076 c 1,6,7
 212 1092 212 1092 209 1110 c 0,8,9
 207 1121 207 1121 211 1122 c 0,10,11
 275 1153 275 1153 356 1195 c 128,-1,12
 437 1237 437 1237 482.5 1260.5 c 128,-1,13
 528 1284 528 1284 530 1284 c 2,14,-1
 534 1284 l 2,15,16
 548 1284 548 1284 560 1252 c 1,17,18
 557 1180 557 1180 578 1058 c 2,19,-1
 724 232 l 2,20,21
 744 116 744 116 760 84 c 0,22,23
 766 70 766 70 815.5 61 c 128,-1,24
 865 52 865 52 894 52 c 1,25,26
 901 44 901 44 905 23 c 128,-1,27
 909 2 909 2 904 -6 c 1,28,29
 697 4 697 4 680 4 c 0,30,31
 671 4 671 4 468 -6 c 1,32,33
 460 2 460 2 456.5 23 c 128,-1,34
 453 44 453 44 458 52 c 1,35,36
 487 52 487 52 532.5 61 c 128,-1,37
 578 70 578 70 580 84 c 0,38,39
 585 122 585 122 566 232 c 2,0,-1
EndSplineSet
Validated: 33
Substitution2: "'ordn' Ordinals lookup 17 subtable" one.ordn
Substitution2: "'onum' Oldstyle Figures lookup 16 subtable" one.onum
Substitution2: "'pnum' Proportional Numbers lookup 14 subtable" one.prop
EndChar

StartChar: two
Encoding: 50 50 20
Width: 1090
GlyphClass: 2
Flags: W
LayerCount: 4
Fore
SplineSet
1016 300 m 1,0,1
 991 193 991 193 961 0 c 1,2,3
 269 0 l 0,4,5
 262 3 262 3 253.5 12.5 c 128,-1,6
 245 22 245 22 244 28 c 1,7,8
 499 379 499 379 617 612 c 0,9,10
 659 696 659 696 667 763 c 128,-1,11
 675 830 675 830 660 912 c 0,12,13
 642 1016 642 1016 568 1085 c 128,-1,14
 494 1154 494 1154 398 1154 c 0,15,16
 342 1154 342 1154 294 1133.5 c 128,-1,17
 246 1113 246 1113 215.5 1082 c 128,-1,18
 185 1051 185 1051 168 1026.5 c 128,-1,19
 151 1002 151 1002 142 982 c 1,20,21
 131 982 131 982 115.5 994.5 c 128,-1,22
 100 1007 100 1007 98 1014 c 0,23,24
 100 1037 100 1037 122 1078 c 128,-1,25
 144 1119 144 1119 181 1167 c 128,-1,26
 218 1215 218 1215 282 1249.5 c 128,-1,27
 346 1284 346 1284 419 1284 c 0,28,29
 560 1284 560 1284 680.5 1182 c 128,-1,30
 801 1080 801 1080 824 950 c 0,31,32
 853 788 853 788 763 648 c 0,33,34
 642 460 642 460 415 146 c 1,35,-1
 811 146 l 2,36,37
 869 146 869 146 901 183 c 128,-1,38
 933 220 933 220 952 300 c 0,39,40
 955 312 955 312 974 312 c 0,41,42
 998 312 998 312 1016 300 c 1,0,1
EndSplineSet
Validated: 33
Substitution2: "'ordn' Ordinals lookup 17 subtable" two.ordn
Substitution2: "'onum' Oldstyle Figures lookup 16 subtable" two.onum
Substitution2: "'pnum' Proportional Numbers lookup 14 subtable" two.prop
EndChar

StartChar: three
Encoding: 51 51 21
Width: 1090
GlyphClass: 2
Flags: W
LayerCount: 4
Fore
SplineSet
450 1284 m 0,0,1
 490 1284 490 1284 537.5 1266.5 c 128,-1,2
 585 1249 585 1249 630.5 1218 c 128,-1,3
 676 1187 676 1187 711.5 1136.5 c 128,-1,4
 747 1086 747 1086 757 1028 c 0,5,6
 765 982 765 982 754.5 937.5 c 128,-1,7
 744 893 744 893 719.5 859 c 128,-1,8
 695 825 695 825 670 800.5 c 128,-1,9
 645 776 645 776 619 758 c 1,10,11
 665 752 665 752 716 728 c 128,-1,12
 767 704 767 704 817 665 c 128,-1,13
 867 626 867 626 905 566 c 128,-1,14
 943 506 943 506 955 436 c 0,15,16
 972 337 972 337 943.5 251.5 c 128,-1,17
 915 166 915 166 853 109.5 c 128,-1,18
 791 53 791 53 705.5 21.5 c 128,-1,19
 620 -10 620 -10 526 -10 c 0,20,21
 414 -10 414 -10 314 36 c 0,22,23
 301 44 301 44 282.5 67.5 c 128,-1,24
 264 91 264 91 261 112 c 0,25,26
 254 154 254 154 274 181 c 128,-1,27
 294 208 294 208 328 208 c 0,28,29
 353 208 353 208 374 195 c 128,-1,30
 395 182 395 182 421 154.5 c 128,-1,31
 447 127 447 127 455 120 c 0,32,33
 514 70 514 70 612 70 c 0,34,35
 654 70 654 70 691 87 c 128,-1,36
 728 104 728 104 757.5 138.5 c 128,-1,37
 787 173 787 173 797.5 235.5 c 128,-1,38
 808 298 808 298 793 380 c 0,39,40
 772 499 772 499 681 580.5 c 128,-1,41
 590 662 590 662 488 662 c 0,42,43
 469 662 469 662 447 657.5 c 128,-1,44
 425 653 425 653 400 645 c 128,-1,45
 375 637 375 637 372 636 c 0,46,47
 357 651 357 651 353 676 c 0,48,49
 351 690 351 690 354 696 c 1,50,51
 416 710 416 710 464.5 733.5 c 128,-1,52
 513 757 513 757 552 792.5 c 128,-1,53
 591 828 591 828 607.5 879 c 128,-1,54
 624 930 624 930 613 992 c 0,55,56
 599 1072 599 1072 534.5 1125 c 128,-1,57
 470 1178 470 1178 385 1178 c 0,58,59
 342 1178 342 1178 302.5 1158.5 c 128,-1,60
 263 1139 263 1139 243 1118 c 128,-1,61
 223 1097 223 1097 204.5 1072 c 128,-1,62
 186 1047 186 1047 184 1046 c 0,63,64
 175 1046 175 1046 165 1061 c 128,-1,65
 155 1076 155 1076 152 1090 c 1,66,67
 193 1171 193 1171 268 1227.5 c 128,-1,68
 343 1284 343 1284 450 1284 c 0,0,1
EndSplineSet
Validated: 33
Substitution2: "'ordn' Ordinals lookup 17 subtable" three.ordn
Substitution2: "'onum' Oldstyle Figures lookup 16 subtable" three.onum
Substitution2: "'pnum' Proportional Numbers lookup 14 subtable" three.prop
EndChar

StartChar: four
Encoding: 52 52 22
Width: 1090
GlyphClass: 2
Flags: W
LayerCount: 4
Fore
SplineSet
697 1288 m 0,0,1
 711 1288 711 1288 721 1277 c 128,-1,2
 731 1266 731 1266 734 1252 c 2,3,-1
 873 462 l 1,4,-1
 991 462 l 2,5,6
 1000 462 1000 462 1014 436 c 128,-1,7
 1028 410 1028 410 1033 380 c 0,8,9
 1037 360 1037 360 1031 348 c 1,10,-1
 893 348 l 1,11,-1
 955 -2 l 1,12,13
 949 -12 949 -12 871 -12 c 0,14,15
 799 -12 799 -12 796 4 c 2,16,-1
 735 348 l 1,17,-1
 171 348 l 1,18,19
 149 359 149 359 144 386 c 1,20,-1
 646 1238 l 2,21,22
 655 1254 655 1254 670.5 1271 c 128,-1,23
 686 1288 686 1288 697 1288 c 0,0,1
612 1048 m 1,24,-1
 267 462 l 1,25,-1
 715 462 l 1,26,-1
 612 1048 l 1,24,-1
EndSplineSet
Validated: 1
Substitution2: "'ordn' Ordinals lookup 17 subtable" four.ordn
Substitution2: "'onum' Oldstyle Figures lookup 16 subtable" four.onum
Substitution2: "'pnum' Proportional Numbers lookup 14 subtable" four.prop
EndChar

StartChar: five
Encoding: 53 53 23
Width: 1090
GlyphClass: 2
Flags: W
LayerCount: 4
Fore
SplineSet
517 790 m 0,0,1
 602 790 602 790 680 758.5 c 128,-1,2
 758 727 758 727 814 676.5 c 128,-1,3
 870 626 870 626 907.5 563 c 128,-1,4
 945 500 945 500 956 436 c 0,5,6
 973 337 973 337 944 251.5 c 128,-1,7
 915 166 915 166 853 109.5 c 128,-1,8
 791 53 791 53 705.5 21.5 c 128,-1,9
 620 -10 620 -10 526 -10 c 0,10,11
 414 -10 414 -10 314 36 c 0,12,13
 301 44 301 44 283 67.5 c 128,-1,14
 265 91 265 91 261 112 c 0,15,16
 254 154 254 154 274 181 c 128,-1,17
 294 208 294 208 328 208 c 0,18,19
 353 208 353 208 374.5 195 c 128,-1,20
 396 182 396 182 421.5 154.5 c 128,-1,21
 447 127 447 127 456 120 c 0,22,23
 515 70 515 70 612 70 c 0,24,25
 654 70 654 70 691.5 86.5 c 128,-1,26
 729 103 729 103 758 137.5 c 128,-1,27
 787 172 787 172 797.5 234.5 c 128,-1,28
 808 297 808 297 794 380 c 0,29,30
 787 419 787 419 769.5 459 c 128,-1,31
 752 499 752 499 720 538.5 c 128,-1,32
 688 578 688 578 646.5 609 c 128,-1,33
 605 640 605 640 546.5 659 c 128,-1,34
 488 678 488 678 421 678 c 0,35,36
 387 678 387 678 333 668.5 c 128,-1,37
 279 659 279 659 258 648 c 0,38,39
 252 648 252 648 245.5 657 c 128,-1,40
 239 666 239 666 237 676 c 0,41,42
 248 1228 248 1228 249 1270 c 1,43,-1
 545 1270 l 2,44,45
 581 1270 581 1270 626 1274.5 c 128,-1,46
 671 1279 671 1279 698 1284 c 2,47,-1
 726 1288 l 2,48,49
 729 1286 729 1286 735 1282.5 c 128,-1,50
 741 1279 741 1279 744 1277.5 c 128,-1,51
 747 1276 747 1276 750 1273 c 128,-1,52
 753 1270 753 1270 753 1266 c 0,53,54
 756 1251 756 1251 746.5 1201 c 128,-1,55
 737 1151 737 1151 718 1124 c 1,56,57
 608 1112 608 1112 489 1112 c 2,58,-1
 321 1112 l 1,59,60
 320 1072 320 1072 318.5 997 c 128,-1,61
 317 922 317 922 315.5 862 c 128,-1,62
 314 802 314 802 312 752 c 1,63,64
 349 768 349 768 411.5 779 c 128,-1,65
 474 790 474 790 517 790 c 0,0,1
EndSplineSet
Validated: 33
Substitution2: "'ordn' Ordinals lookup 17 subtable" five.ordn
Substitution2: "'onum' Oldstyle Figures lookup 16 subtable" five.onum
Substitution2: "'pnum' Proportional Numbers lookup 14 subtable" five.prop
EndChar

StartChar: six
Encoding: 54 54 24
Width: 1090
GlyphClass: 2
Flags: W
LayerCount: 4
Fore
SplineSet
331 612 m 1,0,1
 333 556 333 556 347 476 c 0,2,3
 359 406 359 406 387 334 c 128,-1,4
 415 262 415 262 453.5 198 c 128,-1,5
 492 134 492 134 546.5 94 c 128,-1,6
 601 54 601 54 658 54 c 0,7,8
 753 54 753 54 799.5 143.5 c 128,-1,9
 846 233 846 233 822 368 c 0,10,11
 806 457 806 457 769 528 c 128,-1,12
 732 599 732 599 665.5 645.5 c 128,-1,13
 599 692 599 692 513 692 c 0,14,15
 390 692 390 692 331 612 c 1,0,1
552 790 m 0,16,17
 632 790 632 790 701.5 763.5 c 128,-1,18
 771 737 771 737 818 696.5 c 128,-1,19
 865 656 865 656 901.5 603.5 c 128,-1,20
 938 551 938 551 957.5 501.5 c 128,-1,21
 977 452 977 452 985 406 c 0,22,23
 1015 236 1015 236 918.5 112 c 128,-1,24
 822 -12 822 -12 653 -12 c 0,25,26
 566 -12 566 -12 483.5 28 c 128,-1,27
 401 68 401 68 340.5 133 c 128,-1,28
 280 198 280 198 238 278 c 128,-1,29
 196 358 196 358 181 440 c 0,30,31
 154 594 154 594 179 730.5 c 128,-1,32
 204 867 204 867 280 970 c 0,33,34
 362 1082 362 1082 497 1170.5 c 128,-1,35
 632 1259 632 1259 759 1294 c 0,36,37
 771 1294 771 1294 780.5 1272.5 c 128,-1,38
 790 1251 790 1251 793 1236 c 1,39,40
 362 1089 362 1089 332 700 c 1,41,42
 375 742 375 742 436.5 766 c 128,-1,43
 498 790 498 790 552 790 c 0,16,17
EndSplineSet
Validated: 33
Substitution2: "'ordn' Ordinals lookup 17 subtable" six.ordn
Substitution2: "'onum' Oldstyle Figures lookup 16 subtable" six.onum
Substitution2: "'pnum' Proportional Numbers lookup 14 subtable" six.prop
EndChar

StartChar: seven
Encoding: 55 55 25
Width: 1090
GlyphClass: 2
Flags: W
LayerCount: 4
Fore
SplineSet
704 1266 m 2,0,1
 735 1266 735 1266 786.5 1269 c 128,-1,2
 838 1272 838 1272 839 1272 c 0,3,4
 851 1272 851 1272 854 1254 c 0,5,6
 856 1245 856 1245 853 1229 c 128,-1,7
 850 1213 850 1213 846 1199 c 128,-1,8
 842 1185 842 1185 834 1159.5 c 128,-1,9
 826 1134 826 1134 822 1120 c 2,10,-1
 492 -4 l 2,11,12
 487 -10 487 -10 473 -10 c 0,13,14
 448 -10 448 -10 414.5 1.5 c 128,-1,15
 381 13 381 13 379 26 c 1,16,17
 446 165 446 165 540 438.5 c 128,-1,18
 634 712 634 712 694 916 c 2,19,-1
 754 1120 l 1,20,-1
 246 1120 l 2,21,22
 188 1120 188 1120 162.5 1084.5 c 128,-1,23
 137 1049 137 1049 129 966 c 0,24,25
 129 954 129 954 107 954 c 0,26,27
 83 954 83 954 65 966 c 1,28,29
 91 1157 91 1157 96 1266 c 1,30,-1
 704 1266 l 2,0,1
EndSplineSet
Validated: 1
Substitution2: "'ordn' Ordinals lookup 17 subtable" seven.ordn
Substitution2: "'onum' Oldstyle Figures lookup 16 subtable" seven.onum
Substitution2: "'pnum' Proportional Numbers lookup 14 subtable" seven.prop
EndChar

StartChar: eight
Encoding: 56 56 26
Width: 1090
GlyphClass: 2
Flags: W
LayerCount: 4
Fore
SplineSet
646 54 m 0,0,1
 745 54 745 54 793 114 c 128,-1,2
 841 174 841 174 823 276 c 0,3,4
 815 323 815 323 781.5 371.5 c 128,-1,5
 748 420 748 420 711 453.5 c 128,-1,6
 674 487 674 487 625 520.5 c 128,-1,7
 576 554 576 554 554 567 c 128,-1,8
 532 580 532 580 512 590 c 0,9,10
 503 594 503 594 499 594 c 0,11,12
 493 594 493 594 491 592 c 0,13,14
 417 539 417 539 391.5 474 c 128,-1,15
 366 409 366 409 382 314 c 0,16,17
 403 197 403 197 482 125.5 c 128,-1,18
 561 54 561 54 646 54 c 0,0,1
441 1216 m 0,19,20
 369 1216 369 1216 330.5 1151 c 128,-1,21
 292 1086 292 1086 308 996 c 0,22,23
 317 944 317 944 343.5 900.5 c 128,-1,24
 370 857 370 857 411 824 c 128,-1,25
 452 791 452 791 481 773.5 c 128,-1,26
 510 756 510 756 554 733 c 0,27,28
 561 730 561 730 563 728 c 0,29,30
 572 724 572 724 576 724 c 0,31,32
 582 724 582 724 587 728 c 0,33,34
 707 818 707 818 680 972 c 0,35,36
 664 1065 664 1065 595.5 1140.5 c 128,-1,37
 527 1216 527 1216 441 1216 c 0,19,20
441 1286 m 0,38,39
 580 1286 580 1286 688.5 1206.5 c 128,-1,40
 797 1127 797 1127 821 992 c 0,41,42
 831 937 831 937 819 888.5 c 128,-1,43
 807 840 807 840 775 801.5 c 128,-1,44
 743 763 743 763 717 739.5 c 128,-1,45
 691 716 691 716 650 688 c 1,46,47
 638 685 638 685 653 676 c 0,48,49
 768 617 768 617 862.5 525 c 128,-1,50
 957 433 957 433 975 334 c 0,51,52
 1001 187 1001 187 904.5 84.5 c 128,-1,53
 808 -18 808 -18 655 -18 c 0,54,55
 490 -18 490 -18 370.5 72.5 c 128,-1,56
 251 163 251 163 225 308 c 0,57,58
 220 334 220 334 222 359 c 128,-1,59
 224 384 224 384 227.5 404.5 c 128,-1,60
 231 425 231 425 243 447.5 c 128,-1,61
 255 470 255 470 263 485 c 128,-1,62
 271 500 271 500 290 520 c 128,-1,63
 309 540 309 540 317.5 549.5 c 128,-1,64
 326 559 326 559 348 576.5 c 128,-1,65
 370 594 370 594 376 599 c 128,-1,66
 382 604 382 604 404.5 620 c 128,-1,67
 427 636 427 636 428 636 c 0,68,69
 437 643 437 643 426 648 c 0,70,71
 340 695 340 695 262 777.5 c 128,-1,72
 184 860 184 860 167 960 c 0,73,74
 144 1088 144 1088 226.5 1187 c 128,-1,75
 309 1286 309 1286 441 1286 c 0,38,39
EndSplineSet
Validated: 33
Substitution2: "'ordn' Ordinals lookup 17 subtable" eight.ordn
Substitution2: "'onum' Oldstyle Figures lookup 16 subtable" eight.onum
Substitution2: "'pnum' Proportional Numbers lookup 14 subtable" eight.prop
EndChar

StartChar: nine
Encoding: 57 57 27
Width: 1090
GlyphClass: 2
Flags: W
LayerCount: 4
Fore
SplineSet
759 670 m 1,0,1
 757 726 757 726 743 806 c 0,2,3
 731 876 731 876 703 948 c 128,-1,4
 675 1020 675 1020 636.5 1084 c 128,-1,5
 598 1148 598 1148 543.5 1188 c 128,-1,6
 489 1228 489 1228 432 1228 c 0,7,8
 338 1228 338 1228 292 1138.5 c 128,-1,9
 246 1049 246 1049 270 914 c 0,10,11
 286 824 286 824 322.5 753.5 c 128,-1,12
 359 683 359 683 425 636.5 c 128,-1,13
 491 590 491 590 577 590 c 0,14,15
 700 590 700 590 759 670 c 1,0,1
297 46 m 1,16,17
 728 193 728 193 758 582 c 1,18,19
 715 540 715 540 653.5 516 c 128,-1,20
 592 492 592 492 538 492 c 0,21,22
 458 492 458 492 388.5 518.5 c 128,-1,23
 319 545 319 545 272.5 585.5 c 128,-1,24
 226 626 226 626 189.5 679 c 128,-1,25
 153 732 153 732 134 780.5 c 128,-1,26
 115 829 115 829 107 876 c 0,27,28
 77 1046 77 1046 172.5 1170 c 128,-1,29
 268 1294 268 1294 437 1294 c 0,30,31
 524 1294 524 1294 606.5 1254 c 128,-1,32
 689 1214 689 1214 749.5 1149 c 128,-1,33
 810 1084 810 1084 852 1004 c 128,-1,34
 894 924 894 924 909 842 c 0,35,36
 936 688 936 688 911 551.5 c 128,-1,37
 886 415 886 415 810 312 c 0,38,39
 728 200 728 200 593 111.5 c 128,-1,40
 458 23 458 23 331 -12 c 0,41,42
 319 -12 319 -12 309.5 9.5 c 128,-1,43
 300 31 300 31 297 46 c 1,16,17
EndSplineSet
Validated: 33
Substitution2: "'onum' Oldstyle Figures lookup 16 subtable" nine.onum
Substitution2: "'pnum' Proportional Numbers lookup 14 subtable" nine.prop
EndChar

StartChar: colon
Encoding: 58 58 28
Width: 452
GlyphClass: 2
Flags: W
LayerCount: 4
Fore
SplineSet
174 90 m 128,-1,1
 166 135 166 135 194 166.5 c 128,-1,2
 222 198 222 198 267 198 c 128,-1,3
 312 198 312 198 349 166.5 c 128,-1,4
 386 135 386 135 394 90 c 128,-1,5
 402 45 402 45 376.5 11.5 c 128,-1,6
 351 -22 351 -22 306 -22 c 128,-1,7
 261 -22 261 -22 221.5 11.5 c 128,-1,0
 182 45 182 45 174 90 c 128,-1,1
57 754 m 128,-1,9
 49 799 49 799 77 830.5 c 128,-1,10
 105 862 105 862 150 862 c 128,-1,11
 195 862 195 862 232 830.5 c 128,-1,12
 269 799 269 799 277 754 c 128,-1,13
 285 709 285 709 259.5 675.5 c 128,-1,14
 234 642 234 642 189 642 c 128,-1,15
 144 642 144 642 104.5 675.5 c 128,-1,8
 65 709 65 709 57 754 c 128,-1,9
EndSplineSet
Validated: 33
Substitution2: "'smcp' Lowercase to Small Capitals lookup 12 subtable" colon.sc
EndChar

StartChar: semicolon
Encoding: 59 59 29
Width: 464
GlyphClass: 2
Flags: W
LayerCount: 4
Fore
SplineSet
262 246 m 0,0,1
 290 246 290 246 317 232 c 1,2,3
 364 170 364 170 377 92 c 0,4,5
 392 8 392 8 334.5 -113.5 c 128,-1,6
 277 -235 277 -235 207 -278 c 1,7,8
 197 -278 197 -278 184 -262 c 128,-1,9
 171 -246 171 -246 169 -236 c 1,10,11
 189 -219 189 -219 201.5 -205.5 c 128,-1,12
 214 -192 214 -192 233 -163.5 c 128,-1,13
 252 -135 252 -135 258 -97 c 128,-1,14
 264 -59 264 -59 256 -14 c 0,15,16
 250 18 250 18 209 63 c 128,-1,17
 168 108 168 108 161 148 c 0,18,19
 155 183 155 183 183 214.5 c 128,-1,20
 211 246 211 246 262 246 c 0,0,1
40.5 754 m 128,-1,22
 33 799 33 799 60.5 830.5 c 128,-1,23
 88 862 88 862 133 862 c 128,-1,24
 178 862 178 862 215.5 830.5 c 128,-1,25
 253 799 253 799 260.5 754 c 128,-1,26
 268 709 268 709 242.5 675.5 c 128,-1,27
 217 642 217 642 172 642 c 128,-1,28
 127 642 127 642 87.5 675.5 c 128,-1,21
 48 709 48 709 40.5 754 c 128,-1,22
EndSplineSet
Validated: 33
Substitution2: "'smcp' Lowercase to Small Capitals lookup 12 subtable" semicolon.sc
EndChar

StartChar: less
Encoding: 60 60 30
Width: 984
GlyphClass: 2
Flags: W
LayerCount: 4
Fore
SplineSet
949 70 m 0,0,1
 951 56 951 56 946.5 13 c 128,-1,2
 942 -30 942 -30 934 -30 c 0,3,4
 932 -30 932 -30 924 -26 c 2,5,-1
 107 354 l 2,6,7
 68 373 68 373 57 434 c 0,8,9
 52 464 52 464 84 482 c 2,10,-1
 756 856 l 2,11,12
 763 860 763 860 766 860 c 0,13,14
 782 860 782 860 816 766 c 0,15,16
 818 761 818 761 817.5 756.5 c 128,-1,17
 817 752 817 752 815 750 c 2,18,-1
 813 748 l 1,19,-1
 219 418 l 1,20,-1
 941 82 l 2,21,22
 947 80 947 80 949 70 c 0,0,1
EndSplineSet
Validated: 1
Substitution2: "'smcp' Lowercase to Small Capitals lookup 12 subtable" less.sc
EndChar

StartChar: equal
Encoding: 61 61 31
Width: 1130
GlyphClass: 2
Flags: W
LayerCount: 4
Fore
SplineSet
992 240 m 1,0,1
 180 240 l 1,2,3
 169 244 169 244 166.5 266.5 c 128,-1,4
 164 289 164 289 172.5 317 c 128,-1,5
 181 345 181 345 193 350 c 1,6,-1
 999 350 l 1,7,8
 1012 346 1012 346 1015 324.5 c 128,-1,9
 1018 303 1018 303 1011 275 c 128,-1,10
 1004 247 1004 247 992 240 c 1,0,1
941 528 m 1,11,-1
 129 528 l 1,12,13
 118 532 118 532 116 554.5 c 128,-1,14
 114 577 114 577 122 605 c 128,-1,15
 130 633 130 633 142 638 c 1,16,-1
 948 638 l 1,17,18
 961 634 961 634 964 612.5 c 128,-1,19
 967 591 967 591 960 563 c 128,-1,20
 953 535 953 535 941 528 c 1,11,-1
EndSplineSet
Validated: 1
Substitution2: "'smcp' Lowercase to Small Capitals lookup 12 subtable" equal.sc
EndChar

StartChar: greater
Encoding: 62 62 32
Width: 986
GlyphClass: 2
Flags: W
LayerCount: 4
Fore
SplineSet
157 70 m 0,0,1
 156 74 156 74 157 77 c 128,-1,2
 158 80 158 80 159 81 c 2,3,-1
 161 82 l 1,4,-1
 763 418 l 1,5,-1
 55 748 l 2,6,7
 49 750 49 750 46 764 c 0,8,9
 42 789 42 789 48.5 824.5 c 128,-1,10
 55 860 55 860 62 860 c 0,11,12
 64 860 64 860 72 856 c 2,13,-1
 878 482 l 2,14,15
 915 465 915 465 921 434 c 0,16,17
 932 372 932 372 901 354 c 2,18,-1
 218 -26 l 2,19,20
 211 -30 211 -30 208 -30 c 0,21,22
 200 -30 200 -30 180 12.5 c 128,-1,23
 160 55 160 55 157 70 c 0,0,1
EndSplineSet
Validated: 33
Substitution2: "'smcp' Lowercase to Small Capitals lookup 12 subtable" greater.sc
EndChar

StartChar: question
Encoding: 63 63 33
Width: 712
GlyphClass: 2
Flags: W
LayerCount: 4
Fore
SplineSet
221 90 m 128,-1,1
 213 135 213 135 241 166.5 c 128,-1,2
 269 198 269 198 314 198 c 128,-1,3
 359 198 359 198 396 166.5 c 128,-1,4
 433 135 433 135 441 90 c 128,-1,5
 449 45 449 45 423.5 11.5 c 128,-1,6
 398 -22 398 -22 353 -22 c 128,-1,7
 308 -22 308 -22 268.5 11.5 c 128,-1,0
 229 45 229 45 221 90 c 128,-1,1
118 1096 m 0,8,9
 91 1096 91 1096 55.5 1124 c 128,-1,10
 20 1152 20 1152 12 1196 c 0,11,12
 3 1245 3 1245 17 1270 c 1,13,14
 43 1284 43 1284 111 1284 c 0,15,16
 152 1284 152 1284 205.5 1268.5 c 128,-1,17
 259 1253 259 1253 318 1221 c 128,-1,18
 377 1189 377 1189 429 1146 c 128,-1,19
 481 1103 481 1103 519.5 1042 c 128,-1,20
 558 981 558 981 570 914 c 0,21,22
 588 811 588 811 555 741.5 c 128,-1,23
 522 672 522 672 422 608 c 0,24,25
 384 583 384 583 339 541.5 c 128,-1,26
 294 500 294 500 288 484 c 0,27,28
 284 473 284 473 284.5 453.5 c 128,-1,29
 285 434 285 434 286.5 420.5 c 128,-1,30
 288 407 288 407 293.5 379 c 128,-1,31
 299 351 299 351 301 344 c 0,32,33
 293 320 293 320 273 318 c 1,34,35
 253 326 253 326 243 340 c 0,36,37
 215 407 215 407 195 522 c 0,38,39
 188 562 188 562 192.5 596.5 c 128,-1,40
 197 631 197 631 205.5 653 c 128,-1,41
 214 675 214 675 235 698 c 128,-1,42
 256 721 256 721 269.5 732 c 128,-1,43
 283 743 283 743 309 761 c 0,44,45
 318 767 318 767 321 770 c 0,46,47
 357 796 357 796 372 807 c 128,-1,48
 387 818 387 818 411.5 840.5 c 128,-1,49
 436 863 436 863 444.5 879.5 c 128,-1,50
 453 896 453 896 458.5 921 c 128,-1,51
 464 946 464 946 460 974 c 0,52,53
 447 1049 447 1049 395 1093.5 c 128,-1,54
 343 1138 343 1138 283 1138 c 128,-1,55
 223 1138 223 1138 180 1117 c 128,-1,56
 137 1096 137 1096 118 1096 c 0,8,9
EndSplineSet
Validated: 33
Substitution2: "'smcp' Lowercase to Small Capitals lookup 12 subtable" question.sc
EndChar

StartChar: at
Encoding: 64 64 34
Width: 1496
GlyphClass: 2
Flags: W
LayerCount: 4
Fore
SplineSet
712 1156 m 0,0,1
 826 1156 826 1156 929 1122 c 128,-1,2
 1032 1088 1032 1088 1111 1029 c 128,-1,3
 1190 970 1190 970 1252.5 891.5 c 128,-1,4
 1315 813 1315 813 1353.5 724 c 128,-1,5
 1392 635 1392 635 1409 540 c 0,6,7
 1436 389 1436 389 1404.5 262 c 128,-1,8
 1373 135 1373 135 1291.5 60.5 c 128,-1,9
 1210 -14 1210 -14 1095 -14 c 0,10,11
 1018 -14 1018 -14 966 28 c 128,-1,12
 914 70 914 70 898 158 c 0,13,14
 888 213 888 213 896 250 c 1,15,16
 885 218 885 218 864 177.5 c 128,-1,17
 843 137 843 137 812.5 93 c 128,-1,18
 782 49 782 49 741.5 19.5 c 128,-1,19
 701 -10 701 -10 660 -10 c 0,20,21
 571 -10 571 -10 506.5 69 c 128,-1,22
 442 148 442 148 422 260 c 0,23,24
 403 367 403 367 435 478 c 128,-1,25
 467 589 467 589 532 675 c 128,-1,26
 597 761 597 761 692 815.5 c 128,-1,27
 787 870 787 870 887 870 c 0,28,29
 962 870 962 870 1037 844 c 1,30,-1
 1027 212 l 2,31,32
 1025 188 1025 188 1029 162 c 0,33,34
 1037 116 1037 116 1067.5 94 c 128,-1,35
 1098 72 1098 72 1141 72 c 0,36,37
 1188 72 1188 72 1230 109.5 c 128,-1,38
 1272 147 1272 147 1299.5 208.5 c 128,-1,39
 1327 270 1327 270 1336.5 356.5 c 128,-1,40
 1346 443 1346 443 1330 534 c 0,41,42
 1315 617 1315 617 1282.5 694.5 c 128,-1,43
 1250 772 1250 772 1196.5 841.5 c 128,-1,44
 1143 911 1143 911 1075.5 963 c 128,-1,45
 1008 1015 1008 1015 917.5 1045.5 c 128,-1,46
 827 1076 827 1076 726 1076 c 0,47,48
 607 1076 607 1076 508.5 1033 c 128,-1,49
 410 990 410 990 345.5 917 c 128,-1,50
 281 844 281 844 240.5 749.5 c 128,-1,51
 200 655 200 655 190 550 c 128,-1,52
 180 445 180 445 198 340 c 0,53,54
 227 173 227 173 326 42 c 128,-1,55
 425 -89 425 -89 552 -156 c 0,56,57
 636 -200 636 -200 711 -212 c 1,58,59
 713 -223 713 -223 689 -235.5 c 128,-1,60
 665 -248 665 -248 646 -248 c 0,61,62
 599 -248 599 -248 566 -236 c 0,63,64
 413 -183 413 -183 283.5 -23.5 c 128,-1,65
 154 136 154 136 118 340 c 0,66,67
 97 458 97 458 108 575 c 128,-1,68
 119 692 119 692 164 796.5 c 128,-1,69
 209 901 209 901 282 981.5 c 128,-1,70
 355 1062 355 1062 466 1109 c 128,-1,71
 577 1156 577 1156 712 1156 c 0,0,1
819 778 m 0,72,73
 763 778 763 778 709 735.5 c 128,-1,74
 655 693 655 693 617.5 626.5 c 128,-1,75
 580 560 580 560 564 473 c 128,-1,76
 548 386 548 386 563 302 c 0,77,78
 598 106 598 106 699 106 c 0,79,80
 747 106 747 106 794.5 176.5 c 128,-1,81
 842 247 842 247 870.5 349.5 c 128,-1,82
 899 452 899 452 901 548 c 2,83,-1
 905 752 l 1,84,85
 878 778 878 778 819 778 c 0,72,73
EndSplineSet
Validated: 33
Substitution2: "'smcp' Lowercase to Small Capitals lookup 12 subtable" at.sc
EndChar

StartChar: A
Encoding: 65 65 35
Width: 1254
GlyphClass: 2
Flags: W
LayerCount: 4
Fore
SplineSet
257 278 m 0,0,1
 401 957 401 957 469 1268 c 0,2,3
 474 1283 474 1283 498 1304.5 c 128,-1,4
 522 1326 522 1326 535 1326 c 0,5,6
 538 1326 538 1326 541.5 1323.5 c 128,-1,7
 545 1321 545 1321 548 1320 c 2,8,-1
 1143 252 l 2,9,10
 1216 123 1216 123 1217 120 c 0,11,12
 1235 89 1235 89 1288 70.5 c 128,-1,13
 1341 52 1341 52 1365 52 c 1,14,15
 1373 43 1373 43 1376.5 22.5 c 128,-1,16
 1380 2 1380 2 1379 -6 c 1,17,18
 1177 4 1177 4 1158 4 c 0,19,20
 1117 4 1117 4 1081.5 2.5 c 128,-1,21
 1046 1 1046 1 1002.5 -2 c 128,-1,22
 959 -5 959 -5 927 -6 c 1,23,24
 919 2 919 2 916 23 c 128,-1,25
 913 44 913 44 919 52 c 1,26,27
 942 52 942 52 979.5 59.5 c 128,-1,28
 1017 67 1017 67 1027 78 c 0,29,30
 1034 86 1034 86 1030 106 c 0,31,32
 1025 133 1025 133 974 230.5 c 128,-1,33
 923 328 923 328 874 412 c 2,34,-1
 825 496 l 2,35,36
 818 504 818 504 812 504 c 0,37,38
 786 506 786 506 613 506 c 0,39,40
 487 506 487 506 398 500 c 1,41,-1
 389 494 l 1,42,43
 359 346 359 346 342 250 c 0,44,45
 328 168 328 168 339 108 c 0,46,47
 342 91 342 91 363 79 c 128,-1,48
 384 67 384 67 411.5 61.5 c 128,-1,49
 439 56 439 56 458 54 c 128,-1,50
 477 52 477 52 487 52 c 1,51,52
 492 48 492 48 497.5 25.5 c 128,-1,53
 503 3 503 3 501 -6 c 1,54,55
 472 -5 472 -5 437.5 -2 c 128,-1,56
 403 1 403 1 374 2.5 c 128,-1,57
 345 4 345 4 306 4 c 0,58,59
 265 4 265 4 233.5 2.5 c 128,-1,60
 202 1 202 1 164.5 -2 c 128,-1,61
 127 -5 127 -5 93 -6 c 1,62,63
 88 -2 88 -2 84.5 20 c 128,-1,64
 81 42 81 42 83 52 c 1,65,66
 108 52 108 52 147.5 62.5 c 128,-1,67
 187 73 187 73 197 90 c 0,68,69
 228 145 228 145 257 278 c 0,0,1
507 1084 m 1,70,-1
 409 596 l 2,71,72
 410 588 410 588 415 588 c 0,73,74
 520 584 520 584 597 584 c 0,75,76
 672 584 672 584 764 590 c 0,77,78
 766 590 766 590 767 592.5 c 128,-1,79
 768 595 768 595 769 598 c 2,80,-1
 769 600 l 1,81,-1
 507 1084 l 1,70,-1
EndSplineSet
Validated: 33
EndChar

StartChar: B
Encoding: 66 66 36
Width: 1192
GlyphClass: 2
Flags: W
LayerCount: 4
Fore
SplineSet
412 664 m 1,0,-1
 489 230 l 2,1,2
 490 225 490 225 490 220 c 0,3,4
 495 193 495 193 506 152 c 0,5,6
 520 103 520 103 531 94 c 0,7,8
 556 72 556 72 593.5 65 c 128,-1,9
 631 58 631 58 695 58 c 0,10,11
 1013 58 1013 58 961 352 c 0,12,13
 906 664 906 664 534 664 c 2,14,-1
 412 664 l 1,0,-1
399 740 m 1,15,-1
 566 740 l 2,16,17
 691 740 691 740 741.5 809 c 128,-1,18
 792 878 792 878 775 974 c 0,19,20
 752 1106 752 1106 655.5 1180 c 128,-1,21
 559 1254 559 1254 418 1254 c 0,22,23
 327 1254 327 1254 322 1234 c 0,24,25
 316 1209 316 1209 332 1117 c 0,26,27
 335 1101 335 1101 338 1084 c 2,28,-1
 399 740 l 1,15,-1
495 1318 m 0,29,30
 553 1318 553 1318 608.5 1309 c 128,-1,31
 664 1300 664 1300 722 1278.5 c 128,-1,32
 780 1257 780 1257 825 1224 c 128,-1,33
 870 1191 870 1191 904 1138.5 c 128,-1,34
 938 1086 938 1086 949 1020 c 0,35,36
 967 917 967 917 914 836 c 128,-1,37
 861 755 861 755 798 730 c 0,38,39
 790 726 790 726 800 720 c 1,40,41
 839 718 839 718 892.5 695 c 128,-1,42
 946 672 946 672 999.5 632.5 c 128,-1,43
 1053 593 1053 593 1096 530.5 c 128,-1,44
 1139 468 1139 468 1151 398 c 0,45,46
 1183 215 1183 215 1068 102 c 0,47,48
 961 -2 961 -2 668 -6 c 1,49,-1
 208 -6 l 1,50,51
 200 2 200 2 196.5 23 c 128,-1,52
 193 44 193 44 198 52 c 1,53,54
 228 52 228 52 278.5 61 c 128,-1,55
 329 70 329 70 330 84 c 0,56,57
 334 116 334 116 314 232 c 2,58,-1
 164 1086 l 2,59,60
 144 1202 144 1202 128 1234 c 0,61,62
 122 1248 122 1248 68 1257 c 128,-1,63
 14 1266 14 1266 -16 1266 c 1,64,65
 -23 1274 -23 1274 -27.5 1295 c 128,-1,66
 -32 1316 -32 1316 -26 1324 c 1,67,68
 181 1314 181 1314 212 1314 c 0,69,70
 246 1314 246 1314 338.5 1316 c 128,-1,71
 431 1318 431 1318 495 1318 c 0,29,30
EndSplineSet
Validated: 33
EndChar

StartChar: C
Encoding: 67 67 37
Width: 1348
GlyphClass: 2
Flags: W
LayerCount: 4
Fore
SplineSet
653 1334 m 0,0,1
 883 1334 883 1334 1085 1292 c 1,2,3
 1180 1016 1180 1016 1183 996 c 0,4,5
 1186 987 1186 987 1172.5 978.5 c 128,-1,6
 1159 970 1159 970 1144 970 c 128,-1,7
 1129 970 1129 970 1118 976 c 1,8,9
 1010 1268 1010 1268 675 1268 c 0,10,11
 533 1268 533 1268 434.5 1180 c 128,-1,12
 336 1092 336 1092 300.5 960 c 128,-1,13
 265 828 265 828 290 686 c 0,14,15
 307 591 307 591 343 500.5 c 128,-1,16
 379 410 379 410 436 329 c 128,-1,17
 493 248 493 248 564 187 c 128,-1,18
 635 126 635 126 727.5 90 c 128,-1,19
 820 54 820 54 921 54 c 0,20,21
 1076 54 1076 54 1168 150 c 0,22,23
 1244 231 1244 231 1249 382 c 1,24,25
 1254 382 1254 382 1258 382 c 0,26,27
 1288 382 1288 382 1316 366 c 1,28,29
 1323 328 1323 328 1318 211 c 128,-1,30
 1313 94 1313 94 1297 78 c 1,31,32
 1153 -12 1153 -12 883 -12 c 0,33,34
 738 -12 738 -12 602.5 41 c 128,-1,35
 467 94 467 94 365.5 183 c 128,-1,36
 264 272 264 272 193 392 c 128,-1,37
 122 512 122 512 99 644 c 0,38,39
 74 783 74 783 103 909.5 c 128,-1,40
 132 1036 132 1036 203.5 1129.5 c 128,-1,41
 275 1223 275 1223 392 1278.5 c 128,-1,42
 509 1334 509 1334 653 1334 c 0,0,1
EndSplineSet
Validated: 33
EndChar

StartChar: D
Encoding: 68 68 38
Width: 1420
GlyphClass: 2
Flags: W
LayerCount: 4
Fore
SplineSet
340 1082 m 2,0,-1
 491 230 l 2,1,2
 514 100 514 100 528 86 c 0,3,4
 553 58 553 58 697 58 c 0,5,6
 806 58 806 58 894 92.5 c 128,-1,7
 982 127 982 127 1044 195 c 128,-1,8
 1106 263 1106 263 1129 373.5 c 128,-1,9
 1152 484 1152 484 1127 626 c 0,10,11
 1104 758 1104 758 1054.5 864.5 c 128,-1,12
 1005 971 1005 971 940.5 1042 c 128,-1,13
 876 1113 876 1113 795.5 1161 c 128,-1,14
 715 1209 715 1209 631 1230.5 c 128,-1,15
 547 1252 547 1252 458 1252 c 0,16,17
 327 1252 327 1252 324 1230 c 0,18,19
 320 1197 320 1197 335 1112 c 0,20,21
 337 1098 337 1098 340 1082 c 2,0,-1
501 1316 m 0,22,23
 662 1316 662 1316 804 1266.5 c 128,-1,24
 946 1217 946 1217 1050 1130.5 c 128,-1,25
 1154 1044 1154 1044 1223.5 925 c 128,-1,26
 1293 806 1293 806 1317 668 c 0,27,28
 1336 561 1336 561 1331.5 467 c 128,-1,29
 1327 373 1327 373 1290.5 284.5 c 128,-1,30
 1254 196 1254 196 1184.5 133 c 128,-1,31
 1115 70 1115 70 993.5 32 c 128,-1,32
 872 -6 872 -6 708 -6 c 2,33,-1
 208 -6 l 1,34,35
 200 2 200 2 196.5 23 c 128,-1,36
 193 44 193 44 198 52 c 1,37,38
 228 52 228 52 278.5 61 c 128,-1,39
 329 70 329 70 330 84 c 0,40,41
 334 116 334 116 314 232 c 2,42,-1
 164 1086 l 2,43,44
 144 1202 144 1202 128 1234 c 0,45,46
 122 1248 122 1248 68 1257 c 128,-1,47
 14 1266 14 1266 -16 1266 c 1,48,49
 -23 1274 -23 1274 -27.5 1295 c 128,-1,50
 -32 1316 -32 1316 -26 1324 c 1,51,52
 181 1314 181 1314 212 1314 c 0,53,54
 250 1314 250 1314 353 1315 c 128,-1,55
 456 1316 456 1316 501 1316 c 0,22,23
EndSplineSet
Validated: 33
EndChar

StartChar: E
Encoding: 69 69 39
Width: 1174
GlyphClass: 2
Flags: W
LayerCount: 4
Fore
SplineSet
212 1314 m 0,0,1
 302 1314 302 1314 521 1321 c 128,-1,2
 740 1328 740 1328 853 1328 c 1,3,4
 871 1270 871 1270 910.5 1175 c 128,-1,5
 950 1080 950 1080 959 1056 c 1,6,7
 951 1046 951 1046 925 1046 c 0,8,9
 900 1046 900 1046 894 1060 c 0,10,11
 843 1171 843 1171 781 1209.5 c 128,-1,12
 719 1248 719 1248 629 1248 c 2,13,-1
 457 1248 l 2,14,15
 326 1248 326 1248 323 1226 c 0,16,17
 319 1193 319 1193 333 1112 c 0,18,19
 335 1099 335 1099 338 1084 c 2,20,-1
 404 710 l 2,21,22
 404 703 404 703 428.5 700.5 c 128,-1,23
 453 698 453 698 492 698 c 2,24,-1
 598 698 l 2,25,26
 648 698 648 698 676 699 c 128,-1,27
 704 700 704 700 727.5 705 c 128,-1,28
 751 710 751 710 760.5 718 c 128,-1,29
 770 726 770 726 777.5 740.5 c 128,-1,30
 785 755 785 755 787 775 c 128,-1,31
 789 795 789 795 792 825 c 0,32,33
 792 836 792 836 793 842 c 0,34,35
 794 856 794 856 820 856 c 0,36,37
 844 856 844 856 856 846 c 1,38,-1
 923 468 l 1,39,40
 916 460 916 460 892 460 c 0,41,42
 866 460 866 460 857 476 c 0,43,44
 822 555 822 555 808.5 576.5 c 128,-1,45
 795 598 795 598 778 608 c 0,46,47
 750 624 750 624 563 624 c 2,48,49
 532 624 l 0,50,51
 521 624 521 624 501.5 623.5 c 128,-1,52
 482 623 482 623 470 622 c 128,-1,53
 458 621 458 621 445.5 619 c 128,-1,54
 433 617 433 617 427.5 613.5 c 128,-1,55
 422 610 422 610 423 606 c 2,56,-1
 490 226 l 2,57,58
 492 216 492 216 493 205 c 0,59,60
 498 177 498 177 505 143 c 0,61,62
 516 95 516 95 526 88 c 0,63,64
 546 74 546 74 573 71 c 128,-1,65
 600 68 600 68 671 68 c 2,66,-1
 767 68 l 2,67,68
 839 68 839 68 906 82.5 c 128,-1,69
 973 97 973 97 1010 122 c 0,70,71
 1048 148 1048 148 1066 194.5 c 128,-1,72
 1084 241 1084 241 1100 324 c 0,73,74
 1101 336 1101 336 1126 336 c 0,75,76
 1164 336 1164 336 1178 324 c 1,77,78
 1174 298 1174 298 1163 241 c 128,-1,79
 1152 184 1152 184 1145.5 148.5 c 128,-1,80
 1139 113 1139 113 1133.5 68 c 128,-1,81
 1128 23 1128 23 1129 -8 c 1,82,83
 1026 -8 1026 -8 805 -4 c 128,-1,84
 584 0 584 0 445 0 c 0,85,86
 396 0 396 0 320.5 -3 c 128,-1,87
 245 -6 245 -6 208 -6 c 1,88,89
 200 2 200 2 197 23 c 128,-1,90
 194 44 194 44 198 52 c 1,91,92
 228 52 228 52 278.5 61 c 128,-1,93
 329 70 329 70 331 84 c 0,94,95
 335 116 335 116 314 232 c 2,96,-1
 164 1086 l 2,97,98
 144 1202 144 1202 128 1234 c 0,99,100
 122 1248 122 1248 68 1257 c 128,-1,101
 14 1266 14 1266 -16 1266 c 1,102,103
 -23 1274 -23 1274 -27.5 1295 c 128,-1,104
 -32 1316 -32 1316 -26 1324 c 1,105,106
 181 1314 181 1314 212 1314 c 0,0,1
EndSplineSet
Validated: 33
EndChar

StartChar: F
Encoding: 70 70 40
Width: 1070
GlyphClass: 2
Flags: W
LayerCount: 4
Fore
SplineSet
212 1314 m 0,0,1
 302 1314 302 1314 521 1321 c 128,-1,2
 740 1328 740 1328 853 1328 c 1,3,4
 871 1270 871 1270 910.5 1175 c 128,-1,5
 950 1080 950 1080 959 1056 c 1,6,7
 951 1046 951 1046 925 1046 c 0,8,9
 900 1046 900 1046 895 1060 c 0,10,11
 844 1171 844 1171 781.5 1209.5 c 128,-1,12
 719 1248 719 1248 629 1248 c 2,13,-1
 457 1248 l 2,14,15
 326 1248 326 1248 323 1226 c 0,16,17
 319 1194 319 1194 338 1084 c 2,18,-1
 404 710 l 2,19,20
 404 703 404 703 428.5 700.5 c 128,-1,21
 453 698 453 698 492 698 c 2,22,-1
 598 698 l 2,23,24
 648 698 648 698 676 699 c 128,-1,25
 704 700 704 700 727.5 705 c 128,-1,26
 751 710 751 710 761 718 c 128,-1,27
 771 726 771 726 778 740.5 c 128,-1,28
 785 755 785 755 787 775 c 128,-1,29
 789 795 789 795 792 825 c 0,30,31
 792 836 792 836 793 842 c 0,32,33
 794 856 794 856 821 856 c 0,34,35
 845 856 845 856 856 846 c 1,36,-1
 923 468 l 1,37,38
 916 460 916 460 892 460 c 0,39,40
 866 460 866 460 858 476 c 0,41,42
 823 555 823 555 809 576.5 c 128,-1,43
 795 598 795 598 778 608 c 0,44,45
 750 624 750 624 564 624 c 0,46,47
 420 624 420 624 423 606 c 2,48,-1
 489 232 l 2,49,50
 509 116 509 116 525 84 c 0,51,52
 531 70 531 70 593 61 c 128,-1,53
 655 52 655 52 688 52 c 1,54,55
 695 44 695 44 699.5 23 c 128,-1,56
 704 2 704 2 699 -6 c 1,57,58
 492 4 492 4 443 4 c 128,-1,59
 394 4 394 4 320 -1 c 128,-1,60
 246 -6 246 -6 209 -6 c 1,61,62
 201 2 201 2 197.5 23 c 128,-1,63
 194 44 194 44 198 52 c 1,64,65
 228 52 228 52 278.5 61 c 128,-1,66
 329 70 329 70 331 84 c 0,67,68
 335 116 335 116 315 232 c 2,69,-1
 164 1086 l 2,70,71
 144 1202 144 1202 128 1234 c 0,72,73
 122 1248 122 1248 68 1257 c 128,-1,74
 14 1266 14 1266 -16 1266 c 1,75,76
 -23 1274 -23 1274 -27 1295 c 128,-1,77
 -31 1316 -31 1316 -26 1324 c 1,78,79
 181 1314 181 1314 212 1314 c 0,0,1
EndSplineSet
Validated: 33
EndChar

StartChar: G
Encoding: 71 71 41
Width: 1440
GlyphClass: 2
Flags: W
LayerCount: 4
Fore
SplineSet
1125 350 m 2,0,1
 1105 466 1105 466 1089 498 c 0,2,3
 1083 512 1083 512 1030 521 c 128,-1,4
 977 530 977 530 947 530 c 1,5,6
 940 538 940 538 935.5 559 c 128,-1,7
 931 580 931 580 937 588 c 1,8,9
 1144 578 1144 578 1173 578 c 0,10,11
 1192 578 1192 578 1395 588 c 1,12,13
 1403 580 1403 580 1406.5 559 c 128,-1,14
 1410 538 1410 538 1405 530 c 1,15,16
 1376 530 1376 530 1329 521 c 128,-1,17
 1282 512 1282 512 1281 498 c 0,18,19
 1277 466 1277 466 1297 350 c 2,20,-1
 1322 208 l 2,21,22
 1326 184 1326 184 1340.5 159.5 c 128,-1,23
 1355 135 1355 135 1356 128 c 0,24,25
 1358 119 1358 119 1351.5 112 c 128,-1,26
 1345 105 1345 105 1322 92 c 0,27,28
 1268 60 1268 60 1230.5 42.5 c 128,-1,29
 1193 25 1193 25 1099 6.5 c 128,-1,30
 1005 -12 1005 -12 883 -12 c 0,31,32
 738 -12 738 -12 602.5 41 c 128,-1,33
 467 94 467 94 365.5 183 c 128,-1,34
 264 272 264 272 193 392 c 128,-1,35
 122 512 122 512 99 644 c 0,36,37
 74 783 74 783 103 909.5 c 128,-1,38
 132 1036 132 1036 203.5 1129.5 c 128,-1,39
 275 1223 275 1223 392 1278.5 c 128,-1,40
 509 1334 509 1334 653 1334 c 0,41,42
 883 1334 883 1334 1085 1292 c 1,43,44
 1180 1016 1180 1016 1183 996 c 0,45,46
 1186 987 1186 987 1172.5 978.5 c 128,-1,47
 1159 970 1159 970 1144 970 c 128,-1,48
 1129 970 1129 970 1118 976 c 1,49,50
 1010 1268 1010 1268 675 1268 c 0,51,52
 533 1268 533 1268 434.5 1180 c 128,-1,53
 336 1092 336 1092 300.5 960 c 128,-1,54
 265 828 265 828 290 686 c 0,55,56
 307 591 307 591 342.5 500.5 c 128,-1,57
 378 410 378 410 435 329 c 128,-1,58
 492 248 492 248 563 187 c 128,-1,59
 634 126 634 126 726.5 90 c 128,-1,60
 819 54 819 54 921 54 c 0,61,62
 1035 54 1035 54 1152 118 c 0,63,64
 1165 125 1165 125 1160 148 c 2,65,-1
 1125 350 l 2,0,1
EndSplineSet
Validated: 33
EndChar

StartChar: H
Encoding: 72 72 42
Width: 1452
GlyphClass: 2
Flags: W
LayerCount: 4
Fore
SplineSet
212 1314 m 0,0,1
 241 1314 241 1314 444 1324 c 1,2,3
 452 1316 452 1316 456 1292 c 128,-1,4
 460 1268 460 1268 455 1260 c 1,5,6
 425 1260 425 1260 374.5 1251 c 128,-1,7
 324 1242 324 1242 323 1228 c 0,8,9
 319 1196 319 1196 339 1080 c 2,10,-1
 400 730 l 1,11,-1
 406 724 l 1,12,13
 701 718 701 718 721 718 c 0,14,15
 757 718 757 718 1026 724 c 0,16,17
 1029 728 1029 728 1028 732 c 2,18,-1
 967 1080 l 2,19,20
 947 1196 947 1196 931 1228 c 0,21,22
 925 1242 925 1242 871 1251 c 128,-1,23
 817 1260 817 1260 787 1260 c 1,24,25
 780 1268 780 1268 775 1292 c 128,-1,26
 770 1316 770 1316 776 1324 c 1,27,28
 983 1314 983 1314 1014 1314 c 0,29,30
 1043 1314 1043 1314 1246 1324 c 1,31,32
 1254 1316 1254 1316 1258 1292 c 128,-1,33
 1262 1268 1262 1268 1257 1260 c 1,34,35
 1227 1260 1227 1260 1176.5 1251 c 128,-1,36
 1126 1242 1126 1242 1125 1228 c 0,37,38
 1121 1196 1121 1196 1141 1080 c 2,39,-1
 1289 238 l 2,40,41
 1309 122 1309 122 1325 90 c 0,42,43
 1331 76 1331 76 1385 67 c 128,-1,44
 1439 58 1439 58 1469 58 c 1,45,46
 1476 50 1476 50 1481 26 c 128,-1,47
 1486 2 1486 2 1480 -6 c 1,48,49
 1273 4 1273 4 1244 4 c 0,50,51
 1213 4 1213 4 1010 -6 c 1,52,53
 1002 2 1002 2 998 26 c 128,-1,54
 994 50 994 50 999 58 c 1,55,56
 1029 58 1029 58 1079.5 67 c 128,-1,57
 1130 76 1130 76 1131 90 c 0,58,59
 1135 122 1135 122 1115 238 c 2,60,-1
 1045 634 l 1,61,-1
 1040 642 l 1,62,63
 1016 643 1016 643 904 646.5 c 128,-1,64
 792 650 792 650 733 650 c 0,65,66
 441 650 441 650 419 638 c 1,67,-1
 417 634 l 1,68,-1
 487 238 l 2,69,70
 507 122 507 122 523 90 c 0,71,72
 529 76 529 76 583 67 c 128,-1,73
 637 58 637 58 667 58 c 1,74,75
 674 50 674 50 679 26 c 128,-1,76
 684 2 684 2 678 -6 c 1,77,78
 471 4 471 4 442 4 c 0,79,80
 411 4 411 4 208 -6 c 1,81,82
 200 2 200 2 196 26 c 128,-1,83
 192 50 192 50 197 58 c 1,84,85
 227 58 227 58 277.5 67 c 128,-1,86
 328 76 328 76 329 90 c 0,87,88
 333 122 333 122 313 238 c 2,89,-1
 165 1080 l 2,90,91
 145 1196 145 1196 129 1228 c 0,92,93
 123 1242 123 1242 69 1251 c 128,-1,94
 15 1260 15 1260 -15 1260 c 1,95,96
 -22 1268 -22 1268 -27 1292 c 128,-1,97
 -32 1316 -32 1316 -26 1324 c 1,98,99
 181 1314 181 1314 212 1314 c 0,0,1
EndSplineSet
Validated: 33
EndChar

StartChar: I
Encoding: 73 73 43
Width: 648
GlyphClass: 2
Flags: W
LayerCount: 4
Fore
SplineSet
212 1314 m 0,0,1
 241 1314 241 1314 444 1324 c 1,2,3
 452 1316 452 1316 455.5 1295 c 128,-1,4
 459 1274 459 1274 454 1266 c 1,5,6
 424 1266 424 1266 373.5 1257 c 128,-1,7
 323 1248 323 1248 322 1234 c 0,8,9
 318 1202 318 1202 338 1086 c 2,10,-1
 488 232 l 2,11,12
 508 116 508 116 524 84 c 0,13,14
 530 70 530 70 584 61 c 128,-1,15
 638 52 638 52 668 52 c 1,16,17
 675 44 675 44 679.5 23 c 128,-1,18
 684 2 684 2 678 -6 c 1,19,20
 471 4 471 4 442 4 c 0,21,22
 411 4 411 4 208 -6 c 1,23,24
 200 2 200 2 196.5 23 c 128,-1,25
 193 44 193 44 198 52 c 1,26,27
 228 52 228 52 278.5 61 c 128,-1,28
 329 70 329 70 330 84 c 0,29,30
 334 116 334 116 314 232 c 2,31,-1
 164 1086 l 2,32,33
 144 1202 144 1202 128 1234 c 0,34,35
 122 1248 122 1248 68 1257 c 128,-1,36
 14 1266 14 1266 -16 1266 c 1,37,38
 -23 1274 -23 1274 -27.5 1295 c 128,-1,39
 -32 1316 -32 1316 -26 1324 c 1,40,41
 181 1314 181 1314 212 1314 c 0,0,1
EndSplineSet
Validated: 33
EndChar

StartChar: J
Encoding: 74 74 44
Width: 626
GlyphClass: 2
Flags: W
LayerCount: 4
Fore
SplineSet
161 1314 m 0,0,1
 190 1314 190 1314 393 1324 c 1,2,3
 401 1316 401 1316 404.5 1295 c 128,-1,4
 408 1274 408 1274 403 1266 c 1,5,6
 373 1266 373 1266 323 1257 c 128,-1,7
 273 1248 273 1248 271 1234 c 0,8,9
 267 1202 267 1202 287 1086 c 2,10,-1
 436 242 l 2,11,12
 468 59 468 59 457.5 -77 c 128,-1,13
 447 -213 447 -213 397.5 -294.5 c 128,-1,14
 348 -376 348 -376 271.5 -415 c 128,-1,15
 195 -454 195 -454 91 -454 c 0,16,17
 67 -454 67 -454 22.5 -442.5 c 128,-1,18
 -22 -431 -22 -431 -42 -418 c 0,19,20
 -61 -402 -61 -402 -66 -372 c 0,21,22
 -75 -323 -75 -323 -55 -291.5 c 128,-1,23
 -35 -260 -35 -260 11 -260 c 0,24,25
 18 -260 18 -260 25.5 -261.5 c 128,-1,26
 33 -263 33 -263 42 -267.5 c 128,-1,27
 51 -272 51 -272 57 -275 c 128,-1,28
 63 -278 63 -278 73 -285 c 128,-1,29
 83 -292 83 -292 87 -295 c 128,-1,30
 91 -298 91 -298 102.5 -307 c 128,-1,31
 114 -316 114 -316 117 -318 c 0,32,33
 170 -360 170 -360 214 -360 c 0,34,35
 248 -360 248 -360 269.5 -334.5 c 128,-1,36
 291 -309 291 -309 302 -246.5 c 128,-1,37
 313 -184 313 -184 304 -63.5 c 128,-1,38
 295 57 295 57 264 232 c 2,39,-1
 113 1086 l 2,40,41
 93 1202 93 1202 77 1234 c 0,42,43
 71 1248 71 1248 17 1257 c 128,-1,44
 -37 1266 -37 1266 -67 1266 c 1,45,46
 -74 1274 -74 1274 -78 1295 c 128,-1,47
 -82 1316 -82 1316 -77 1324 c 1,48,49
 130 1314 130 1314 161 1314 c 0,0,1
EndSplineSet
Validated: 33
EndChar

StartChar: K
Encoding: 75 75 45
Width: 1314
GlyphClass: 2
Flags: W
LayerCount: 4
Fore
SplineSet
212 1314 m 0,0,1
 241 1314 241 1314 444 1324 c 1,2,3
 452 1316 452 1316 456 1292 c 128,-1,4
 460 1268 460 1268 455 1260 c 1,5,6
 425 1260 425 1260 374.5 1251 c 128,-1,7
 324 1242 324 1242 323 1228 c 0,8,9
 319 1195 319 1195 333 1110 c 0,10,11
 335 1096 335 1096 339 1080 c 2,12,-1
 409 682 l 1,13,14
 455 714 455 714 599 884 c 0,15,16
 695 999 695 999 732.5 1048 c 128,-1,17
 770 1097 770 1097 805 1156 c 0,18,19
 826 1193 826 1193 822 1218 c 0,20,21
 821 1226 821 1226 817 1232.5 c 128,-1,22
 813 1239 813 1239 806 1243.5 c 128,-1,23
 799 1248 799 1248 791.5 1251.5 c 128,-1,24
 784 1255 784 1255 774.5 1257 c 128,-1,25
 765 1259 765 1259 757.5 1260 c 128,-1,26
 750 1261 750 1261 740 1261.5 c 128,-1,27
 730 1262 730 1262 724 1262 c 2,28,-1
 712 1262 l 1,29,-1
 703 1262 l 1,30,31
 696 1271 696 1271 692.5 1290.5 c 128,-1,32
 689 1310 689 1310 692 1324 c 1,33,34
 715 1323 715 1323 764 1319.5 c 128,-1,35
 813 1316 813 1316 852 1314 c 128,-1,36
 891 1312 891 1312 924 1312 c 0,37,38
 976 1312 976 1312 1048 1317.5 c 128,-1,39
 1120 1323 1120 1323 1138 1324 c 1,40,41
 1144 1315 1144 1315 1148 1288.5 c 128,-1,42
 1152 1262 1152 1262 1145 1262 c 2,43,-1
 1129 1261 l 2,44,45
 1113 1260 1113 1260 1100.5 1258.5 c 128,-1,46
 1088 1257 1088 1257 1066.5 1252 c 128,-1,47
 1045 1247 1045 1247 1028 1239.5 c 128,-1,48
 1011 1232 1011 1232 992 1219 c 128,-1,49
 973 1206 973 1206 960 1188 c 0,50,51
 911 1122 911 1122 859 1057.5 c 128,-1,52
 807 993 807 993 774 954 c 128,-1,53
 741 915 741 915 676.5 841 c 128,-1,54
 612 767 612 767 578 728 c 0,55,56
 574 720 574 720 581 712 c 0,57,58
 597 697 597 697 648.5 646.5 c 128,-1,59
 700 596 700 596 717 580 c 128,-1,60
 734 564 734 564 780 519.5 c 128,-1,61
 826 475 826 475 845.5 456.5 c 128,-1,62
 865 438 865 438 906 399.5 c 128,-1,63
 947 361 947 361 969 341 c 128,-1,64
 991 321 991 321 1025.5 289.5 c 128,-1,65
 1060 258 1060 258 1084.5 236.5 c 128,-1,66
 1109 215 1109 215 1138 190.5 c 128,-1,67
 1167 166 1167 166 1194 144 c 0,68,69
 1244 104 1244 104 1297.5 81 c 128,-1,70
 1351 58 1351 58 1428 52 c 1,71,72
 1436 41 1436 41 1437 20.5 c 128,-1,73
 1438 0 1438 0 1436 -6 c 1,74,75
 1215 -6 1215 -6 1148 16 c 0,76,77
 1065 44 1065 44 997 102 c 0,78,79
 932 156 932 156 458 608 c 0,80,81
 453 614 453 614 439 614 c 0,82,83
 429 614 429 614 422 610 c 1,84,-1
 487 238 l 2,85,86
 507 122 507 122 523 90 c 0,87,88
 529 76 529 76 583 67 c 128,-1,89
 637 58 637 58 667 58 c 1,90,91
 674 50 674 50 679 26 c 128,-1,92
 684 2 684 2 678 -6 c 1,93,94
 471 4 471 4 442 4 c 0,95,96
 411 4 411 4 208 -6 c 1,97,98
 200 2 200 2 196 26 c 128,-1,99
 192 50 192 50 197 58 c 1,100,101
 227 58 227 58 277.5 67 c 128,-1,102
 328 76 328 76 329 90 c 0,103,104
 333 122 333 122 313 238 c 2,105,-1
 165 1080 l 2,106,107
 145 1196 145 1196 129 1228 c 0,108,109
 123 1242 123 1242 69 1251 c 128,-1,110
 15 1260 15 1260 -15 1260 c 1,111,112
 -22 1268 -22 1268 -27 1292 c 128,-1,113
 -32 1316 -32 1316 -26 1324 c 1,114,115
 181 1314 181 1314 212 1314 c 0,0,1
EndSplineSet
Validated: 33
EndChar

StartChar: L
Encoding: 76 76 46
Width: 1128
GlyphClass: 2
Flags: W
LayerCount: 4
Fore
SplineSet
488 232 m 2,0,1
 512 98 512 98 526 88 c 0,2,3
 546 74 546 74 573 71 c 128,-1,4
 600 68 600 68 671 68 c 2,5,-1
 785 68 l 2,6,7
 848 68 848 68 911.5 81.5 c 128,-1,8
 975 95 975 95 1010 122 c 0,9,10
 1082 178 1082 178 1100 324 c 0,11,12
 1101 336 1101 336 1126 336 c 0,13,14
 1164 336 1164 336 1178 324 c 1,15,16
 1174 298 1174 298 1163 241 c 128,-1,17
 1152 184 1152 184 1145.5 148.5 c 128,-1,18
 1139 113 1139 113 1133.5 68 c 128,-1,19
 1128 23 1128 23 1128 -8 c 1,20,21
 1025 -8 1025 -8 804.5 -4 c 128,-1,22
 584 0 584 0 445 0 c 0,23,24
 396 0 396 0 320.5 -3 c 128,-1,25
 245 -6 245 -6 208 -6 c 1,26,27
 200 2 200 2 196.5 23 c 128,-1,28
 193 44 193 44 198 52 c 1,29,30
 228 52 228 52 278.5 61 c 128,-1,31
 329 70 329 70 330 84 c 0,32,33
 334 116 334 116 314 232 c 2,34,-1
 164 1086 l 2,35,36
 144 1202 144 1202 127 1234 c 0,37,38
 121 1248 121 1248 67.5 1257 c 128,-1,39
 14 1266 14 1266 -16 1266 c 1,40,41
 -23 1274 -23 1274 -27.5 1295 c 128,-1,42
 -32 1316 -32 1316 -26 1324 c 1,43,44
 181 1314 181 1314 211 1314 c 0,45,46
 240 1314 240 1314 444 1324 c 1,47,48
 452 1316 452 1316 455 1295 c 128,-1,49
 458 1274 458 1274 454 1266 c 1,50,51
 424 1266 424 1266 373.5 1257 c 128,-1,52
 323 1248 323 1248 321 1234 c 0,53,54
 317 1201 317 1201 332 1116 c 0,55,56
 334 1102 334 1102 338 1086 c 2,57,-1
 488 232 l 2,0,1
EndSplineSet
Validated: 33
EndChar

StartChar: M
Encoding: 77 77 47
Width: 1814
GlyphClass: 2
Flags: W
LayerCount: 4
Fore
SplineSet
210 1314 m 0,0,1
 262 1314 262 1314 370 1324 c 1,2,3
 397 1270 397 1270 501 1094 c 128,-1,4
 605 918 605 918 750 675.5 c 128,-1,5
 895 433 895 433 976 292 c 0,6,7
 979 288 979 288 984 288 c 0,8,9
 991 288 991 288 993 296 c 0,10,11
 1152 1049 1152 1049 1160 1084 c 2,12,-1
 1206 1324 l 1,13,14
 1335 1316 1335 1316 1365 1316 c 0,15,16
 1489 1316 1489 1316 1588 1324 c 1,17,-1
 1604 1266 l 1,18,19
 1576 1266 1576 1266 1524.5 1254.5 c 128,-1,20
 1473 1243 1473 1243 1468 1230 c 0,21,22
 1462 1208 1462 1208 1472 1154 c 0,23,24
 1485 1093 1485 1093 1515.5 938.5 c 128,-1,25
 1546 784 1546 784 1587 576.5 c 128,-1,26
 1628 369 1628 369 1646 280 c 0,27,28
 1675 140 1675 140 1704 86 c 0,29,30
 1713 68 1713 68 1766 60 c 128,-1,31
 1819 52 1819 52 1850 52 c 1,32,33
 1859 40 1859 40 1862.5 21 c 128,-1,34
 1866 2 1866 2 1864 -6 c 1,35,36
 1662 4 1662 4 1624 4 c 0,37,38
 1583 4 1583 4 1546.5 2.5 c 128,-1,39
 1510 1 1510 1 1463.5 -2 c 128,-1,40
 1417 -5 1417 -5 1386 -6 c 1,41,42
 1381 -2 1381 -2 1377 18.5 c 128,-1,43
 1373 39 1373 39 1376 52 c 1,44,45
 1400 52 1400 52 1444 58.5 c 128,-1,46
 1488 65 1488 65 1502 74 c 0,47,48
 1518 84 1518 84 1505 158 c 0,49,50
 1503 172 1503 172 1493.5 215.5 c 128,-1,51
 1484 259 1484 259 1481 274 c 0,52,53
 1355 890 1355 890 1304 1130 c 0,54,55
 1302 1141 1302 1141 1295 1155.5 c 128,-1,56
 1288 1170 1288 1170 1279 1170 c 0,57,58
 1275 1170 1275 1170 1271 1156 c 0,59,60
 1245 1042 1245 1042 1036 98 c 0,61,62
 1030 76 1030 76 1010.5 37.5 c 128,-1,63
 991 -1 991 -1 978 -4 c 0,64,65
 975 -5 975 -5 959 0 c 1,66,-1
 265 1168 l 1,67,68
 295 976 295 976 332.5 725.5 c 128,-1,69
 370 475 370 475 394 314.5 c 128,-1,70
 418 154 418 154 419 150 c 0,71,72
 426 109 426 109 438 88 c 0,73,74
 449 69 449 69 508.5 60.5 c 128,-1,75
 568 52 568 52 602 52 c 1,76,77
 610 44 610 44 614 23 c 128,-1,78
 618 2 618 2 616 -6 c 1,79,80
 589 -5 589 -5 548.5 -2 c 128,-1,81
 508 1 508 1 474.5 2.5 c 128,-1,82
 441 4 441 4 402 4 c 0,83,84
 361 4 361 4 326 2.5 c 128,-1,85
 291 1 291 1 246.5 -2 c 128,-1,86
 202 -5 202 -5 170 -6 c 1,87,88
 165 -2 165 -2 161 18.5 c 128,-1,89
 157 39 157 39 160 52 c 1,90,91
 193 52 193 52 250 61.5 c 128,-1,92
 307 71 307 71 316 88 c 0,93,94
 332 118 332 118 322 188 c 0,95,96
 218 935 218 935 181 1144 c 0,97,98
 171 1202 171 1202 159 1224 c 0,99,100
 151 1240 151 1240 94.5 1253 c 128,-1,101
 38 1266 38 1266 12 1266 c 0,102,103
 9 1266 9 1266 4 1293.5 c 128,-1,104
 -1 1321 -1 1321 2 1324 c 0,105,106
 37 1322 37 1322 73 1319.5 c 128,-1,107
 109 1317 109 1317 139 1315.5 c 128,-1,108
 169 1314 169 1314 210 1314 c 0,0,1
EndSplineSet
Validated: 33
EndChar

StartChar: N
Encoding: 78 78 48
Width: 1552
GlyphClass: 2
Flags: W
LayerCount: 4
Fore
SplineSet
170 1320 m 0,0,1
 266 1320 266 1320 321 1324 c 1,2,3
 385 1246 385 1246 761.5 868.5 c 128,-1,4
 1138 491 1138 491 1280 332 c 1,5,-1
 1259 448 l 1,6,-1
 1146 1090 l 2,7,8
 1135 1152 1135 1152 1127.5 1179 c 128,-1,9
 1120 1206 1120 1206 1102 1228 c 0,10,11
 1092 1242 1092 1242 1032 1255 c 128,-1,12
 972 1268 972 1268 943 1268 c 1,13,14
 934 1278 934 1278 930 1298 c 128,-1,15
 926 1318 926 1318 929 1326 c 1,16,17
 1131 1316 1131 1316 1160 1316 c 0,18,19
 1201 1316 1201 1316 1232.5 1317.5 c 128,-1,20
 1264 1319 1264 1319 1301.5 1322 c 128,-1,21
 1339 1325 1339 1325 1373 1326 c 1,22,23
 1392 1301 1392 1301 1383 1268 c 1,24,25
 1355 1268 1355 1268 1297.5 1256 c 128,-1,26
 1240 1244 1240 1244 1234 1228 c 0,27,28
 1225 1207 1225 1207 1226 1180 c 128,-1,29
 1227 1153 1227 1153 1238 1092 c 2,30,-1
 1381 278 l 2,31,32
 1411 106 1411 106 1434 2 c 0,33,34
 1434 -10 1434 -10 1410 -10 c 0,35,36
 1399 -10 1399 -10 1376.5 1 c 128,-1,37
 1354 12 1354 12 1332 36 c 2,38,-1
 266 1138 l 1,39,-1
 426 230 l 2,40,41
 437 168 437 168 444.5 141 c 128,-1,42
 452 114 452 114 470 92 c 0,43,44
 480 78 480 78 539 65 c 128,-1,45
 598 52 598 52 627 52 c 1,46,47
 636 42 636 42 640 22 c 128,-1,48
 644 2 644 2 641 -6 c 1,49,50
 439 4 439 4 412 4 c 0,51,52
 371 4 371 4 339.5 2.5 c 128,-1,53
 308 1 308 1 270.5 -2 c 128,-1,54
 233 -5 233 -5 199 -6 c 1,55,56
 180 19 180 19 189 52 c 1,57,58
 217 52 217 52 274.5 64 c 128,-1,59
 332 76 332 76 338 92 c 0,60,61
 347 113 347 113 346 140 c 128,-1,62
 345 167 345 167 334 228 c 2,63,-1
 181 1096 l 2,64,65
 170 1157 170 1157 162 1184 c 128,-1,66
 154 1211 154 1211 137 1232 c 0,67,68
 125 1248 125 1248 63.5 1260 c 128,-1,69
 2 1272 2 1272 -26 1272 c 1,70,71
 -47 1305 -47 1305 -36 1330 c 1,72,73
 -4 1329 -4 1329 64 1324.5 c 128,-1,74
 132 1320 132 1320 170 1320 c 0,0,1
EndSplineSet
Validated: 1
EndChar

StartChar: O
Encoding: 79 79 49
Width: 1496
GlyphClass: 2
Flags: W
LayerCount: 4
Fore
SplineSet
609 1266 m 0,0,1
 522 1266 522 1266 456 1232.5 c 128,-1,2
 390 1199 390 1199 352.5 1144 c 128,-1,3
 315 1089 315 1089 295 1015 c 128,-1,4
 275 941 275 941 274.5 862 c 128,-1,5
 274 783 274 783 288 700 c 0,6,7
 309 582 309 582 362 467 c 128,-1,8
 415 352 415 352 490.5 258 c 128,-1,9
 566 164 566 164 669.5 106 c 128,-1,10
 773 48 773 48 885 48 c 0,11,12
 972 48 972 48 1038.5 81.5 c 128,-1,13
 1105 115 1105 115 1142.5 170.5 c 128,-1,14
 1180 226 1180 226 1200.5 300.5 c 128,-1,15
 1221 375 1221 375 1221.5 455 c 128,-1,16
 1222 535 1222 535 1207 618 c 0,17,18
 1186 736 1186 736 1133 850.5 c 128,-1,19
 1080 965 1080 965 1004 1058 c 128,-1,20
 928 1151 928 1151 824.5 1208.5 c 128,-1,21
 721 1266 721 1266 609 1266 c 0,0,1
627 1334 m 0,22,23
 758 1334 758 1334 885.5 1283.5 c 128,-1,24
 1013 1233 1013 1233 1117.5 1145 c 128,-1,25
 1222 1057 1222 1057 1297 929.5 c 128,-1,26
 1372 802 1372 802 1398 656 c 0,27,28
 1422 519 1422 519 1392 393.5 c 128,-1,29
 1362 268 1362 268 1289.5 177.5 c 128,-1,30
 1217 87 1217 87 1106 33.5 c 128,-1,31
 995 -20 995 -20 865 -20 c 0,32,33
 734 -20 734 -20 607 30.5 c 128,-1,34
 480 81 480 81 376.5 169 c 128,-1,35
 273 257 273 257 198.5 384 c 128,-1,36
 124 511 124 511 98 656 c 0,37,38
 74 794 74 794 104 919.5 c 128,-1,39
 134 1045 134 1045 205.5 1135.5 c 128,-1,40
 277 1226 277 1226 387 1280 c 128,-1,41
 497 1334 497 1334 627 1334 c 0,22,23
EndSplineSet
Validated: 33
EndChar

StartChar: P
Encoding: 80 80 50
Width: 1096
GlyphClass: 2
Flags: W
LayerCount: 4
Fore
SplineSet
983 958 m 0,0,1
 1015 776 1015 776 913 666 c 128,-1,2
 811 556 811 556 614 556 c 0,3,4
 560 556 560 556 525 572 c 1,5,6
 494 591 494 591 490 616 c 0,7,8
 490 618 490 618 490 620.5 c 128,-1,9
 490 623 490 623 492 625 c 128,-1,10
 494 627 494 627 498 626 c 0,11,12
 551 612 551 612 576 612 c 0,13,14
 700 612 700 612 765.5 695 c 128,-1,15
 831 778 831 778 805 924 c 0,16,17
 778 1077 778 1077 678.5 1165.5 c 128,-1,18
 579 1254 579 1254 417 1254 c 0,19,20
 326 1254 326 1254 321 1234 c 0,21,22
 315 1210 315 1210 337 1084 c 2,23,-1
 487 232 l 2,24,25
 507 116 507 116 523 84 c 0,26,27
 529 70 529 70 583 61 c 128,-1,28
 637 52 637 52 667 52 c 1,29,30
 674 44 674 44 678.5 23 c 128,-1,31
 683 2 683 2 677 -6 c 1,32,33
 470 4 470 4 441 4 c 0,34,35
 410 4 410 4 207 -6 c 1,36,37
 199 2 199 2 195.5 23 c 128,-1,38
 192 44 192 44 197 52 c 1,39,40
 227 52 227 52 277.5 61 c 128,-1,41
 328 70 328 70 329 84 c 0,42,43
 333 116 333 116 313 232 c 2,44,-1
 163 1086 l 2,45,46
 143 1202 143 1202 127 1234 c 0,47,48
 121 1248 121 1248 67 1257 c 128,-1,49
 13 1266 13 1266 -17 1266 c 1,50,51
 -24 1274 -24 1274 -28.5 1295 c 128,-1,52
 -33 1316 -33 1316 -27 1324 c 1,53,54
 180 1314 180 1314 211 1314 c 0,55,56
 245 1314 245 1314 337.5 1316 c 128,-1,57
 430 1318 430 1318 494 1318 c 0,58,59
 603 1318 603 1318 705.5 1277.5 c 128,-1,60
 808 1237 808 1237 885.5 1153 c 128,-1,61
 963 1069 963 1069 983 958 c 0,0,1
EndSplineSet
Validated: 33
EndChar

StartChar: Q
Encoding: 81 81 51
Width: 1494
GlyphClass: 2
Flags: W
LayerCount: 4
Fore
SplineSet
586 1266 m 0,0,1
 499 1266 499 1266 433.5 1232.5 c 128,-1,2
 368 1199 368 1199 330.5 1144 c 128,-1,3
 293 1089 293 1089 273 1015 c 128,-1,4
 253 941 253 941 252.5 862 c 128,-1,5
 252 783 252 783 266 700 c 0,6,7
 287 582 287 582 340 467 c 128,-1,8
 393 352 393 352 468.5 258 c 128,-1,9
 544 164 544 164 647.5 106 c 128,-1,10
 751 48 751 48 863 48 c 0,11,12
 950 48 950 48 1016 81.5 c 128,-1,13
 1082 115 1082 115 1120 170.5 c 128,-1,14
 1158 226 1158 226 1178.5 300.5 c 128,-1,15
 1199 375 1199 375 1199 455 c 128,-1,16
 1199 535 1199 535 1185 618 c 0,17,18
 1164 736 1164 736 1110.5 850.5 c 128,-1,19
 1057 965 1057 965 981.5 1058 c 128,-1,20
 906 1151 906 1151 802 1208.5 c 128,-1,21
 698 1266 698 1266 586 1266 c 0,0,1
604 1334 m 0,22,23
 735 1334 735 1334 863 1283.5 c 128,-1,24
 991 1233 991 1233 1095.5 1145 c 128,-1,25
 1200 1057 1200 1057 1275 929.5 c 128,-1,26
 1350 802 1350 802 1376 656 c 0,27,28
 1416 430 1416 430 1316 251 c 128,-1,29
 1216 72 1216 72 1024 8 c 1,30,31
 1084 -18 1084 -18 1154 -56 c 128,-1,32
 1224 -94 1224 -94 1261.5 -113 c 128,-1,33
 1299 -132 1299 -132 1359 -147 c 128,-1,34
 1419 -162 1419 -162 1492 -162 c 0,35,36
 1592 -162 1592 -162 1632 -150 c 1,37,38
 1659 -150 1659 -150 1671 -164 c 0,39,40
 1674 -168 1674 -168 1674 -170 c 0,41,42
 1587 -221 1587 -221 1515.5 -246.5 c 128,-1,43
 1444 -272 1444 -272 1360 -272 c 0,44,45
 1300 -272 1300 -272 1234.5 -250.5 c 128,-1,46
 1169 -229 1169 -229 1105 -195 c 128,-1,47
 1041 -161 1041 -161 976.5 -125 c 128,-1,48
 912 -89 912 -89 833 -53.5 c 128,-1,49
 754 -18 754 -18 680 0 c 0,50,51
 456 54 456 54 287.5 232.5 c 128,-1,52
 119 411 119 411 76 656 c 0,53,54
 52 794 52 794 81.5 919.5 c 128,-1,55
 111 1045 111 1045 182.5 1135.5 c 128,-1,56
 254 1226 254 1226 364 1280 c 128,-1,57
 474 1334 474 1334 604 1334 c 0,22,23
EndSplineSet
Validated: 33
EndChar

StartChar: R
Encoding: 82 82 52
Width: 1242
GlyphClass: 2
Flags: W
LayerCount: 4
Fore
SplineSet
494 1318 m 0,0,1
 564 1318 564 1318 638.5 1295.5 c 128,-1,2
 713 1273 713 1273 781 1231 c 128,-1,3
 849 1189 849 1189 898 1121.5 c 128,-1,4
 947 1054 947 1054 962 972 c 0,5,6
 980 869 980 869 913.5 773.5 c 128,-1,7
 847 678 847 678 747 642 c 1,8,9
 914 427 914 427 1153 172 c 0,10,11
 1208 113 1208 113 1263.5 85.5 c 128,-1,12
 1319 58 1319 58 1400 52 c 1,13,14
 1408 41 1408 41 1409 20.5 c 128,-1,15
 1410 0 1410 0 1408 -6 c 1,16,17
 1213 -6 1213 -6 1140 18 c 0,18,19
 1072 41 1072 41 1033 72 c 0,20,21
 1013 87 1013 87 995 106 c 0,22,23
 963 141 963 141 833.5 293 c 128,-1,24
 704 445 704 445 593 580 c 0,25,26
 573 604 573 604 529 604 c 2,27,-1
 423 604 l 1,28,-1
 488 232 l 2,29,30
 508 116 508 116 524 84 c 0,31,32
 530 70 530 70 584 61 c 128,-1,33
 638 52 638 52 668 52 c 1,34,35
 675 44 675 44 679.5 23 c 128,-1,36
 684 2 684 2 678 -6 c 1,37,38
 471 4 471 4 442 4 c 0,39,40
 411 4 411 4 208 -6 c 1,41,42
 200 2 200 2 196.5 23 c 128,-1,43
 193 44 193 44 198 52 c 1,44,45
 228 52 228 52 278.5 61 c 128,-1,46
 329 70 329 70 330 84 c 0,47,48
 334 109 334 109 314 232 c 2,49,-1
 163 1086 l 2,50,51
 143 1202 143 1202 127 1234 c 0,52,53
 121 1248 121 1248 67 1257 c 128,-1,54
 13 1266 13 1266 -17 1266 c 1,55,56
 -24 1274 -24 1274 -28.5 1295 c 128,-1,57
 -33 1316 -33 1316 -27 1324 c 1,58,59
 180 1314 180 1314 211 1314 c 0,60,61
 245 1314 245 1314 337.5 1316 c 128,-1,62
 430 1318 430 1318 494 1318 c 0,0,1
778 954 m 0,63,64
 753 1093 753 1093 664.5 1173.5 c 128,-1,65
 576 1254 576 1254 417 1254 c 0,66,67
 326 1254 326 1254 321 1234 c 0,68,69
 315 1210 315 1210 337 1084 c 2,70,-1
 412 666 l 1,71,-1
 519 666 l 2,72,73
 642 666 642 666 721 746.5 c 128,-1,74
 800 827 800 827 778 954 c 0,63,64
EndSplineSet
Validated: 33
EndChar

StartChar: S
Encoding: 83 83 53
Width: 1004
GlyphClass: 2
Flags: W
LayerCount: 4
Fore
SplineSet
403 1332 m 0,0,1
 447 1332 447 1332 486.5 1327 c 128,-1,2
 526 1322 526 1322 552 1315.5 c 128,-1,3
 578 1309 578 1309 627 1296.5 c 128,-1,4
 676 1284 676 1284 715 1276 c 1,5,6
 743 1189 743 1189 793 992 c 0,7,8
 796 983 796 983 782 976.5 c 128,-1,9
 768 970 768 970 755 970 c 0,10,11
 741 970 741 970 731 978 c 1,12,13
 722 1009 722 1009 702.5 1046 c 128,-1,14
 683 1083 683 1083 651 1122 c 128,-1,15
 619 1161 619 1161 582 1192.5 c 128,-1,16
 545 1224 545 1224 497.5 1244 c 128,-1,17
 450 1264 450 1264 401 1264 c 0,18,19
 343 1264 343 1264 302 1243.5 c 128,-1,20
 261 1223 261 1223 243 1189 c 128,-1,21
 225 1155 225 1155 220 1118 c 128,-1,22
 215 1081 215 1081 222 1042 c 0,23,24
 227 1013 227 1013 239 986 c 128,-1,25
 251 959 251 959 265 938 c 128,-1,26
 279 917 279 917 302.5 895.5 c 128,-1,27
 326 874 326 874 344.5 859 c 128,-1,28
 363 844 363 844 394.5 824.5 c 128,-1,29
 426 805 426 805 446 793.5 c 128,-1,30
 466 782 466 782 502 762.5 c 128,-1,31
 538 743 538 743 557 732 c 0,32,33
 575 722 575 722 614.5 700 c 128,-1,34
 654 678 654 678 679 664 c 128,-1,35
 704 650 704 650 743 625.5 c 128,-1,36
 782 601 782 601 807.5 581.5 c 128,-1,37
 833 562 833 562 864 533.5 c 128,-1,38
 895 505 895 505 914.5 478 c 128,-1,39
 934 451 934 451 950 416.5 c 128,-1,40
 966 382 966 382 973 346 c 0,41,42
 987 266 987 266 964 196.5 c 128,-1,43
 941 127 941 127 891 80 c 128,-1,44
 841 33 841 33 770 6.5 c 128,-1,45
 699 -20 699 -20 619 -20 c 0,46,47
 572 -20 572 -20 516.5 -13 c 128,-1,48
 461 -6 461 -6 423.5 1 c 128,-1,49
 386 8 386 8 328.5 21 c 128,-1,50
 271 34 271 34 249 38 c 1,51,52
 219 117 219 117 188 220.5 c 128,-1,53
 157 324 157 324 152 348 c 1,54,55
 172 372 172 372 200 372 c 0,56,57
 219 372 219 372 225 354 c 0,58,59
 236 325 236 325 253.5 292.5 c 128,-1,60
 271 260 271 260 305 214 c 128,-1,61
 339 168 339 168 379.5 133 c 128,-1,62
 420 98 420 98 481.5 73 c 128,-1,63
 543 48 543 48 611 48 c 0,64,65
 713 48 713 48 770.5 113.5 c 128,-1,66
 828 179 828 179 808 292 c 0,67,68
 803 322 803 322 792 349 c 128,-1,69
 781 376 781 376 768 396 c 128,-1,70
 755 416 755 416 734 435.5 c 128,-1,71
 713 455 713 455 696 468 c 128,-1,72
 679 481 679 481 650.5 497.5 c 128,-1,73
 622 514 622 514 601.5 524.5 c 128,-1,74
 581 535 581 535 546.5 552 c 128,-1,75
 512 569 512 569 491 580 c 0,76,77
 445 605 445 605 432.5 611.5 c 128,-1,78
 420 618 420 618 375.5 643 c 128,-1,79
 331 668 331 668 314.5 679.5 c 128,-1,80
 298 691 298 691 260 717 c 128,-1,81
 222 743 222 743 204.5 760.5 c 128,-1,82
 187 778 187 778 160.5 806 c 128,-1,83
 134 834 134 834 120 859 c 128,-1,84
 106 884 106 884 92.5 915.5 c 128,-1,85
 79 947 79 947 73 980 c 0,86,87
 55 1082 55 1082 97 1164 c 128,-1,88
 139 1246 139 1246 220.5 1289 c 128,-1,89
 302 1332 302 1332 403 1332 c 0,0,1
EndSplineSet
Validated: 33
EndChar

StartChar: T
Encoding: 84 84 54
Width: 1252
GlyphClass: 2
Flags: W
LayerCount: 4
Fore
SplineSet
902 1322 m 2,0,1
 925 1322 925 1322 962.5 1332 c 128,-1,2
 1000 1342 1000 1342 1017 1352 c 0,3,4
 1038 1364 1038 1364 1054 1356 c 1,5,6
 1115 1147 1115 1147 1167 1012 c 1,7,8
 1154 996 1154 996 1131 998 c 0,9,10
 1110 998 1110 998 1102 1008 c 1,11,12
 1060 1119 1060 1119 999.5 1185.5 c 128,-1,13
 939 1252 939 1252 867 1252 c 2,14,-1
 613 1252 l 1,15,-1
 792 232 l 2,16,17
 812 116 812 116 828 84 c 0,18,19
 834 70 834 70 888 61 c 128,-1,20
 942 52 942 52 972 52 c 1,21,22
 979 44 979 44 983.5 23 c 128,-1,23
 988 2 988 2 982 -6 c 1,24,25
 775 4 775 4 747 4 c 0,26,27
 716 4 716 4 512 -6 c 1,28,29
 504 2 504 2 501 23 c 128,-1,30
 498 44 498 44 502 52 c 1,31,32
 532 52 532 52 582.5 61 c 128,-1,33
 633 70 633 70 634 84 c 0,34,35
 638 116 638 116 618 232 c 2,36,-1
 439 1252 l 1,37,-1
 181 1252 l 2,38,39
 109 1252 109 1252 71.5 1185.5 c 128,-1,40
 34 1119 34 1119 32 1008 c 1,41,42
 27 998 27 998 5 998 c 0,43,44
 -17 996 -17 996 -35 1012 c 1,45,46
 -31 1147 -31 1147 -44 1356 c 1,47,48
 -28 1364 -28 1364 3 1350 c 0,49,50
 24 1340 24 1340 60.5 1331 c 128,-1,51
 97 1322 97 1322 120 1322 c 2,52,-1
 902 1322 l 2,0,1
EndSplineSet
Validated: 33
EndChar

StartChar: U
Encoding: 85 85 55
Width: 1446
GlyphClass: 2
Flags: W
LayerCount: 4
Fore
SplineSet
180 1314 m 0,0,1
 209 1314 209 1314 412 1324 c 1,2,3
 420 1316 420 1316 423.5 1295 c 128,-1,4
 427 1274 427 1274 422 1266 c 1,5,6
 392 1266 392 1266 341.5 1257 c 128,-1,7
 291 1248 291 1248 290 1234 c 0,8,9
 286 1202 286 1202 306 1086 c 2,10,-1
 393 592 l 2,11,12
 436 346 436 346 556 224 c 0,13,14
 670 108 670 108 850 108 c 0,15,16
 1230 108 1230 108 1161 548 c 1,17,-1
 1065 1090 l 2,18,19
 1054 1152 1054 1152 1046.5 1179 c 128,-1,20
 1039 1206 1039 1206 1021 1228 c 0,21,22
 1011 1242 1011 1242 955 1255 c 128,-1,23
 899 1268 899 1268 870 1268 c 1,24,25
 861 1278 861 1278 857 1298 c 128,-1,26
 853 1318 853 1318 855 1326 c 1,27,28
 1057 1316 1057 1316 1079 1316 c 0,29,30
 1120 1316 1120 1316 1151.5 1317.5 c 128,-1,31
 1183 1319 1183 1319 1220.5 1322 c 128,-1,32
 1258 1325 1258 1325 1291 1326 c 1,33,34
 1310 1301 1310 1301 1302 1268 c 1,35,36
 1274 1268 1274 1268 1216.5 1256 c 128,-1,37
 1159 1244 1159 1244 1153 1228 c 0,38,39
 1144 1207 1144 1207 1145 1180 c 128,-1,40
 1146 1153 1146 1153 1157 1092 c 2,41,-1
 1252 552 l 2,42,43
 1303 264 1303 264 1189 128 c 128,-1,44
 1075 -8 1075 -8 829 -8 c 0,45,46
 610 -8 610 -8 448 124 c 0,47,48
 276 263 276 263 235 502 c 2,49,-1
 132 1086 l 2,50,51
 112 1202 112 1202 96 1234 c 0,52,53
 90 1248 90 1248 36 1257 c 128,-1,54
 -18 1266 -18 1266 -48 1266 c 1,55,56
 -55 1274 -55 1274 -59.5 1295 c 128,-1,57
 -64 1316 -64 1316 -58 1324 c 1,58,59
 149 1314 149 1314 180 1314 c 0,0,1
EndSplineSet
Validated: 33
EndChar

StartChar: V
Encoding: 86 86 56
Width: 1276
GlyphClass: 2
Flags: W
LayerCount: 4
Fore
SplineSet
104 1314 m 0,0,1
 152 1314 152 1314 350 1324 c 1,2,3
 355 1315 355 1315 358.5 1291 c 128,-1,4
 362 1267 362 1267 356 1266 c 0,5,6
 347 1266 347 1266 330.5 1263.5 c 128,-1,7
 314 1261 314 1261 292.5 1254.5 c 128,-1,8
 271 1248 271 1248 257.5 1233.5 c 128,-1,9
 244 1219 244 1219 248 1200 c 0,10,11
 255 1159 255 1159 307 1064 c 0,12,13
 584 554 584 554 747 258 c 1,14,15
 752 272 752 272 781 399.5 c 128,-1,16
 810 527 810 527 853.5 716 c 128,-1,17
 897 905 897 905 927 1046 c 0,18,19
 947 1138 947 1138 938 1186 c 0,20,21
 934 1208 934 1208 914.5 1225 c 128,-1,22
 895 1242 895 1242 869.5 1249.5 c 128,-1,23
 844 1257 844 1257 824 1260.5 c 128,-1,24
 804 1264 804 1264 792 1264 c 0,25,26
 784 1267 784 1267 780.5 1290.5 c 128,-1,27
 777 1314 777 1314 782 1322 c 1,28,29
 931 1314 931 1314 992 1314 c 0,30,31
 1033 1314 1033 1314 1062 1315.5 c 128,-1,32
 1091 1317 1091 1317 1124 1320 c 128,-1,33
 1157 1323 1157 1323 1186 1324 c 1,34,35
 1191 1316 1191 1316 1194 1291 c 128,-1,36
 1197 1266 1197 1266 1192 1266 c 0,37,38
 1170 1266 1170 1266 1130.5 1253 c 128,-1,39
 1091 1240 1091 1240 1073 1214 c 0,40,41
 1043 1170 1043 1170 1009 1012 c 0,42,43
 915 590 915 590 788 64 c 0,44,45
 772 -4 772 -4 724 -4 c 0,46,47
 720 -4 720 -4 715.5 1.5 c 128,-1,48
 711 7 711 7 705 18 c 2,49,-1
 698 28 l 1,50,51
 640 132 640 132 454 469 c 128,-1,52
 268 806 268 806 142 1028 c 0,53,54
 72 1153 72 1153 16 1220 c 0,55,56
 -2 1241 -2 1241 -48 1253.5 c 128,-1,57
 -94 1266 -94 1266 -120 1266 c 0,58,59
 -123 1266 -123 1266 -128 1293.5 c 128,-1,60
 -133 1321 -133 1321 -130 1324 c 0,61,62
 -98 1323 -98 1323 -53.5 1320 c 128,-1,63
 -9 1317 -9 1317 27 1315.5 c 128,-1,64
 63 1314 63 1314 104 1314 c 0,0,1
EndSplineSet
Validated: 33
EndChar

StartChar: W
Encoding: 87 87 57
Width: 1800
GlyphClass: 2
Flags: W
LayerCount: 4
Fore
SplineSet
120 1314 m 0,0,1
 159 1314 159 1314 192.5 1315.5 c 128,-1,2
 226 1317 226 1317 267 1320 c 128,-1,3
 308 1323 308 1323 334 1324 c 1,4,5
 339 1315 339 1315 342.5 1291 c 128,-1,6
 346 1267 346 1267 340 1266 c 0,7,8
 331 1266 331 1266 314.5 1263.5 c 128,-1,9
 298 1261 298 1261 276.5 1254.5 c 128,-1,10
 255 1248 255 1248 241.5 1233.5 c 128,-1,11
 228 1219 228 1219 231.5 1200 c 128,-1,12
 235 1181 235 1181 285 1070 c 0,13,14
 326 979 326 979 461.5 698.5 c 128,-1,15
 597 418 597 418 654 296 c 1,16,17
 675 462 675 462 725 815.5 c 128,-1,18
 775 1169 775 1169 787 1258 c 0,19,20
 790 1285 790 1285 809.5 1304.5 c 128,-1,21
 829 1324 829 1324 847 1324 c 0,22,23
 856 1324 856 1324 877 1292 c 1,24,25
 1286 464 1286 464 1369 302 c 1,26,27
 1380 406 1380 406 1396.5 554 c 128,-1,28
 1413 702 1413 702 1424.5 812 c 128,-1,29
 1436 922 1436 922 1447 1048 c 0,30,31
 1454 1144 1454 1144 1446 1188 c 0,32,33
 1442 1210 1442 1210 1421.5 1227 c 128,-1,34
 1401 1244 1401 1244 1375 1251.5 c 128,-1,35
 1349 1259 1349 1259 1328.5 1262.5 c 128,-1,36
 1308 1266 1308 1266 1296 1266 c 0,37,38
 1288 1269 1288 1269 1284 1292.5 c 128,-1,39
 1280 1316 1280 1316 1286 1324 c 1,40,41
 1473 1314 1473 1314 1504 1314 c 0,42,43
 1545 1314 1545 1314 1572.5 1315.5 c 128,-1,44
 1600 1317 1600 1317 1631.5 1320 c 128,-1,45
 1663 1323 1663 1323 1692 1324 c 1,46,47
 1697 1316 1697 1316 1700 1291 c 128,-1,48
 1703 1266 1703 1266 1698 1266 c 0,49,50
 1681 1266 1681 1266 1641.5 1251 c 128,-1,51
 1602 1236 1602 1236 1580 1214 c 0,52,53
 1548 1183 1548 1183 1535 1062 c 0,54,55
 1517 904 1517 904 1482 582.5 c 128,-1,56
 1447 261 1447 261 1424 64 c 0,57,58
 1422 38 1422 38 1401 17 c 128,-1,59
 1380 -4 1380 -4 1360 -4 c 0,60,61
 1355 -4 1355 -4 1346.5 8 c 128,-1,62
 1338 20 1338 20 1334 28 c 0,63,64
 1292 109 1292 109 1226 240 c 2,65,-1
 1092 504 l 2,66,67
 1026 635 1026 635 967 751 c 128,-1,68
 908 867 908 867 870 944 c 0,69,70
 833 1016 l 1,71,72
 811 841 811 841 767 544.5 c 128,-1,73
 723 248 723 248 700 64 c 0,74,75
 698 38 698 38 677 17 c 128,-1,76
 656 -4 656 -4 636 -4 c 0,77,78
 631 -4 631 -4 622.5 8 c 128,-1,79
 614 20 614 20 610 28 c 0,80,81
 505 241 505 241 336 591.5 c 128,-1,82
 167 942 167 942 108 1064 c 0,83,84
 105 1072 105 1072 93.5 1095.5 c 128,-1,85
 82 1119 82 1119 79 1125.5 c 128,-1,86
 76 1132 76 1132 67 1149.5 c 128,-1,87
 58 1167 58 1167 53 1173.5 c 128,-1,88
 48 1180 48 1180 40 1191.5 c 128,-1,89
 32 1203 32 1203 24.5 1210.5 c 128,-1,90
 17 1218 17 1218 7 1226 c 0,91,92
 -15 1244 -15 1244 -54.5 1255 c 128,-1,93
 -94 1266 -94 1266 -116 1266 c 0,94,95
 -119 1266 -119 1266 -124 1293.5 c 128,-1,96
 -129 1321 -129 1321 -126 1324 c 0,97,98
 106 1314 106 1314 120 1314 c 0,0,1
EndSplineSet
Validated: 33
EndChar

StartChar: X
Encoding: 88 88 58
Width: 1336
GlyphClass: 2
Flags: W
LayerCount: 4
Fore
SplineSet
204 1314 m 0,0,1
 260 1314 260 1314 458 1324 c 1,2,3
 464 1315 464 1315 467.5 1290.5 c 128,-1,4
 471 1266 471 1266 464 1266 c 0,5,6
 445 1266 445 1266 421 1261.5 c 128,-1,7
 397 1257 397 1257 374 1241.5 c 128,-1,8
 351 1226 351 1226 355 1202 c 0,9,10
 360 1176 360 1176 390 1142 c 2,11,-1
 685 786 l 1,12,13
 709 829 709 829 751 901.5 c 128,-1,14
 793 974 793 974 817.5 1015.5 c 128,-1,15
 842 1057 842 1057 867.5 1104.5 c 128,-1,16
 893 1152 893 1152 906 1180 c 0,17,18
 913 1194 913 1194 909 1212 c 0,19,20
 907 1223 907 1223 896 1233.5 c 128,-1,21
 885 1244 885 1244 851 1254 c 128,-1,22
 817 1264 817 1264 765 1264 c 0,23,24
 759 1265 759 1265 753.5 1288.5 c 128,-1,25
 748 1312 748 1312 751 1322 c 1,26,27
 886 1312 886 1312 960 1312 c 0,28,29
 1060 1312 1060 1312 1178 1322 c 1,30,31
 1184 1315 1184 1315 1187.5 1293.5 c 128,-1,32
 1191 1272 1191 1272 1184 1264 c 1,33,34
 1169 1264 1169 1264 1144.5 1259.5 c 128,-1,35
 1120 1255 1120 1255 1081 1235 c 128,-1,36
 1042 1215 1042 1215 1020 1184 c 0,37,38
 876 968 876 968 734 720 c 1,39,-1
 1232 132 l 2,40,41
 1265 92 1265 92 1325 72 c 128,-1,42
 1385 52 1385 52 1442 52 c 1,43,44
 1449 43 1449 43 1452 21 c 128,-1,45
 1455 -1 1455 -1 1454 -6 c 1,46,47
 1427 -5 1427 -5 1387 -2 c 128,-1,48
 1347 1 1347 1 1315 2.5 c 128,-1,49
 1283 4 1283 4 1246 4 c 0,50,51
 1196 4 1196 4 1151.5 2.5 c 128,-1,52
 1107 1 1107 1 1050.5 -2 c 128,-1,53
 994 -5 994 -5 956 -6 c 1,54,55
 948 2 948 2 943.5 27 c 128,-1,56
 939 52 939 52 946 52 c 0,57,58
 973 52 973 52 1015 67.5 c 128,-1,59
 1057 83 1057 83 1052 108 c 0,60,61
 1051 112 1051 112 1038 132 c 2,62,-1
 650 602 l 1,63,64
 577 474 577 474 496.5 323 c 128,-1,65
 416 172 416 172 402 132 c 1,66,67
 397 102 397 102 398 100 c 0,68,69
 400 87 400 87 416.5 76.5 c 128,-1,70
 433 66 433 66 470 59 c 128,-1,71
 507 52 507 52 560 52 c 1,72,73
 567 44 567 44 572 21 c 128,-1,74
 577 -2 577 -2 574 -6 c 1,75,76
 387 4 387 4 346 4 c 0,77,78
 300 4 300 4 102 -6 c 1,79,80
 96 4 96 4 94.5 25.5 c 128,-1,81
 93 47 93 47 96 52 c 1,82,83
 130 52 130 52 198.5 73 c 128,-1,84
 267 94 267 94 295 140 c 0,85,86
 347 226 347 226 395 310.5 c 128,-1,87
 443 395 443 395 499 495.5 c 128,-1,88
 555 596 555 596 594 664 c 1,89,-1
 236 1096 l 2,90,91
 190 1152 190 1152 157.5 1181.5 c 128,-1,92
 125 1211 125 1211 80 1234 c 0,93,94
 54 1248 54 1248 18 1257 c 128,-1,95
 -18 1266 -18 1266 -38 1266 c 0,96,97
 -45 1266 -45 1266 -49.5 1291 c 128,-1,98
 -54 1316 -54 1316 -48 1324 c 1,99,100
 -14 1323 -14 1323 34.5 1320 c 128,-1,101
 83 1317 83 1317 121.5 1315.5 c 128,-1,102
 160 1314 160 1314 204 1314 c 0,0,1
EndSplineSet
Validated: 1
EndChar

StartChar: Y
Encoding: 89 89 59
Width: 1196
GlyphClass: 2
Flags: W
LayerCount: 4
Fore
SplineSet
597 232 m 2,0,-1
 544 534 l 2,1,2
 539 562 539 562 520 590 c 0,3,4
 438 703 438 703 327.5 852 c 128,-1,5
 217 1001 217 1001 147 1096 c 0,6,7
 106 1150 106 1150 72.5 1179.5 c 128,-1,8
 39 1209 39 1209 -9 1234 c 0,9,10
 -35 1248 -35 1248 -71 1257 c 128,-1,11
 -107 1266 -107 1266 -127 1266 c 0,12,13
 -135 1266 -135 1266 -139.5 1291 c 128,-1,14
 -144 1316 -144 1316 -137 1324 c 1,15,16
 -103 1323 -103 1323 -54.5 1320 c 128,-1,17
 -6 1317 -6 1317 32.5 1315.5 c 128,-1,18
 71 1314 71 1314 115 1314 c 0,19,20
 171 1314 171 1314 369 1324 c 1,21,22
 375 1315 375 1315 378.5 1290.5 c 128,-1,23
 382 1266 382 1266 375 1266 c 0,24,25
 356 1266 356 1266 332 1261.5 c 128,-1,26
 308 1257 308 1257 285 1241.5 c 128,-1,27
 262 1226 262 1226 266 1202 c 0,28,29
 270 1181 270 1181 301 1142 c 2,30,-1
 663 662 l 1,31,32
 709 784 709 784 763.5 951.5 c 128,-1,33
 818 1119 818 1119 832 1180 c 0,34,35
 836 1194 836 1194 833 1210 c 0,36,37
 831 1222 831 1222 818.5 1233 c 128,-1,38
 806 1244 806 1244 770.5 1254 c 128,-1,39
 735 1264 735 1264 683 1264 c 0,40,41
 679 1264 679 1264 673 1291 c 128,-1,42
 667 1318 667 1318 669 1322 c 1,43,44
 856 1312 856 1312 871 1312 c 0,45,46
 918 1312 918 1312 952 1313.5 c 128,-1,47
 986 1315 986 1315 1024.5 1318 c 128,-1,48
 1063 1321 1063 1321 1089 1322 c 1,49,50
 1094 1313 1094 1313 1096.5 1288.5 c 128,-1,51
 1099 1264 1099 1264 1095 1264 c 0,52,53
 1081 1264 1081 1264 1066 1262.5 c 128,-1,54
 1051 1261 1051 1261 1021 1254.5 c 128,-1,55
 991 1248 991 1248 966.5 1230 c 128,-1,56
 942 1212 942 1212 931 1184 c 0,57,58
 889 1077 889 1077 718 602 c 0,59,60
 711 584 711 584 719 540 c 2,61,-1
 771 232 l 2,62,63
 791 116 791 116 807 84 c 0,64,65
 813 70 813 70 867 61 c 128,-1,66
 921 52 921 52 951 52 c 1,67,68
 958 44 958 44 962.5 23 c 128,-1,69
 967 2 967 2 961 -6 c 1,70,71
 754 4 754 4 725 4 c 0,72,73
 694 4 694 4 491 -6 c 1,74,75
 483 2 483 2 479.5 23 c 128,-1,76
 476 44 476 44 481 52 c 1,77,78
 511 52 511 52 561.5 61 c 128,-1,79
 612 70 612 70 613 84 c 0,80,81
 617 116 617 116 597 232 c 2,0,-1
EndSplineSet
Validated: 33
EndChar

StartChar: Z
Encoding: 90 90 60
Width: 1266
GlyphClass: 2
Flags: W
LayerCount: 4
Fore
SplineSet
330 1252 m 2,0,1
 230 1252 230 1252 173 1183.5 c 128,-1,2
 116 1115 116 1115 104 990 c 0,3,4
 100 982 100 982 83 982 c 0,5,6
 70 982 70 982 52 987.5 c 128,-1,7
 34 993 34 993 28 998 c 1,8,9
 52 1126 52 1126 34 1338 c 1,10,11
 149 1322 149 1322 201 1322 c 2,12,-1
 589 1322 l 2,13,14
 729 1322 729 1322 1006 1342 c 0,15,16
 1013 1340 1013 1340 1030.5 1324.5 c 128,-1,17
 1048 1309 1048 1309 1049 1298 c 0,18,19
 1048 1291 1048 1291 891 984 c 128,-1,20
 734 677 734 677 576 374 c 2,21,-1
 420 70 l 1,22,-1
 942 70 l 2,23,24
 1059 70 1059 70 1115 141 c 0,25,26
 1123 152 1123 152 1131 164.5 c 128,-1,27
 1139 177 1139 177 1144 187.5 c 128,-1,28
 1149 198 1149 198 1155.5 214.5 c 128,-1,29
 1162 231 1162 231 1164.5 239 c 128,-1,30
 1167 247 1167 247 1171.5 266 c 128,-1,31
 1176 285 1176 285 1177 290 c 128,-1,32
 1178 295 1178 295 1182.5 316 c 128,-1,33
 1187 337 1187 337 1187 338 c 0,34,35
 1189 344 1189 344 1214 344 c 0,36,37
 1244 344 1244 344 1265 326 c 1,38,39
 1259 281 1259 281 1251.5 224.5 c 128,-1,40
 1244 168 1244 168 1240.5 139.5 c 128,-1,41
 1237 111 1237 111 1232.5 73.5 c 128,-1,42
 1228 36 1228 36 1226 0 c 1,43,-1
 224 0 l 2,44,45
 207 0 207 0 193 9.5 c 128,-1,46
 179 19 179 19 183 28 c 2,47,-1
 818 1252 l 1,48,-1
 330 1252 l 2,0,1
EndSplineSet
Validated: 33
EndChar

StartChar: bracketleft
Encoding: 91 91 61
Width: 518
GlyphClass: 2
Flags: W
LayerCount: 4
Fore
SplineSet
45 1436 m 0,0,1
 118 1436 118 1436 194 1439 c 128,-1,2
 270 1442 270 1442 309 1445 c 2,3,-1
 349 1448 l 1,4,5
 356 1442 356 1442 358 1430 c 0,6,7
 362 1405 362 1405 344 1398 c 0,8,9
 312 1386 312 1386 255.5 1374.5 c 128,-1,10
 199 1363 199 1363 159 1358 c 2,11,-1
 118 1352 l 1,12,-1
 390 -192 l 1,13,14
 552 -212 552 -212 632 -238 c 0,15,16
 653 -245 653 -245 658 -270 c 0,17,18
 659 -275 659 -275 658 -279.5 c 128,-1,19
 657 -284 657 -284 657 -286 c 2,20,-1
 655 -288 l 1,21,22
 511 -276 511 -276 347 -276 c 0,23,24
 331 -276 331 -276 319.5 -264 c 128,-1,25
 308 -252 308 -252 305 -243.5 c 128,-1,26
 302 -235 302 -235 301 -230 c 2,27,-1
 15 1390 l 2,28,29
 14 1395 14 1395 14 1403.5 c 128,-1,30
 14 1412 14 1412 21.5 1424 c 128,-1,31
 29 1436 29 1436 45 1436 c 0,0,1
EndSplineSet
Validated: 1
Substitution2: "'smcp' Lowercase to Small Capitals lookup 12 subtable" bracketleft.sc
EndChar

StartChar: backslash
Encoding: 92 92 62
Width: 802
GlyphClass: 2
Flags: W
LayerCount: 4
Fore
SplineSet
-74 1500 m 1,0,1
 -68 1514 -68 1514 -36 1514 c 0,2,3
 -20 1514 -20 1514 -0.5 1504 c 128,-1,4
 19 1494 19 1494 25 1482 c 0,5,6
 870 -22 870 -22 873 -34 c 0,7,8
 872 -41 872 -41 859.5 -48.5 c 128,-1,9
 847 -56 847 -56 830 -56 c 0,10,11
 819 -56 819 -56 804 -47 c 128,-1,12
 789 -38 789 -38 783 -28 c 0,13,14
 45 1288 45 1288 -74 1500 c 1,0,1
EndSplineSet
Validated: 1
Substitution2: "'smcp' Lowercase to Small Capitals lookup 12 subtable" backslash.sc
EndChar

StartChar: bracketright
Encoding: 93 93 63
Width: 520
GlyphClass: 2
Flags: W
LayerCount: 4
Fore
SplineSet
173 1436 m 0,0,1
 189 1436 189 1436 200.5 1424 c 128,-1,2
 212 1412 212 1412 215 1403.5 c 128,-1,3
 218 1395 218 1395 219 1390 c 2,4,-1
 505 -230 l 2,5,6
 506 -235 506 -235 506 -243.5 c 128,-1,7
 506 -252 506 -252 498.5 -264 c 128,-1,8
 491 -276 491 -276 475 -276 c 0,9,10
 402 -276 402 -276 326 -279 c 128,-1,11
 250 -282 250 -282 211 -285 c 2,12,-1
 171 -288 l 1,13,14
 164 -282 164 -282 162 -270 c 0,15,16
 158 -245 158 -245 176 -238 c 0,17,18
 208 -226 208 -226 264.5 -214.5 c 128,-1,19
 321 -203 321 -203 361 -198 c 2,20,-1
 402 -192 l 1,21,-1
 130 1352 l 1,22,23
 -32 1372 -32 1372 -112 1398 c 0,24,25
 -133 1405 -133 1405 -138 1430 c 0,26,27
 -139 1435 -139 1435 -138 1439.5 c 128,-1,28
 -137 1444 -137 1444 -137 1446 c 2,29,-1
 -135 1448 l 1,30,31
 9 1436 9 1436 173 1436 c 0,0,1
EndSplineSet
Validated: 1
Substitution2: "'smcp' Lowercase to Small Capitals lookup 12 subtable" bracketright.sc
EndChar

StartChar: asciicircum
Encoding: 94 94 64
Width: 780
GlyphClass: 2
Flags: W
LayerCount: 4
Fore
SplineSet
333 1290 m 0,0,1
 352 1290 352 1290 369 1264 c 0,2,3
 418 1193 418 1193 460 1136 c 128,-1,4
 502 1079 502 1079 562 1001 c 128,-1,5
 622 923 622 923 656 878 c 1,6,7
 658 864 658 864 649.5 855 c 128,-1,8
 641 846 641 846 631 846 c 1,9,10
 582 889 582 889 516 953.5 c 128,-1,11
 450 1018 450 1018 407 1061 c 2,12,-1
 366 1104 l 1,13,14
 269 942 269 942 193 846 c 1,15,16
 183 846 183 846 170.5 855 c 128,-1,17
 158 864 158 864 156 878 c 1,18,19
 176 928 176 928 207 1002 c 128,-1,20
 238 1076 238 1076 261 1134.5 c 128,-1,21
 284 1193 284 1193 307 1264 c 0,22,23
 316 1290 316 1290 333 1290 c 0,0,1
EndSplineSet
Validated: 1
Substitution2: "'smcp' Lowercase to Small Capitals lookup 12 subtable" asciicircum.sc
EndChar

StartChar: underscore
Encoding: 95 95 65
Width: 1010
GlyphClass: 2
Flags: W
LayerCount: 4
Fore
SplineSet
34 -66 m 0,0,1
 28 26 28 26 48 26 c 2,2,-1
 946 26 l 2,3,4
 954 26 954 26 956 16 c 0,5,6
 959 -1 959 -1 952 -74 c 0,7,8
 951 -79 951 -79 948.5 -82 c 128,-1,9
 946 -85 946 -85 944 -86 c 2,10,-1
 942 -86 l 1,11,-1
 52 -86 l 2,12,13
 38 -86 38 -86 34 -66 c 0,0,1
EndSplineSet
Validated: 33
EndChar

StartChar: a
Encoding: 97 97 67
Width: 862
GlyphClass: 2
Flags: W
LayerCount: 4
Fore
SplineSet
433 92 m 0,0,1
 482 92 482 92 539 124.5 c 128,-1,2
 596 157 596 157 593 174 c 2,3,-1
 545 446 l 1,4,5
 398 400 398 400 369 388 c 0,6,7
 316 366 316 366 290.5 326.5 c 128,-1,8
 265 287 265 287 275 232 c 0,9,10
 285 176 285 176 331 134 c 128,-1,11
 377 92 377 92 433 92 c 0,0,1
404 872 m 0,12,13
 491 872 491 872 570.5 792 c 128,-1,14
 650 712 650 712 670 598 c 2,15,-1
 743 186 l 2,16,17
 760 92 760 92 821 92 c 0,18,19
 830 92 830 92 838.5 93.5 c 128,-1,20
 847 95 847 95 852.5 97.5 c 128,-1,21
 858 100 858 100 864 103.5 c 128,-1,22
 870 107 870 107 873 109.5 c 128,-1,23
 876 112 876 112 879 115 c 128,-1,24
 882 118 882 118 883 118 c 0,25,26
 891 118 891 118 893 102 c 0,27,28
 897 81 897 81 890 64 c 1,29,30
 871 43 871 43 826.5 15.5 c 128,-1,31
 782 -12 782 -12 754 -12 c 0,32,33
 712 -12 712 -12 669.5 28.5 c 128,-1,34
 627 69 627 69 609 118 c 1,35,36
 585 89 585 89 508.5 36.5 c 128,-1,37
 432 -16 432 -16 386 -16 c 0,38,39
 287 -16 287 -16 208 50.5 c 128,-1,40
 129 117 129 117 112 214 c 0,41,42
 102 271 102 271 125.5 315.5 c 128,-1,43
 149 360 149 360 184 374 c 0,44,45
 215 386 215 386 296.5 416 c 128,-1,46
 378 446 378 446 432.5 467 c 128,-1,47
 487 488 487 488 511 500 c 0,48,49
 525 506 525 506 528 515 c 128,-1,50
 531 524 531 524 526 550 c 2,51,-1
 517 604 l 2,52,53
 504 675 504 675 443 735.5 c 128,-1,54
 382 796 382 796 311 796 c 0,55,56
 261 796 261 796 242 765.5 c 128,-1,57
 223 735 223 735 223 672 c 0,58,59
 223 576 223 576 146 576 c 0,60,61
 116 576 116 576 92.5 602 c 128,-1,62
 69 628 69 628 63 660 c 0,63,64
 62 668 62 668 63.5 684.5 c 128,-1,65
 65 701 65 701 69 708 c 0,66,67
 121 766 121 766 214 819 c 128,-1,68
 307 872 307 872 404 872 c 0,12,13
EndSplineSet
Validated: 33
Substitution2: "'smcp' Lowercase to Small Capitals lookup 12 subtable" a.sc
EndChar

StartChar: b
Encoding: 98 98 68
Width: 996
GlyphClass: 2
Flags: W
LayerCount: 4
Fore
SplineSet
547 -14 m 0,0,1
 504 -14 504 -14 393 16 c 0,2,3
 388 17 388 17 371 22 c 128,-1,4
 354 27 354 27 347.5 28.5 c 128,-1,5
 341 30 341 30 326.5 32.5 c 128,-1,6
 312 35 312 35 303.5 35 c 128,-1,7
 295 35 295 35 283 33.5 c 128,-1,8
 271 32 271 32 261 28 c 0,9,10
 254 28 254 28 241.5 45.5 c 128,-1,11
 229 63 229 63 227 72 c 0,12,13
 242 125 242 125 225 220 c 2,14,-1
 67 1116 l 2,15,16
 53 1196 53 1196 39 1220 c 0,17,18
 18 1256 18 1256 -89 1256 c 0,19,20
 -90 1256 -90 1256 -93.5 1268.5 c 128,-1,21
 -97 1281 -97 1281 -98.5 1294 c 128,-1,22
 -100 1307 -100 1307 -96 1308 c 0,23,24
 40 1322 40 1322 173 1388 c 0,25,26
 180 1388 180 1388 189.5 1377.5 c 128,-1,27
 199 1367 199 1367 201 1356 c 0,28,29
 190 1292 190 1292 210 1182 c 2,30,-1
 279 788 l 1,31,32
 281 779 l 0,33,34
 282 776 282 776 284 770.5 c 128,-1,35
 286 765 286 765 288 765.5 c 128,-1,36
 290 766 290 766 295 768 c 0,37,38
 331 798 331 798 400 837 c 128,-1,39
 469 876 469 876 518 876 c 0,40,41
 604 876 604 876 682 838 c 128,-1,42
 760 800 760 800 815.5 739 c 128,-1,43
 871 678 871 678 907.5 607 c 128,-1,44
 944 536 944 536 956 466 c 0,45,46
 973 369 973 369 951 280.5 c 128,-1,47
 929 192 929 192 875.5 127.5 c 128,-1,48
 822 63 822 63 736.5 24.5 c 128,-1,49
 651 -14 651 -14 547 -14 c 0,0,1
442 758 m 0,50,51
 406 758 406 758 361.5 739 c 128,-1,52
 317 720 317 720 304 704 c 0,53,54
 296 694 296 694 298 682 c 2,55,-1
 384 196 l 2,56,57
 395 135 395 135 460 94.5 c 128,-1,58
 525 54 525 54 595 54 c 128,-1,59
 665 54 665 54 718 103.5 c 128,-1,60
 771 153 771 153 793.5 230.5 c 128,-1,61
 816 308 816 308 802 388 c 0,62,63
 771 561 771 561 674 659.5 c 128,-1,64
 577 758 577 758 442 758 c 0,50,51
EndSplineSet
Validated: 33
Substitution2: "'smcp' Lowercase to Small Capitals lookup 12 subtable" b.sc
EndChar

StartChar: c
Encoding: 99 99 69
Width: 846
GlyphClass: 2
Flags: W
LayerCount: 4
Fore
SplineSet
704 772 m 0,0,1
 713 723 713 723 694 699.5 c 128,-1,2
 675 676 675 676 645 676 c 0,3,4
 625 676 625 676 602.5 689 c 128,-1,5
 580 702 580 702 554 722.5 c 128,-1,6
 528 743 528 743 516 750 c 0,7,8
 478 773 478 773 455 780.5 c 128,-1,9
 432 788 432 788 395 788 c 0,10,11
 309 788 309 788 256 695.5 c 128,-1,12
 203 603 203 603 230 454 c 0,13,14
 260 286 260 286 365 201 c 128,-1,15
 470 116 470 116 613 116 c 0,16,17
 685 116 685 116 734 149 c 128,-1,18
 783 182 783 182 807 218 c 0,19,20
 808 218 808 218 813 214.5 c 128,-1,21
 818 211 818 211 822.5 204 c 128,-1,22
 827 197 827 197 828 190 c 0,23,24
 831 174 831 174 823 154 c 0,25,26
 812 128 812 128 792 102 c 128,-1,27
 772 76 772 76 741 48 c 128,-1,28
 710 20 710 20 663 2 c 128,-1,29
 616 -16 616 -16 561 -16 c 0,30,31
 444 -16 444 -16 339.5 42 c 128,-1,32
 235 100 235 100 169.5 191.5 c 128,-1,33
 104 283 104 283 85 388 c 0,34,35
 70 472 70 472 87 550 c 128,-1,36
 104 628 104 628 144.5 686 c 128,-1,37
 185 744 185 744 240 787.5 c 128,-1,38
 295 831 295 831 358.5 853.5 c 128,-1,39
 422 876 422 876 485 876 c 0,40,41
 593 876 593 876 674 828 c 0,42,43
 682 821 682 821 692 803.5 c 128,-1,44
 702 786 702 786 704 772 c 0,0,1
EndSplineSet
Validated: 33
Substitution2: "'smcp' Lowercase to Small Capitals lookup 12 subtable" c.sc
EndChar

StartChar: d
Encoding: 100 100 70
Width: 1030
GlyphClass: 2
Flags: W
LayerCount: 4
Fore
SplineSet
520 876 m 0,0,1
 550 876 550 876 597.5 869 c 128,-1,2
 645 862 645 862 662 856 c 0,3,4
 672 856 672 856 665 898 c 2,5,-1
 626 1116 l 2,6,7
 612 1196 612 1196 598 1220 c 0,8,9
 577 1256 577 1256 469 1256 c 0,10,11
 468 1256 468 1256 465 1268.5 c 128,-1,12
 462 1281 462 1281 460.5 1294 c 128,-1,13
 459 1307 459 1307 462 1308 c 0,14,15
 598 1322 598 1322 732 1388 c 0,16,17
 739 1388 739 1388 748.5 1377.5 c 128,-1,18
 758 1367 758 1367 760 1356 c 0,19,20
 749 1292 749 1292 769 1182 c 2,21,-1
 919 326 l 2,22,23
 948 163 948 163 968 130 c 0,24,25
 976 118 976 118 996.5 110 c 128,-1,26
 1017 102 1017 102 1036.5 99.5 c 128,-1,27
 1056 97 1056 97 1073.5 95.5 c 128,-1,28
 1091 94 1091 94 1092 94 c 0,29,30
 1099 91 1099 91 1103 70 c 0,31,32
 1104 64 1104 64 1101 52 c 128,-1,33
 1098 40 1098 40 1092 40 c 0,34,35
 1063 38 1063 38 1026.5 32 c 128,-1,36
 990 26 990 26 959 18 c 128,-1,37
 928 10 928 10 901.5 2 c 128,-1,38
 875 -6 875 -6 859 -11 c 2,39,-1
 842 -16 l 1,40,41
 826 -16 826 -16 819 22 c 2,42,-1
 807 92 l 2,43,44
 803 105 803 105 799 104 c 0,45,46
 775 72 775 72 696.5 28 c 128,-1,47
 618 -16 618 -16 554 -16 c 0,48,49
 414 -16 414 -16 286 108.5 c 128,-1,50
 158 233 158 233 126 412 c 0,51,52
 110 505 110 505 143.5 594 c 128,-1,53
 177 683 177 683 238.5 743 c 128,-1,54
 300 803 300 803 376 839.5 c 128,-1,55
 452 876 452 876 520 876 c 0,0,1
471 792 m 0,56,57
 362 792 362 792 312 692.5 c 128,-1,58
 262 593 262 593 286 460 c 0,59,60
 312 312 312 312 405.5 210 c 128,-1,61
 499 108 499 108 630 108 c 0,62,63
 694 108 694 108 744 135 c 128,-1,64
 794 162 794 162 790 188 c 2,65,-1
 701 694 l 2,66,67
 695 729 695 729 624 760.5 c 128,-1,68
 553 792 553 792 471 792 c 0,56,57
EndSplineSet
Validated: 33
Substitution2: "'smcp' Lowercase to Small Capitals lookup 12 subtable" d.sc
EndChar

StartChar: e
Encoding: 101 101 71
Width: 860
GlyphClass: 2
Flags: W
LayerCount: 4
Fore
SplineSet
207 570 m 2,0,1
 533 570 l 0,2,3
 576 570 576 570 571 616 c 0,4,5
 568 636 568 636 554 666 c 128,-1,6
 540 696 540 696 516.5 728 c 128,-1,7
 493 760 493 760 455 782 c 128,-1,8
 417 804 417 804 374 804 c 0,9,10
 327 804 327 804 292.5 780 c 128,-1,11
 258 756 258 756 241.5 721.5 c 128,-1,12
 225 687 225 687 216.5 652.5 c 128,-1,13
 208 618 208 618 206.5 594 c 128,-1,14
 205 570 205 570 207 570 c 2,0,1
210 496 m 1,15,16
 211 489 211 489 213 481 c 0,17,18
 243 309 243 309 350 212 c 0,19,20
 463 112 463 112 604 112 c 0,21,22
 676 112 676 112 728.5 147 c 128,-1,23
 781 182 781 182 805 218 c 0,24,25
 806 218 806 218 811 214.5 c 128,-1,26
 816 211 816 211 820.5 204 c 128,-1,27
 825 197 825 197 826 190 c 0,28,29
 829 174 829 174 821 154 c 0,30,31
 810 128 810 128 790 102 c 128,-1,32
 770 76 770 76 739 48 c 128,-1,33
 708 20 708 20 661 2 c 128,-1,34
 614 -16 614 -16 559 -16 c 0,35,36
 384 -16 384 -16 250.5 102.5 c 128,-1,37
 117 221 117 221 85 400 c 0,38,39
 68 497 68 497 89 587 c 128,-1,40
 110 677 110 677 156.5 739 c 128,-1,41
 203 801 203 801 266 838.5 c 128,-1,42
 329 876 329 876 395 876 c 0,43,44
 463 876 463 876 522 855 c 128,-1,45
 581 834 581 834 618.5 803.5 c 128,-1,46
 656 773 656 773 683.5 734 c 128,-1,47
 711 695 711 695 725 663 c 128,-1,48
 739 631 739 631 743 604 c 0,49,50
 751 558 751 558 745 534.5 c 128,-1,51
 739 511 739 511 712 510 c 0,52,53
 672 507 672 507 454 501.5 c 128,-1,54
 236 496 236 496 210 496 c 1,15,16
EndSplineSet
Validated: 33
Substitution2: "'smcp' Lowercase to Small Capitals lookup 12 subtable" e.sc
EndChar

StartChar: f
Encoding: 102 102 72
Width: 616
GlyphClass: 2
Flags: W
LayerCount: 4
Fore
SplineSet
416 1394 m 0,0,1
 459 1394 459 1394 473 1390 c 128,-1,2
 487 1386 487 1386 514 1370 c 0,3,4
 522 1363 522 1363 531.5 1345.5 c 128,-1,5
 541 1328 541 1328 544 1314 c 0,6,7
 548 1289 548 1289 542.5 1271.5 c 128,-1,8
 537 1254 537 1254 524.5 1246.5 c 128,-1,9
 512 1239 512 1239 501 1236.5 c 128,-1,10
 490 1234 490 1234 478 1234 c 0,11,12
 460 1234 460 1234 416 1256 c 0,13,14
 380 1274 380 1274 355 1274 c 0,15,16
 306 1274 306 1274 284 1224 c 0,17,18
 262 1177 262 1177 277 1092 c 0,19,20
 278 1089 278 1089 278 1086 c 2,21,-1
 322 838 l 1,22,-1
 558 838 l 2,23,24
 568 838 568 838 571 816 c 0,25,26
 577 784 577 784 554 756 c 1,27,-1
 336 756 l 1,28,-1
 428 232 l 2,29,30
 448 116 448 116 465 84 c 0,31,32
 471 70 471 70 522.5 61 c 128,-1,33
 574 52 574 52 604 52 c 1,34,35
 611 44 611 44 615.5 23 c 128,-1,36
 620 2 620 2 614 -6 c 1,37,38
 407 4 407 4 391 4 c 0,39,40
 356 4 356 4 323.5 2.5 c 128,-1,41
 291 1 291 1 249.5 -2 c 128,-1,42
 208 -5 208 -5 180 -6 c 1,43,44
 172 2 172 2 169 23 c 128,-1,45
 166 44 166 44 170 52 c 1,46,47
 199 52 199 52 244 61 c 128,-1,48
 289 70 289 70 291 84 c 0,49,50
 295 116 295 116 274 232 c 2,51,-1
 182 756 l 1,52,-1
 66 756 l 2,53,54
 56 756 56 756 53 774 c 0,55,56
 52 779 52 779 69.5 804.5 c 128,-1,57
 87 830 87 830 94 838 c 1,58,-1
 168 838 l 1,59,-1
 161 876 l 2,60,61
 143 979 143 979 162.5 1078.5 c 128,-1,62
 182 1178 182 1178 223.5 1245 c 128,-1,63
 265 1312 265 1312 317.5 1353 c 128,-1,64
 370 1394 370 1394 416 1394 c 0,0,1
EndSplineSet
Validated: 33
Substitution2: "'smcp' Lowercase to Small Capitals lookup 12 subtable" f.sc
EndChar

StartChar: g
Encoding: 103 103 73
Width: 932
GlyphClass: 2
Flags: W
LayerCount: 4
Fore
SplineSet
323 818 m 0,0,1
 242 818 242 818 207 747 c 128,-1,2
 172 676 172 676 188 584 c 0,3,4
 205 486 205 486 271 410 c 128,-1,5
 337 334 337 334 424 334 c 0,6,7
 502 334 502 334 536 403.5 c 128,-1,8
 570 473 570 473 554 562 c 0,9,10
 536 664 536 664 473 741 c 128,-1,11
 410 818 410 818 323 818 c 0,0,1
549 -8 m 0,12,13
 381 -8 381 -8 365 -18 c 0,14,15
 325 -43 325 -43 293.5 -80 c 128,-1,16
 262 -117 262 -117 268 -152 c 0,17,18
 286 -252 286 -252 368.5 -314 c 128,-1,19
 451 -376 451 -376 576 -376 c 0,20,21
 644 -376 644 -376 709 -346 c 128,-1,22
 774 -316 774 -316 811.5 -265.5 c 128,-1,23
 849 -215 849 -215 840 -162 c 0,24,25
 836 -139 836 -139 816.5 -113.5 c 128,-1,26
 797 -88 797 -88 762.5 -63.5 c 128,-1,27
 728 -39 728 -39 672 -23.5 c 128,-1,28
 616 -8 616 -8 549 -8 c 0,12,13
616 134 m 2,29,30
 736 134 736 134 842 70.5 c 128,-1,31
 948 7 948 7 963 -76 c 0,32,33
 974 -137 974 -137 942.5 -204 c 128,-1,34
 911 -271 911 -271 851.5 -326 c 128,-1,35
 792 -381 792 -381 700.5 -417 c 128,-1,36
 609 -453 609 -453 509 -454 c 0,37,38
 506 -454 506 -454 503 -454 c 0,39,40
 421 -454 421 -454 343 -429 c 0,41,42
 261 -403 261 -403 197.5 -345.5 c 128,-1,43
 134 -288 134 -288 120 -210 c 0,44,45
 115 -179 115 -179 131.5 -146 c 128,-1,46
 148 -113 148 -113 179.5 -85 c 128,-1,47
 211 -57 211 -57 239.5 -37.5 c 128,-1,48
 268 -18 268 -18 296 -2 c 1,49,50
 229 18 229 18 170 67 c 128,-1,51
 111 116 111 116 99 184 c 1,52,53
 117 211 117 211 167 255 c 128,-1,54
 217 299 217 299 247 320 c 1,55,56
 166 361 166 361 107.5 432 c 128,-1,57
 49 503 49 503 36 576 c 0,58,59
 15 697 15 697 97.5 787.5 c 128,-1,60
 180 878 180 878 321 878 c 0,61,62
 345 878 345 878 368 875.5 c 128,-1,63
 391 873 391 873 415 866 c 128,-1,64
 439 859 439 859 450 856 c 128,-1,65
 461 853 461 853 486 844 c 2,66,-1
 510 834 l 2,67,68
 538 824 538 824 559 820 c 1,69,-1
 768 850 l 1,70,71
 789 844 789 844 791 830 c 0,72,73
 793 817 793 817 782.5 786.5 c 128,-1,74
 772 756 772 756 759 748 c 1,75,-1
 626 756 l 2,76,77
 618 756 618 756 619 750 c 1,78,79
 635 736 635 736 666 681.5 c 128,-1,80
 697 627 697 627 707 568 c 0,81,82
 726 458 726 458 643 366 c 128,-1,83
 560 274 560 274 421 274 c 0,84,85
 396 274 396 274 359 280 c 128,-1,86
 322 286 322 286 306 292 c 1,87,88
 279 275 279 275 261.5 250.5 c 128,-1,89
 244 226 244 226 247 204 c 0,90,91
 251 184 251 184 289 159 c 128,-1,92
 327 134 327 134 380 134 c 2,93,-1
 616 134 l 2,29,30
EndSplineSet
Validated: 33
Substitution2: "'smcp' Lowercase to Small Capitals lookup 12 subtable" g.sc
EndChar

StartChar: h
Encoding: 104 104 74
Width: 1032
GlyphClass: 2
Flags: W
LayerCount: 4
Fore
SplineSet
582 876 m 0,0,1
 647 876 647 876 695 859 c 128,-1,2
 743 842 743 842 777.5 811 c 128,-1,3
 812 780 812 780 838 726 c 128,-1,4
 864 672 864 672 881.5 608 c 128,-1,5
 899 544 899 544 915 452 c 2,6,-1
 954 232 l 2,7,8
 974 116 974 116 990 84 c 0,9,10
 996 70 996 70 1044.5 61 c 128,-1,11
 1093 52 1093 52 1122 52 c 1,12,13
 1129 44 1129 44 1133 23 c 128,-1,14
 1137 2 1137 2 1132 -6 c 1,15,16
 925 4 925 4 916 4 c 0,17,18
 881 4 881 4 849 2.5 c 128,-1,19
 817 1 817 1 775.5 -2 c 128,-1,20
 734 -5 734 -5 706 -6 c 1,21,22
 698 2 698 2 694.5 23 c 128,-1,23
 691 44 691 44 696 52 c 1,24,25
 725 52 725 52 769.5 61 c 128,-1,26
 814 70 814 70 816 84 c 0,27,28
 820 116 820 116 800 232 c 2,29,-1
 765 432 l 2,30,31
 732 621 732 621 679 690.5 c 128,-1,32
 626 760 626 760 511 760 c 0,33,34
 477 760 477 760 434.5 736 c 128,-1,35
 392 712 392 712 365 686 c 128,-1,36
 338 660 338 660 340 650 c 2,37,-1
 414 232 l 2,38,39
 434 116 434 116 450 84 c 0,40,41
 456 70 456 70 504.5 61 c 128,-1,42
 553 52 553 52 582 52 c 1,43,44
 589 44 589 44 593 23 c 128,-1,45
 597 2 597 2 592 -6 c 1,46,47
 385 4 385 4 376 4 c 0,48,49
 341 4 341 4 309 2.5 c 128,-1,50
 277 1 277 1 235.5 -2 c 128,-1,51
 194 -5 194 -5 166 -6 c 1,52,53
 158 2 158 2 154.5 23 c 128,-1,54
 151 44 151 44 156 52 c 1,55,56
 185 52 185 52 229.5 61 c 128,-1,57
 274 70 274 70 276 84 c 0,58,59
 280 116 280 116 260 232 c 2,60,-1
 104 1116 l 2,61,62
 90 1196 90 1196 76 1220 c 0,63,64
 55 1256 55 1256 -53 1256 c 0,65,66
 -54 1256 -54 1256 -57 1268.5 c 128,-1,67
 -60 1281 -60 1281 -62 1294 c 128,-1,68
 -64 1307 -64 1307 -60 1308 c 0,69,70
 76 1322 76 1322 210 1388 c 0,71,72
 217 1388 217 1388 226.5 1377.5 c 128,-1,73
 236 1367 236 1367 238 1356 c 0,74,75
 227 1292 227 1292 246 1182 c 2,76,-1
 326 730 l 2,77,78
 327 726 327 726 333 726 c 0,79,80
 335 726 335 726 338 730 c 0,81,82
 370 774 370 774 444 825 c 128,-1,83
 518 876 518 876 582 876 c 0,0,1
EndSplineSet
Validated: 33
Substitution2: "'smcp' Lowercase to Small Capitals lookup 12 subtable" h.sc
EndChar

StartChar: k
Encoding: 107 107 77
Width: 1036
GlyphClass: 2
Flags: W
LayerCount: 4
Fore
SplineSet
414 232 m 2,0,1
 434 116 434 116 450 84 c 0,2,3
 456 70 456 70 504 61 c 128,-1,4
 552 52 552 52 581 52 c 1,5,6
 588 44 588 44 592.5 23 c 128,-1,7
 597 2 597 2 592 -6 c 1,8,9
 385 4 385 4 376 4 c 0,10,11
 341 4 341 4 308.5 2.5 c 128,-1,12
 276 1 276 1 235 -2 c 128,-1,13
 194 -5 194 -5 166 -6 c 1,14,15
 158 2 158 2 154.5 23 c 128,-1,16
 151 44 151 44 155 52 c 1,17,18
 184 52 184 52 229 61 c 128,-1,19
 274 70 274 70 276 84 c 0,20,21
 280 116 280 116 260 232 c 2,22,-1
 104 1116 l 2,23,24
 90 1196 90 1196 76 1220 c 0,25,26
 55 1256 55 1256 -53 1256 c 0,27,28
 -54 1256 -54 1256 -57 1268.5 c 128,-1,29
 -60 1281 -60 1281 -62 1294 c 128,-1,30
 -64 1307 -64 1307 -60 1308 c 0,31,32
 76 1322 76 1322 210 1388 c 0,33,34
 217 1388 217 1388 226.5 1377.5 c 128,-1,35
 236 1367 236 1367 238 1356 c 0,36,37
 227 1292 227 1292 246 1182 c 2,38,-1
 372 470 l 1,39,40
 406 483 406 483 514 592 c 0,41,42
 535 613 535 613 563.5 640.5 c 128,-1,43
 592 668 592 668 608.5 683.5 c 128,-1,44
 625 699 625 699 641 715.5 c 128,-1,45
 657 732 657 732 663.5 742 c 128,-1,46
 670 752 670 752 669 758 c 128,-1,47
 668 764 668 764 663 769 c 128,-1,48
 658 774 658 774 649.5 777.5 c 128,-1,49
 641 781 641 781 632.5 783.5 c 128,-1,50
 624 786 624 786 613.5 787.5 c 128,-1,51
 603 789 603 789 595 789.5 c 128,-1,52
 587 790 587 790 578 791 c 128,-1,53
 569 792 569 792 567 792 c 0,54,55
 558 803 558 803 555.5 825 c 128,-1,56
 553 847 553 847 561 850 c 0,57,58
 660 840 660 840 755 840 c 0,59,60
 858 840 858 840 929 850 c 1,61,62
 937 841 937 841 940 819.5 c 128,-1,63
 943 798 943 798 939 792 c 1,64,65
 912 792 912 792 865 779 c 128,-1,66
 818 766 818 766 793 746 c 0,67,68
 600 585 600 585 513 498 c 1,69,70
 581 437 581 437 684.5 339.5 c 128,-1,71
 788 242 788 242 853 183 c 128,-1,72
 918 124 918 124 942 106 c 0,73,74
 983 77 983 77 1036 64 c 0,75,76
 1083 52 1083 52 1123 52 c 0,77,78
 1129 52 1129 52 1135 52 c 1,79,80
 1139 47 1139 47 1144 29.5 c 128,-1,81
 1149 12 1149 12 1146 4 c 1,82,83
 1120 -8 1120 -8 1018 -8 c 0,84,85
 938 -8 938 -8 864 21 c 128,-1,86
 790 50 790 50 757 80 c 0,87,88
 552 266 552 266 416 390 c 0,89,90
 411 394 411 394 403 398.5 c 128,-1,91
 395 403 395 403 388 406 c 2,92,-1
 383 408 l 1,93,-1
 414 232 l 2,0,1
EndSplineSet
Validated: 33
Substitution2: "'smcp' Lowercase to Small Capitals lookup 12 subtable" k.sc
EndChar

StartChar: l
Encoding: 108 108 78
Width: 510
GlyphClass: 2
Flags: W
LayerCount: 4
Fore
SplineSet
104 1116 m 2,0,1
 90 1196 90 1196 76 1220 c 0,2,3
 55 1256 55 1256 -53 1256 c 0,4,5
 -54 1256 -54 1256 -57 1268.5 c 128,-1,6
 -60 1281 -60 1281 -62 1294 c 128,-1,7
 -64 1307 -64 1307 -60 1308 c 0,8,9
 76 1322 76 1322 210 1388 c 0,10,11
 217 1388 217 1388 226.5 1377.5 c 128,-1,12
 236 1367 236 1367 238 1356 c 0,13,14
 227 1292 227 1292 246 1182 c 2,15,-1
 414 232 l 2,16,17
 434 116 434 116 450 84 c 0,18,19
 456 70 456 70 504.5 61 c 128,-1,20
 553 52 553 52 582 52 c 1,21,22
 589 44 589 44 593 23 c 128,-1,23
 597 2 597 2 592 -6 c 1,24,25
 385 4 385 4 376 4 c 0,26,27
 341 4 341 4 309 2.5 c 128,-1,28
 277 1 277 1 235.5 -2 c 128,-1,29
 194 -5 194 -5 166 -6 c 1,30,31
 158 2 158 2 154.5 23 c 128,-1,32
 151 44 151 44 156 52 c 1,33,34
 185 52 185 52 229.5 61 c 128,-1,35
 274 70 274 70 276 84 c 0,36,37
 280 116 280 116 260 232 c 2,38,-1
 104 1116 l 2,0,1
EndSplineSet
Validated: 33
Substitution2: "'smcp' Lowercase to Small Capitals lookup 12 subtable" l.sc
EndChar

StartChar: m
Encoding: 109 109 79
Width: 1580
GlyphClass: 2
Flags: W
LayerCount: 4
Fore
SplineSet
562 876 m 0,0,1
 653 876 653 876 716.5 837 c 128,-1,2
 780 798 780 798 819 710 c 1,3,4
 973 876 973 876 1084 876 c 0,5,6
 1149 876 1149 876 1197 859 c 128,-1,7
 1245 842 1245 842 1279.5 811 c 128,-1,8
 1314 780 1314 780 1340 726 c 128,-1,9
 1366 672 1366 672 1383 608 c 128,-1,10
 1400 544 1400 544 1416 452 c 2,11,-1
 1455 232 l 2,12,13
 1475 116 1475 116 1491 84 c 0,14,15
 1497 70 1497 70 1545.5 61 c 128,-1,16
 1594 52 1594 52 1623 52 c 1,17,18
 1630 44 1630 44 1634.5 23 c 128,-1,19
 1639 2 1639 2 1633 -6 c 1,20,21
 1426 4 1426 4 1417 4 c 0,22,23
 1382 4 1382 4 1350 2.5 c 128,-1,24
 1318 1 1318 1 1276.5 -2 c 128,-1,25
 1235 -5 1235 -5 1207 -6 c 1,26,27
 1199 2 1199 2 1195.5 23 c 128,-1,28
 1192 44 1192 44 1197 52 c 1,29,30
 1226 52 1226 52 1271 61 c 128,-1,31
 1316 70 1316 70 1317 84 c 0,32,33
 1321 116 1321 116 1301 232 c 2,34,-1
 1263 446 l 2,35,36
 1252 510 1252 510 1240 555 c 128,-1,37
 1228 600 1228 600 1209.5 641.5 c 128,-1,38
 1191 683 1191 683 1166 707 c 128,-1,39
 1141 731 1141 731 1104.5 745.5 c 128,-1,40
 1068 760 1068 760 1020 760 c 0,41,42
 976 760 976 760 932 734 c 128,-1,43
 888 708 888 708 865.5 681.5 c 128,-1,44
 843 655 843 655 844 646 c 0,45,46
 844 645 844 645 847 633.5 c 128,-1,47
 850 622 850 622 851 620 c 0,48,49
 868 569 868 569 884 478 c 2,50,-1
 927 232 l 2,51,52
 947 116 947 116 963 84 c 0,53,54
 969 70 969 70 1017.5 61 c 128,-1,55
 1066 52 1066 52 1095 52 c 1,56,57
 1102 44 1102 44 1106.5 23 c 128,-1,58
 1111 2 1111 2 1105 -6 c 1,59,60
 898 4 898 4 889 4 c 0,61,62
 854 4 854 4 822 2.5 c 128,-1,63
 790 1 790 1 748.5 -2 c 128,-1,64
 707 -5 707 -5 679 -6 c 1,65,66
 671 2 671 2 667.5 23 c 128,-1,67
 664 44 664 44 669 52 c 1,68,69
 698 52 698 52 743 61 c 128,-1,70
 788 70 788 70 789 84 c 0,71,72
 793 116 793 116 773 232 c 2,73,-1
 737 436 l 2,74,75
 705 620 705 620 652.5 690 c 128,-1,76
 600 760 600 760 492 760 c 0,77,78
 431 760 431 760 376 717 c 128,-1,79
 321 674 321 674 325 650 c 2,80,-1
 399 232 l 2,81,82
 419 116 419 116 435 84 c 0,83,84
 441 70 441 70 489.5 61 c 128,-1,85
 538 52 538 52 567 52 c 1,86,87
 574 44 574 44 578.5 23 c 128,-1,88
 583 2 583 2 577 -6 c 1,89,90
 370 4 370 4 361 4 c 0,91,92
 326 4 326 4 294 2.5 c 128,-1,93
 262 1 262 1 220.5 -2 c 128,-1,94
 179 -5 179 -5 151 -6 c 1,95,96
 143 2 143 2 139.5 23 c 128,-1,97
 136 44 136 44 141 52 c 1,98,99
 170 52 170 52 215 61 c 128,-1,100
 260 70 260 70 261 84 c 0,101,102
 265 116 265 116 245 232 c 2,103,-1
 181 596 l 2,104,105
 165 684 165 684 151 708 c 0,106,107
 142 723 142 723 108.5 732 c 128,-1,108
 75 741 75 741 53.5 742.5 c 128,-1,109
 32 744 32 744 15 744 c 1,110,111
 10 748 10 748 6 768 c 128,-1,112
 2 788 2 788 6 796 c 1,113,114
 173 819 173 819 277 880 c 0,115,116
 284 880 284 880 293.5 868 c 128,-1,117
 303 856 303 856 305 848 c 0,118,119
 308 764 308 764 311 744 c 0,120,121
 312 736 312 736 316 736 c 0,122,123
 318 736 318 736 322 740 c 0,124,125
 401 818 401 818 455 847 c 0,126,127
 510 876 510 876 562 876 c 0,0,1
EndSplineSet
Validated: 33
Substitution2: "'smcp' Lowercase to Small Capitals lookup 12 subtable" m.sc
EndChar

StartChar: n
Encoding: 110 110 80
Width: 1064
GlyphClass: 2
Flags: W
LayerCount: 4
Fore
SplineSet
568 876 m 0,0,1
 633 876 633 876 681 859 c 128,-1,2
 729 842 729 842 763.5 811 c 128,-1,3
 798 780 798 780 824 726 c 128,-1,4
 850 672 850 672 867 608 c 128,-1,5
 884 544 884 544 900 452 c 2,6,-1
 939 232 l 2,7,8
 959 116 959 116 975 84 c 0,9,10
 981 70 981 70 1029.5 61 c 128,-1,11
 1078 52 1078 52 1107 52 c 1,12,13
 1114 44 1114 44 1118.5 23 c 128,-1,14
 1123 2 1123 2 1117 -6 c 1,15,16
 910 4 910 4 901 4 c 0,17,18
 866 4 866 4 834 2.5 c 128,-1,19
 802 1 802 1 760.5 -2 c 128,-1,20
 719 -5 719 -5 691 -6 c 1,21,22
 683 2 683 2 679.5 23 c 128,-1,23
 676 44 676 44 681 52 c 1,24,25
 710 52 710 52 755 61 c 128,-1,26
 800 70 800 70 801 84 c 0,27,28
 805 116 805 116 785 232 c 2,29,-1
 750 432 l 2,30,31
 717 621 717 621 664 690.5 c 128,-1,32
 611 760 611 760 496 760 c 0,33,34
 462 760 462 760 420 736 c 128,-1,35
 378 712 378 712 351 686 c 128,-1,36
 324 660 324 660 325 650 c 2,37,-1
 399 232 l 2,38,39
 419 116 419 116 435 84 c 0,40,41
 441 70 441 70 489.5 61 c 128,-1,42
 538 52 538 52 567 52 c 1,43,44
 574 44 574 44 578.5 23 c 128,-1,45
 583 2 583 2 577 -6 c 1,46,47
 370 4 370 4 361 4 c 0,48,49
 326 4 326 4 294 2.5 c 128,-1,50
 262 1 262 1 220.5 -2 c 128,-1,51
 179 -5 179 -5 151 -6 c 1,52,53
 143 2 143 2 139.5 23 c 128,-1,54
 136 44 136 44 141 52 c 1,55,56
 170 52 170 52 215 61 c 128,-1,57
 260 70 260 70 261 84 c 0,58,59
 265 116 265 116 245 232 c 2,60,-1
 181 596 l 2,61,62
 165 684 165 684 151 708 c 0,63,64
 142 723 142 723 108.5 732 c 128,-1,65
 75 741 75 741 53.5 742.5 c 128,-1,66
 32 744 32 744 15 744 c 1,67,68
 10 748 10 748 6 768 c 128,-1,69
 2 788 2 788 6 796 c 1,70,71
 173 819 173 819 277 880 c 0,72,73
 284 880 284 880 293.5 868 c 128,-1,74
 303 856 303 856 305 848 c 0,75,76
 308 764 308 764 313 734 c 0,77,78
 314 726 314 726 318 726 c 0,79,80
 320 726 320 726 323 730 c 0,81,82
 355 774 355 774 429.5 825 c 128,-1,83
 504 876 504 876 568 876 c 0,0,1
EndSplineSet
Validated: 33
Substitution2: "'smcp' Lowercase to Small Capitals lookup 12 subtable" n.sc
EndChar

StartChar: o
Encoding: 111 111 81
Width: 1018
GlyphClass: 2
Flags: W
LayerCount: 4
Fore
SplineSet
419 812 m 0,0,1
 338 812 338 812 293 760 c 128,-1,2
 248 708 248 708 240 633 c 128,-1,3
 232 558 232 558 248 466 c 0,4,5
 266 365 266 365 313 272.5 c 128,-1,6
 360 180 360 180 436.5 116 c 128,-1,7
 513 52 513 52 599 52 c 0,8,9
 680 52 680 52 725 104 c 128,-1,10
 770 156 770 156 778 230.5 c 128,-1,11
 786 305 786 305 770 396 c 0,12,13
 752 496 752 496 704.5 589.5 c 128,-1,14
 657 683 657 683 580.5 747.5 c 128,-1,15
 504 812 504 812 419 812 c 0,0,1
429 878 m 0,16,17
 624 878 624 878 762.5 755.5 c 128,-1,18
 901 633 901 633 934 442 c 0,19,20
 968 248 968 248 870 117 c 128,-1,21
 772 -14 772 -14 591 -14 c 0,22,23
 396 -14 396 -14 256.5 110.5 c 128,-1,24
 117 235 117 235 83 426 c 0,25,26
 49 619 49 619 148 748.5 c 128,-1,27
 247 878 247 878 429 878 c 0,16,17
EndSplineSet
Validated: 33
Substitution2: "'smcp' Lowercase to Small Capitals lookup 12 subtable" o.sc
EndChar

StartChar: p
Encoding: 112 112 82
Width: 1020
GlyphClass: 2
Flags: W
LayerCount: 4
Fore
SplineSet
464 876 m 0,0,1
 552 876 552 876 631 836.5 c 128,-1,2
 710 797 710 797 763.5 734 c 128,-1,3
 817 671 817 671 852 601 c 128,-1,4
 887 531 887 531 899 464 c 0,5,6
 916 370 916 370 890 280.5 c 128,-1,7
 864 191 864 191 809.5 126.5 c 128,-1,8
 755 62 755 62 677.5 23 c 128,-1,9
 600 -16 600 -16 516 -16 c 0,10,11
 446 -16 446 -16 372 6 c 1,12,13
 366 -4 366 -4 368 -20 c 2,14,-1
 402 -214 l 2,15,16
 422 -330 422 -330 439 -362 c 0,17,18
 445 -376 445 -376 493 -385 c 128,-1,19
 541 -394 541 -394 570 -394 c 1,20,21
 577 -402 577 -402 581.5 -423 c 128,-1,22
 586 -444 586 -444 580 -452 c 1,23,24
 373 -442 373 -442 365 -442 c 0,25,26
 330 -442 330 -442 297.5 -443.5 c 128,-1,27
 265 -445 265 -445 223.5 -448 c 128,-1,28
 182 -451 182 -451 154 -452 c 1,29,30
 146 -444 146 -444 143 -423 c 128,-1,31
 140 -402 140 -402 144 -394 c 1,32,33
 173 -394 173 -394 218 -385 c 128,-1,34
 263 -376 263 -376 265 -362 c 0,35,36
 269 -337 269 -337 248 -214 c 2,37,-1
 104 604 l 2,38,39
 90 684 90 684 76 708 c 0,40,41
 67 723 67 723 33.5 732 c 128,-1,42
 0 741 0 741 -21.5 742.5 c 128,-1,43
 -43 744 -43 744 -60 744 c 1,44,45
 -65 748 -65 748 -69 768 c 128,-1,46
 -73 788 -73 788 -70 796 c 1,47,48
 97 819 97 819 202 880 c 0,49,50
 209 880 209 880 218.5 868 c 128,-1,51
 228 856 228 856 229 848 c 0,52,53
 229 847 229 847 228.5 811.5 c 128,-1,54
 228 776 228 776 230 766 c 0,55,56
 231 758 231 758 235 758 c 0,57,58
 237 758 237 758 240 762 c 0,59,60
 280 802 280 802 345 839 c 128,-1,61
 410 876 410 876 464 876 c 0,0,1
399 758 m 0,62,63
 341 758 341 758 291 730.5 c 128,-1,64
 241 703 241 703 245 680 c 2,65,-1
 329 200 l 2,66,67
 341 130 341 130 408.5 92 c 128,-1,68
 476 54 476 54 541 54 c 0,69,70
 620 54 620 54 672.5 105 c 128,-1,71
 725 156 725 156 742 231.5 c 128,-1,72
 759 307 759 307 744 390 c 0,73,74
 714 562 714 562 616 660 c 128,-1,75
 518 758 518 758 399 758 c 0,62,63
EndSplineSet
Validated: 33
Substitution2: "'smcp' Lowercase to Small Capitals lookup 12 subtable" p.sc
EndChar

StartChar: q
Encoding: 113 113 83
Width: 994
GlyphClass: 2
Flags: W
LayerCount: 4
Fore
SplineSet
407 804 m 0,0,1
 340 804 340 804 293 769.5 c 128,-1,2
 246 735 246 735 225 682 c 128,-1,3
 204 629 204 629 198 574 c 128,-1,4
 192 519 192 519 200 470 c 0,5,6
 230 298 230 298 329 202 c 128,-1,7
 428 106 428 106 557 106 c 0,8,9
 614 106 614 106 660.5 134 c 128,-1,10
 707 162 707 162 702 186 c 2,11,-1
 618 664 l 2,12,13
 607 725 607 725 542.5 764.5 c 128,-1,14
 478 804 478 804 407 804 c 0,0,1
455 876 m 0,15,16
 484 876 484 876 576 851 c 128,-1,17
 668 826 668 826 702 826 c 0,18,19
 724 826 724 826 741 832 c 0,20,21
 749 832 749 832 761 814.5 c 128,-1,22
 773 797 773 797 774 788 c 0,23,24
 759 735 759 735 776 640 c 2,25,-1
 927 -216 l 2,26,27
 947 -332 947 -332 963 -364 c 0,28,29
 969 -378 969 -378 1017.5 -387 c 128,-1,30
 1066 -396 1066 -396 1095 -396 c 1,31,32
 1102 -404 1102 -404 1106.5 -425 c 128,-1,33
 1111 -446 1111 -446 1105 -454 c 1,34,35
 898 -444 898 -444 889 -444 c 0,36,37
 854 -444 854 -444 822 -445.5 c 128,-1,38
 790 -447 790 -447 748.5 -450 c 128,-1,39
 707 -453 707 -453 679 -454 c 1,40,41
 671 -446 671 -446 667.5 -425 c 128,-1,42
 664 -404 664 -404 669 -396 c 1,43,44
 698 -396 698 -396 743 -387 c 128,-1,45
 788 -378 788 -378 789 -364 c 0,46,47
 793 -332 793 -332 773 -216 c 2,48,-1
 721 80 l 2,49,50
 719 90 719 90 714.5 97.5 c 128,-1,51
 710 105 710 105 704 100 c 0,52,53
 674 69 674 69 602 27.5 c 128,-1,54
 530 -14 530 -14 474 -14 c 0,55,56
 408 -14 408 -14 344.5 11.5 c 128,-1,57
 281 37 281 37 232.5 79.5 c 128,-1,58
 184 122 184 122 144 176 c 128,-1,59
 104 230 104 230 79.5 287 c 128,-1,60
 55 344 55 344 45 398 c 0,61,62
 31 477 31 477 48 552.5 c 128,-1,63
 65 628 65 628 106.5 685 c 128,-1,64
 148 742 148 742 204 786 c 128,-1,65
 260 830 260 830 325.5 853 c 128,-1,66
 391 876 391 876 455 876 c 0,15,16
EndSplineSet
Validated: 33
Substitution2: "'smcp' Lowercase to Small Capitals lookup 12 subtable" q.sc
EndChar

StartChar: r
Encoding: 114 114 84
Width: 766
GlyphClass: 2
Flags: W
LayerCount: 4
Fore
SplineSet
530 874 m 0,0,1
 569 874 569 874 606.5 857 c 128,-1,2
 644 840 644 840 662 816 c 1,3,4
 674 792 674 792 680 762 c 0,5,6
 689 713 689 713 670.5 685.5 c 128,-1,7
 652 658 652 658 632 658 c 0,8,9
 619 658 619 658 606.5 663.5 c 128,-1,10
 594 669 594 669 574.5 681.5 c 128,-1,11
 555 694 555 694 551 696 c 0,12,13
 511 720 511 720 473 720 c 0,14,15
 415 720 415 720 376 651.5 c 128,-1,16
 337 583 337 583 345 540 c 2,17,-1
 399 232 l 2,18,19
 419 116 419 116 435 84 c 0,20,21
 441 70 441 70 509.5 61 c 128,-1,22
 578 52 578 52 613 52 c 1,23,24
 620 44 620 44 624.5 23 c 128,-1,25
 629 2 629 2 623 -6 c 1,26,27
 416 4 416 4 373 4 c 0,28,29
 354 4 354 4 151 -6 c 1,30,31
 143 2 143 2 139.5 23 c 128,-1,32
 136 44 136 44 141 52 c 1,33,34
 170 52 170 52 215 61 c 128,-1,35
 260 70 260 70 261 84 c 0,36,37
 265 109 265 109 245 232 c 2,38,-1
 180 604 l 2,39,40
 166 684 166 684 151 708 c 0,41,42
 142 723 142 723 108.5 732 c 128,-1,43
 75 741 75 741 53.5 742.5 c 128,-1,44
 32 744 32 744 15 744 c 1,45,46
 10 748 10 748 6 768 c 128,-1,47
 2 788 2 788 6 796 c 1,48,49
 173 819 173 819 277 880 c 0,50,51
 284 880 284 880 293.5 868 c 128,-1,52
 303 856 303 856 305 848 c 0,53,54
 305 836 305 836 312.5 757.5 c 128,-1,55
 320 679 320 679 323 664 c 0,56,57
 324 660 324 660 326 658.5 c 128,-1,58
 328 657 328 657 329.5 657.5 c 128,-1,59
 331 658 331 658 332 660 c 0,60,61
 353 734 353 734 410.5 804 c 128,-1,62
 468 874 468 874 530 874 c 0,0,1
EndSplineSet
Validated: 33
Substitution2: "'smcp' Lowercase to Small Capitals lookup 12 subtable" r.sc
EndChar

StartChar: s
Encoding: 115 115 85
Width: 738
GlyphClass: 2
Flags: W
LayerCount: 4
Fore
SplineSet
311 874 m 0,0,1
 356 874 356 874 424 862.5 c 128,-1,2
 492 851 492 851 520 848 c 1,3,4
 556 758 556 758 582 628 c 0,5,6
 584 618 584 618 564 618 c 0,7,8
 542 618 542 618 528 628 c 1,9,10
 498 695 498 695 442 753.5 c 128,-1,11
 386 812 386 812 328 812 c 0,12,13
 259 812 259 812 228.5 777 c 128,-1,14
 198 742 198 742 208 686 c 0,15,16
 212 661 212 661 223.5 639.5 c 128,-1,17
 235 618 235 618 246.5 604 c 128,-1,18
 258 590 258 590 282.5 573 c 128,-1,19
 307 556 307 556 320.5 548 c 128,-1,20
 334 540 334 540 368 522.5 c 128,-1,21
 402 505 402 505 415 498 c 0,22,23
 425 493 425 493 459.5 475 c 128,-1,24
 494 457 494 457 510 447.5 c 128,-1,25
 526 438 526 438 556.5 419.5 c 128,-1,26
 587 401 587 401 604 385.5 c 128,-1,27
 621 370 621 370 641 348.5 c 128,-1,28
 661 327 661 327 672.5 303.5 c 128,-1,29
 684 280 684 280 688 254 c 0,30,31
 709 135 709 135 631.5 56.5 c 128,-1,32
 554 -22 554 -22 429 -22 c 0,33,34
 388 -22 388 -22 351.5 -16.5 c 128,-1,35
 315 -11 315 -11 265.5 0 c 128,-1,36
 216 11 216 11 188 16 c 1,37,38
 171 47 171 47 148 115.5 c 128,-1,39
 125 184 125 184 118 224 c 1,40,41
 132 236 132 236 152 236 c 0,42,43
 164 236 164 236 170 232 c 1,44,45
 203 161 203 161 274.5 101.5 c 128,-1,46
 346 42 346 42 420 42 c 0,47,48
 483 42 483 42 516.5 80.5 c 128,-1,49
 550 119 550 119 538 186 c 0,50,51
 532 221 532 221 514.5 249 c 128,-1,52
 497 277 497 277 464 301 c 128,-1,53
 431 325 431 325 405.5 339.5 c 128,-1,54
 380 354 380 354 328.5 378.5 c 128,-1,55
 277 403 277 403 254 416 c 0,56,57
 177 456 177 456 127 506.5 c 128,-1,58
 77 557 77 557 64 630 c 0,59,60
 45 737 45 737 120 805.5 c 128,-1,61
 195 874 195 874 311 874 c 0,0,1
EndSplineSet
Validated: 33
Substitution2: "'smcp' Lowercase to Small Capitals lookup 12 subtable" s.sc
EndChar

StartChar: t
Encoding: 116 116 86
Width: 622
GlyphClass: 2
Flags: W
LayerCount: 4
Fore
SplineSet
266 864 m 1,0,-1
 524 864 l 2,1,2
 534 864 534 864 538 842 c 0,3,4
 544 810 544 810 521 782 c 1,5,-1
 281 782 l 1,6,-1
 373 258 l 2,7,8
 402 94 402 94 534 94 c 0,9,10
 600 94 600 94 656 140 c 1,11,12
 663 137 663 137 664 126 c 0,13,14
 668 104 668 104 662 96 c 0,15,16
 646 74 646 74 625 52.5 c 128,-1,17
 604 31 604 31 562 8.5 c 128,-1,18
 520 -14 520 -14 475 -14 c 0,19,20
 434 -14 434 -14 397.5 -4 c 128,-1,21
 361 6 361 6 325.5 29 c 128,-1,22
 290 52 290 52 265 96 c 128,-1,23
 240 140 240 140 229 202 c 2,24,-1
 127 782 l 1,25,-1
 11 782 l 2,26,27
 1 782 1 782 -2 800 c 0,28,29
 -3 805 -3 805 14.5 830.5 c 128,-1,30
 32 856 32 856 38 864 c 1,31,-1
 112 864 l 1,32,-1
 90 990 l 1,33,34
 103 1009 103 1009 127 1041.5 c 128,-1,35
 151 1074 151 1074 169 1098 c 128,-1,36
 187 1122 187 1122 188 1124 c 0,37,38
 192 1129 192 1129 199.5 1131 c 128,-1,39
 207 1133 207 1133 213 1131.5 c 128,-1,40
 219 1130 219 1130 220 1126 c 2,41,-1
 266 864 l 1,0,-1
EndSplineSet
Validated: 1
Substitution2: "'smcp' Lowercase to Small Capitals lookup 12 subtable" t.sc
EndChar

StartChar: u
Encoding: 117 117 87
Width: 1030
GlyphClass: 2
Flags: W
LayerCount: 4
Fore
SplineSet
662 640 m 2,0,1
 648 718 648 718 627 748 c 0,2,3
 598 788 598 788 508 788 c 1,4,5
 502 793 502 793 498 812.5 c 128,-1,6
 494 832 494 832 499 840 c 1,7,8
 662 846 662 846 766 880 c 0,9,10
 773 880 773 880 784 860.5 c 128,-1,11
 795 841 795 841 796 832 c 1,12,13
 787 804 787 804 805 702 c 2,14,-1
 822 610 l 1,15,-1
 879 282 l 2,16,17
 894 195 894 195 920 130 c 0,18,19
 925 117 925 117 945.5 109 c 128,-1,20
 966 101 966 101 986 98.5 c 128,-1,21
 1006 96 1006 96 1025 95 c 128,-1,22
 1044 94 1044 94 1045 94 c 0,23,24
 1052 91 1052 91 1054 72 c 0,25,26
 1055 66 1055 66 1052.5 53 c 128,-1,27
 1050 40 1050 40 1044 40 c 0,28,29
 1015 38 1015 38 979 32 c 128,-1,30
 943 26 943 26 911.5 18 c 128,-1,31
 880 10 880 10 853.5 2 c 128,-1,32
 827 -6 827 -6 810 -11 c 2,33,-1
 794 -16 l 2,34,35
 787 -16 787 -16 780.5 -6 c 128,-1,36
 774 4 774 4 772 16 c 2,37,-1
 756 108 l 1,38,-1
 750 118 l 1,39,40
 713 69 713 69 637.5 27.5 c 128,-1,41
 562 -14 562 -14 490 -14 c 0,42,43
 429 -14 429 -14 378 12 c 128,-1,44
 327 38 327 38 294 77 c 128,-1,45
 261 116 261 116 234.5 172 c 128,-1,46
 208 228 208 228 194 277.5 c 128,-1,47
 180 327 180 327 169 384 c 2,48,-1
 124 640 l 2,49,50
 110 718 110 718 89 748 c 0,51,52
 60 788 60 788 -30 788 c 1,53,54
 -36 793 -36 793 -40 812.5 c 128,-1,55
 -44 832 -44 832 -39 840 c 1,56,57
 124 846 124 846 228 880 c 0,58,59
 235 880 235 880 245 864.5 c 128,-1,60
 255 849 255 849 257 840 c 1,61,62
 248 812 248 812 267 702 c 2,63,-1
 283 616 l 1,64,-1
 319 408 l 2,65,66
 347 248 347 248 408.5 173 c 128,-1,67
 470 98 470 98 574 98 c 0,68,69
 639 98 639 98 693 134 c 0,70,71
 746 170 746 170 739 207 c 2,72,73
 738 208 l 2,74,-1
 662 640 l 2,0,1
EndSplineSet
Validated: 33
Substitution2: "'smcp' Lowercase to Small Capitals lookup 12 subtable" u.sc
EndChar

StartChar: v
Encoding: 118 118 88
Width: 946
GlyphClass: 2
Flags: W
LayerCount: 4
Fore
SplineSet
129 850 m 0,0,1
 163 850 163 850 193 851.5 c 128,-1,2
 223 853 223 853 261 856 c 128,-1,3
 299 859 299 859 327 860 c 1,4,5
 333 851 333 851 334.5 826.5 c 128,-1,6
 336 802 336 802 329 802 c 0,7,8
 316 802 316 802 297 800 c 128,-1,9
 278 798 278 798 256.5 789.5 c 128,-1,10
 235 781 235 781 237 768 c 0,11,12
 238 764 238 764 241 760 c 2,13,-1
 556 220 l 1,14,15
 611 486 611 486 654 674 c 0,16,17
 661 703 661 703 655 738 c 0,18,19
 650 768 650 768 614.5 785 c 128,-1,20
 579 802 579 802 527 802 c 0,21,22
 520 802 520 802 516 827 c 128,-1,23
 512 852 512 852 517 860 c 1,24,25
 538 859 538 859 565.5 856 c 128,-1,26
 593 853 593 853 618.5 851.5 c 128,-1,27
 644 850 644 850 681 850 c 0,28,29
 715 850 715 850 741.5 851.5 c 128,-1,30
 768 853 768 853 801.5 856 c 128,-1,31
 835 859 835 859 865 860 c 1,32,33
 873 851 873 851 874 826.5 c 128,-1,34
 875 802 875 802 869 802 c 0,35,36
 843 802 843 802 803.5 786 c 128,-1,37
 764 770 764 770 755 734 c 0,38,39
 631 224 631 224 583 12 c 0,40,41
 581 1 581 1 564 -10.5 c 128,-1,42
 547 -22 547 -22 537 -22 c 0,43,44
 523 -22 523 -22 517 -14 c 0,45,46
 450 97 450 97 356.5 260 c 128,-1,47
 263 423 263 423 192 542.5 c 128,-1,48
 121 662 121 662 55 762 c 0,49,50
 29 802 29 802 -63 802 c 1,51,52
 -80 831 -80 831 -73 860 c 1,53,54
 -44 859 -44 859 -6.5 856 c 128,-1,55
 31 853 31 853 62 851.5 c 128,-1,56
 93 850 93 850 129 850 c 0,0,1
EndSplineSet
Validated: 33
Substitution2: "'smcp' Lowercase to Small Capitals lookup 12 subtable" v.sc
EndChar

StartChar: w
Encoding: 119 119 89
Width: 1442
GlyphClass: 2
Flags: W
LayerCount: 4
Fore
SplineSet
126 850 m 0,0,1
 160 850 160 850 190 851.5 c 128,-1,2
 220 853 220 853 258 856 c 128,-1,3
 296 859 296 859 324 860 c 1,4,5
 329 851 329 851 332.5 828 c 128,-1,6
 336 805 336 805 330 802 c 0,7,8
 315 802 315 802 296.5 800 c 128,-1,9
 278 798 278 798 256.5 786.5 c 128,-1,10
 235 775 235 775 239 756 c 0,11,12
 239 754 239 754 254 726 c 0,13,14
 285 671 285 671 547 234 c 1,15,16
 560 295 560 295 577 373 c 128,-1,17
 594 451 594 451 603 490.5 c 128,-1,18
 612 530 612 530 620.5 571 c 128,-1,19
 629 612 629 612 632 630.5 c 128,-1,20
 635 649 635 649 635 654 c 0,21,22
 633 666 633 666 611.5 702 c 128,-1,23
 590 738 590 738 567 764 c 0,24,25
 534 802 534 802 472 802 c 1,26,27
 463 806 463 806 459.5 829 c 128,-1,28
 456 852 456 852 462 860 c 1,29,30
 487 859 487 859 543 854.5 c 128,-1,31
 599 850 599 850 646 850 c 0,32,33
 654 850 654 850 852 860 c 1,34,35
 858 850 858 850 861.5 829 c 128,-1,36
 865 808 865 808 860 802 c 1,37,38
 760 802 760 802 772 738 c 0,39,40
 773 734 773 734 781 716 c 0,41,42
 789 701 789 701 802 675 c 128,-1,43
 815 649 815 649 840 605.5 c 128,-1,44
 865 562 865 562 891 516.5 c 128,-1,45
 917 471 917 471 962 392 c 128,-1,46
 1007 313 1007 313 1048 240 c 1,47,48
 1132 611 1132 611 1144 688 c 0,49,50
 1149 720 1149 720 1146 736 c 0,51,52
 1142 756 1142 756 1129.5 769.5 c 128,-1,53
 1117 783 1117 783 1092.5 789.5 c 128,-1,54
 1068 796 1068 796 1055.5 798 c 128,-1,55
 1043 800 1043 800 1014 802 c 1,56,57
 1007 807 1007 807 1003 829.5 c 128,-1,58
 999 852 999 852 1004 860 c 1,59,60
 1032 859 1032 859 1082.5 854.5 c 128,-1,61
 1133 850 1133 850 1180 850 c 0,62,63
 1214 850 1214 850 1240 851.5 c 128,-1,64
 1266 853 1266 853 1299 856 c 128,-1,65
 1332 859 1332 859 1362 860 c 0,66,67
 1366 857 1366 857 1369.5 832.5 c 128,-1,68
 1373 808 1373 808 1366 802 c 1,69,70
 1338 802 1338 802 1294.5 785 c 128,-1,71
 1251 768 1251 768 1243 730 c 0,72,73
 1145 285 1145 285 1080 12 c 0,74,75
 1078 0 1078 0 1065.5 -11 c 128,-1,76
 1053 -22 1053 -22 1044 -22 c 0,77,78
 1024 -22 1024 -22 1018 -14 c 2,79,-1
 694 564 l 1,80,-1
 575 16 l 2,81,82
 574 9 574 9 560 -6.5 c 128,-1,83
 546 -22 546 -22 532 -22 c 128,-1,84
 518 -22 518 -22 512 -14 c 0,85,86
 271 404 271 404 52 758 c 0,87,88
 25 802 25 802 -64 802 c 1,89,90
 -70 811 -70 811 -73 831 c 128,-1,91
 -76 851 -76 851 -74 860 c 1,92,93
 -44 859 -44 859 -7.5 856 c 128,-1,94
 29 853 29 853 59.5 851.5 c 128,-1,95
 90 850 90 850 126 850 c 0,0,1
EndSplineSet
Validated: 33
Substitution2: "'smcp' Lowercase to Small Capitals lookup 12 subtable" w.sc
EndChar

StartChar: x
Encoding: 120 120 90
Width: 952
GlyphClass: 2
Flags: W
LayerCount: 4
Fore
SplineSet
171 850 m 0,0,1
 263 850 263 850 372 860 c 1,2,3
 376 850 376 850 379 830 c 128,-1,4
 382 810 382 810 378 802 c 1,5,6
 298 802 298 802 304 768 c 0,7,8
 305 761 305 761 318 744 c 2,9,-1
 487 534 l 1,10,11
 498 560 498 560 529.5 617 c 128,-1,12
 561 674 561 674 576.5 710 c 128,-1,13
 592 746 592 746 589 764 c 0,14,15
 587 778 587 778 568.5 786.5 c 128,-1,16
 550 795 550 795 531.5 797.5 c 128,-1,17
 513 800 513 800 492 801 c 128,-1,18
 471 802 471 802 470 802 c 0,19,20
 467 804 467 804 462 829 c 128,-1,21
 457 854 457 854 460 860 c 1,22,23
 489 859 489 859 527.5 856 c 128,-1,24
 566 853 566 853 596.5 851.5 c 128,-1,25
 627 850 627 850 663 850 c 0,26,27
 753 850 753 850 822 860 c 1,28,29
 825 852 825 852 829 827 c 128,-1,30
 833 802 833 802 830 802 c 0,31,32
 706 795 706 795 684 758 c 0,33,34
 665 723 665 723 626.5 651.5 c 128,-1,35
 588 580 588 580 563.5 535 c 128,-1,36
 539 490 539 490 533 480 c 1,37,-1
 835 124 l 2,38,39
 898 52 898 52 1002 52 c 0,40,41
 1004 52 1004 52 1007 39 c 128,-1,42
 1010 26 1010 26 1011.5 12 c 128,-1,43
 1013 -2 1013 -2 1010 -6 c 1,44,45
 984 -5 984 -5 947.5 -2 c 128,-1,46
 911 1 911 1 882.5 2.5 c 128,-1,47
 854 4 854 4 821 4 c 0,48,49
 783 4 783 4 749 2.5 c 128,-1,50
 715 1 715 1 672 -2 c 128,-1,51
 629 -5 629 -5 600 -6 c 1,52,53
 594 4 594 4 590.5 28 c 128,-1,54
 587 52 587 52 592 52 c 0,55,56
 621 54 621 54 647 63 c 128,-1,57
 673 72 673 72 670 88 c 0,58,59
 669 92 669 92 664 100 c 0,60,61
 530 270 530 270 462 350 c 1,62,63
 454 334 454 334 416.5 259.5 c 128,-1,64
 379 185 379 185 356 134 c 0,65,66
 347 115 347 115 350 96 c 0,67,68
 352 84 352 84 361.5 75.5 c 128,-1,69
 371 67 371 67 390.5 62.5 c 128,-1,70
 410 58 410 58 421 56.5 c 128,-1,71
 432 55 432 55 457 53 c 0,72,73
 464 52 464 52 468 52 c 0,74,75
 470 52 470 52 473.5 39.5 c 128,-1,76
 477 27 477 27 478 13 c 128,-1,77
 479 -1 479 -1 476 -6 c 1,78,79
 448 -5 448 -5 412.5 -2 c 128,-1,80
 377 1 377 1 348.5 2.5 c 128,-1,81
 320 4 320 4 285 4 c 0,82,83
 251 4 251 4 222.5 2.5 c 128,-1,84
 194 1 194 1 159.5 -2 c 128,-1,85
 125 -5 125 -5 98 -6 c 1,86,87
 93 6 93 6 91 25.5 c 128,-1,88
 89 45 89 45 92 52 c 0,89,90
 96 53 96 53 115.5 56 c 128,-1,91
 135 59 135 59 141.5 60 c 128,-1,92
 148 61 148 61 165.5 64.5 c 128,-1,93
 183 68 183 68 191 71.5 c 128,-1,94
 199 75 199 75 213 81 c 128,-1,95
 227 87 227 87 235.5 93.5 c 128,-1,96
 244 100 244 100 253 109.5 c 128,-1,97
 262 119 262 119 268 130 c 0,98,99
 407 398 407 398 415 412 c 1,100,-1
 122 758 l 2,101,102
 103 781 103 781 60.5 791.5 c 128,-1,103
 18 802 18 802 -20 802 c 0,104,105
 -22 802 -22 802 -24.5 814 c 128,-1,106
 -27 826 -27 826 -28.5 840 c 128,-1,107
 -30 854 -30 854 -28 860 c 1,108,109
 83 850 83 850 171 850 c 0,0,1
EndSplineSet
Validated: 33
Substitution2: "'smcp' Lowercase to Small Capitals lookup 12 subtable" x.sc
EndChar

StartChar: y
Encoding: 121 121 91
Width: 938
GlyphClass: 2
Flags: W
LayerCount: 4
Fore
SplineSet
89 850 m 0,0,1
 204 850 204 850 287 860 c 1,2,3
 293 851 293 851 294.5 826.5 c 128,-1,4
 296 802 296 802 289 802 c 0,5,6
 276 802 276 802 257 800 c 128,-1,7
 238 798 238 798 216.5 789.5 c 128,-1,8
 195 781 195 781 197 768 c 0,9,10
 198 764 198 764 201 760 c 2,11,-1
 508 220 l 1,12,13
 563 486 563 486 606 674 c 0,14,15
 613 703 613 703 606 738 c 0,16,17
 601 768 601 768 566 785 c 128,-1,18
 531 802 531 802 479 802 c 0,19,20
 472 802 472 802 467.5 827 c 128,-1,21
 463 852 463 852 469 860 c 1,22,23
 546 850 546 850 651 850 c 0,24,25
 719 850 719 850 817 860 c 1,26,27
 825 851 825 851 826 826.5 c 128,-1,28
 827 802 827 802 821 802 c 0,29,30
 795 802 795 802 755.5 786 c 128,-1,31
 716 770 716 770 707 734 c 0,32,33
 583 224 583 224 535 12 c 0,34,35
 529 -12 529 -12 511.5 -100 c 128,-1,36
 494 -188 494 -188 478.5 -242 c 128,-1,37
 463 -296 463 -296 438 -344 c 0,38,39
 382 -456 382 -456 284 -456 c 0,40,41
 197 -456 197 -456 182 -370 c 0,42,43
 177 -341 177 -341 196 -312 c 1,44,45
 276 -312 276 -312 317.5 -292.5 c 128,-1,46
 359 -273 359 -273 402 -198 c 0,47,48
 418 -170 418 -170 439 -94 c 128,-1,49
 460 -18 460 -18 462 4 c 1,50,51
 172 514 172 514 14 762 c 0,52,53
 -12 802 -12 802 -103 802 c 0,54,55
 -106 802 -106 802 -110.5 829.5 c 128,-1,56
 -115 857 -115 857 -113 860 c 0,57,58
 -16 850 -16 850 89 850 c 0,0,1
EndSplineSet
Validated: 1
Substitution2: "'smcp' Lowercase to Small Capitals lookup 12 subtable" y.sc
EndChar

StartChar: z
Encoding: 122 122 92
Width: 894
GlyphClass: 2
Flags: W
LayerCount: 4
Fore
SplineSet
221 862 m 2,0,-1
 477 862 l 2,1,2
 590 862 590 862 719 878 c 1,3,4
 727 868 727 868 733 830 c 1,5,6
 336 76 336 76 337 70 c 1,7,-1
 617 70 l 2,8,9
 702 70 702 70 750 123.5 c 128,-1,10
 798 177 798 177 805 250 c 0,11,12
 805 262 805 262 817 262 c 128,-1,13
 829 262 829 262 846.5 254.5 c 128,-1,14
 864 247 864 247 873 238 c 1,15,16
 839 92 839 92 825 0 c 1,17,-1
 175 0 l 2,18,19
 163 3 163 3 151.5 15.5 c 128,-1,20
 140 28 140 28 138 40 c 128,-1,21
 136 52 136 52 138 54 c 2,22,-1
 522 792 l 1,23,-1
 241 794 l 2,24,25
 214 794 214 794 192.5 785.5 c 128,-1,26
 171 777 171 777 159.5 766 c 128,-1,27
 148 755 148 755 139 737 c 128,-1,28
 130 719 130 719 126.5 707 c 128,-1,29
 123 695 123 695 119 676.5 c 128,-1,30
 115 658 115 658 114 654 c 0,31,32
 112 648 112 648 99.5 642 c 128,-1,33
 87 636 87 636 73 636 c 0,34,35
 51 636 51 636 50 642 c 0,36,37
 58 731 58 731 41 878 c 1,38,39
 149 862 149 862 221 862 c 2,0,-1
EndSplineSet
Validated: 33
Substitution2: "'smcp' Lowercase to Small Capitals lookup 12 subtable" z.sc
EndChar

StartChar: braceleft
Encoding: 123 123 93
Width: 444
GlyphClass: 2
Flags: W
LayerCount: 4
Fore
SplineSet
174 766 m 0,0,1
 172 777 172 777 169.5 787.5 c 128,-1,2
 167 798 167 798 161 810.5 c 128,-1,3
 155 823 155 823 152 830.5 c 128,-1,4
 149 838 149 838 140 853.5 c 128,-1,5
 131 869 131 869 128.5 873 c 128,-1,6
 126 877 126 877 114.5 895.5 c 128,-1,7
 103 914 103 914 102 916 c 0,8,9
 38 1016 38 1016 27 1082 c 0,10,11
 4 1214 4 1214 55 1311.5 c 128,-1,12
 106 1409 106 1409 178 1440 c 1,13,14
 190 1440 190 1440 202 1428 c 128,-1,15
 214 1416 214 1416 216 1402 c 1,16,17
 169 1377 169 1377 127.5 1312 c 128,-1,18
 86 1247 86 1247 98 1178 c 0,19,20
 101 1162 101 1162 104.5 1147.5 c 128,-1,21
 108 1133 108 1133 114 1118 c 128,-1,22
 120 1103 120 1103 124.5 1093 c 128,-1,23
 129 1083 129 1083 138 1066.5 c 128,-1,24
 147 1050 147 1050 151 1044 c 128,-1,25
 155 1038 155 1038 166 1019.5 c 128,-1,26
 177 1001 177 1001 180 996 c 0,27,28
 243 900 243 900 259 810 c 0,29,30
 274 723 274 723 237.5 659 c 128,-1,31
 201 595 201 595 154 576 c 1,32,33
 207 557 207 557 266.5 493 c 128,-1,34
 326 429 326 429 341 342 c 0,35,36
 357 252 357 252 328 156 c 0,37,38
 327 151 327 151 322 132.5 c 128,-1,39
 317 114 317 114 316 108 c 128,-1,40
 315 102 315 102 311 85.5 c 128,-1,41
 307 69 307 69 306.5 59 c 128,-1,42
 306 49 306 49 305 34 c 128,-1,43
 304 19 304 19 305.5 4.5 c 128,-1,44
 307 -10 307 -10 310 -26 c 0,45,46
 322 -95 322 -95 387 -160 c 128,-1,47
 452 -225 452 -225 508 -250 c 1,48,49
 510 -264 510 -264 502 -276 c 128,-1,50
 494 -288 494 -288 482 -288 c 1,51,52
 400 -257 400 -257 314 -159.5 c 128,-1,53
 228 -62 228 -62 205 70 c 0,54,55
 193 136 193 136 222 236 c 0,56,57
 223 238 223 238 227.5 256.5 c 128,-1,58
 232 275 232 275 233.5 279 c 128,-1,59
 235 283 235 283 238 298.5 c 128,-1,60
 241 314 241 314 242 321.5 c 128,-1,61
 243 329 243 329 244 341.5 c 128,-1,62
 245 354 245 354 244 364.5 c 128,-1,63
 243 375 243 375 242 386 c 0,64,65
 219 515 219 515 60 554 c 1,66,67
 55 561 55 561 52 576 c 128,-1,68
 49 591 49 591 52 598 c 1,69,70
 197 637 197 637 174 766 c 0,0,1
EndSplineSet
Validated: 33
Substitution2: "'smcp' Lowercase to Small Capitals lookup 12 subtable" braceleft.sc
EndChar

StartChar: bar
Encoding: 124 124 94
Width: 410
GlyphClass: 2
Flags: W
LayerCount: 4
Fore
SplineSet
409 -212 m 2,0,1
 411 -222 411 -222 371.5 -234 c 128,-1,2
 332 -246 332 -246 323 -246 c 0,3,4
 318 -246 318 -246 315 -244.5 c 128,-1,5
 312 -243 312 -243 311.5 -241.5 c 128,-1,6
 311 -240 311 -240 310.5 -235.5 c 128,-1,7
 310 -231 310 -231 310 -230 c 2,8,-1
 2 1514 l 2,9,10
 -2 1526 -2 1526 10 1530 c 0,11,12
 56 1544 56 1544 81 1544 c 0,13,14
 89 1544 89 1544 93.5 1541 c 128,-1,15
 98 1538 98 1538 99 1535 c 2,16,-1
 99 1532 l 1,17,-1
 409 -212 l 2,0,1
EndSplineSet
Validated: 1
Substitution2: "'smcp' Lowercase to Small Capitals lookup 12 subtable" bar.sc
EndChar

StartChar: braceright
Encoding: 125 125 95
Width: 446
GlyphClass: 2
Flags: W
LayerCount: 4
Fore
SplineSet
-38 1440 m 1,0,1
 44 1409 44 1409 130 1311.5 c 128,-1,2
 216 1214 216 1214 239 1082 c 0,3,4
 251 1016 251 1016 222 916 c 0,5,6
 221 914 221 914 216.5 895.5 c 128,-1,7
 212 877 212 877 210.5 873 c 128,-1,8
 209 869 209 869 206 853.5 c 128,-1,9
 203 838 203 838 202 830.5 c 128,-1,10
 201 823 201 823 200 810.5 c 128,-1,11
 199 798 199 798 200 787.5 c 128,-1,12
 201 777 201 777 202 766 c 0,13,14
 225 637 225 637 384 598 c 1,15,16
 389 591 389 591 392 576 c 128,-1,17
 395 561 395 561 392 554 c 1,18,19
 247 515 247 515 270 386 c 0,20,21
 272 375 272 375 274.5 364.5 c 128,-1,22
 277 354 277 354 283 341.5 c 128,-1,23
 289 329 289 329 292 321.5 c 128,-1,24
 295 314 295 314 304 298.5 c 128,-1,25
 313 283 313 283 315.5 279 c 128,-1,26
 318 275 318 275 329.5 256.5 c 128,-1,27
 341 238 341 238 342 236 c 0,28,29
 406 136 406 136 417 70 c 0,30,31
 440 -62 440 -62 389 -159.5 c 128,-1,32
 338 -257 338 -257 266 -288 c 1,33,34
 254 -288 254 -288 242 -276 c 128,-1,35
 230 -264 230 -264 228 -250 c 1,36,37
 275 -225 275 -225 316.5 -160 c 128,-1,38
 358 -95 358 -95 346 -26 c 0,39,40
 343 -10 343 -10 339.5 4.5 c 128,-1,41
 336 19 336 19 330 34 c 128,-1,42
 324 49 324 49 319.5 59 c 128,-1,43
 315 69 315 69 306 85.5 c 128,-1,44
 297 102 297 102 293 108 c 128,-1,45
 289 114 289 114 278 132.5 c 128,-1,46
 267 151 267 151 264 156 c 0,47,48
 201 252 201 252 185 342 c 0,49,50
 170 429 170 429 206.5 493 c 128,-1,51
 243 557 243 557 290 576 c 1,52,53
 237 595 237 595 177.5 659 c 128,-1,54
 118 723 118 723 103 810 c 0,55,56
 87 900 87 900 116 996 c 0,57,58
 117 1001 117 1001 122 1019.5 c 128,-1,59
 127 1038 127 1038 128 1044 c 128,-1,60
 129 1050 129 1050 133 1066.5 c 128,-1,61
 137 1083 137 1083 137.5 1093 c 128,-1,62
 138 1103 138 1103 139 1118 c 128,-1,63
 140 1133 140 1133 138.5 1147.5 c 128,-1,64
 137 1162 137 1162 134 1178 c 0,65,66
 122 1247 122 1247 57 1312 c 128,-1,67
 -8 1377 -8 1377 -64 1402 c 1,68,69
 -66 1416 -66 1416 -58 1428 c 128,-1,70
 -50 1440 -50 1440 -38 1440 c 1,0,1
EndSplineSet
Validated: 33
Substitution2: "'smcp' Lowercase to Small Capitals lookup 12 subtable" braceright.sc
EndChar

StartChar: asciitilde
Encoding: 126 126 96
Width: 1140
GlyphClass: 2
Flags: W
LayerCount: 4
Fore
SplineSet
551 554 m 0,0,1
 501 571 501 571 473.5 580 c 128,-1,2
 446 589 446 589 400 597.5 c 128,-1,3
 354 606 354 606 312 606 c 0,4,5
 259 606 259 606 221 582.5 c 128,-1,6
 183 559 183 559 145 518 c 1,7,8
 125 527 125 527 121 552 c 0,9,10
 111 606 111 606 191.5 657 c 128,-1,11
 272 708 272 708 354 708 c 0,12,13
 398 708 398 708 447 698.5 c 128,-1,14
 496 689 496 689 520 681 c 128,-1,15
 544 673 544 673 601 654 c 0,16,17
 651 637 651 637 679 628 c 128,-1,18
 707 619 707 619 753.5 610.5 c 128,-1,19
 800 602 800 602 844 602 c 0,20,21
 858 602 858 602 871.5 604.5 c 128,-1,22
 885 607 885 607 895.5 609 c 128,-1,23
 906 611 906 611 918 618 c 128,-1,24
 930 625 930 625 936.5 628.5 c 128,-1,25
 943 632 943 632 955.5 642.5 c 128,-1,26
 968 653 968 653 972 656.5 c 128,-1,27
 976 660 976 660 990.5 673.5 c 128,-1,28
 1005 687 1005 687 1009 690 c 1,29,30
 1029 681 1029 681 1033 656 c 0,31,32
 1042 605 1042 605 968.5 552.5 c 128,-1,33
 895 500 895 500 804 500 c 0,34,35
 758 500 758 500 710.5 508.5 c 128,-1,36
 663 517 663 517 632 526.5 c 128,-1,37
 601 536 601 536 551 554 c 0,0,1
EndSplineSet
Validated: 33
Substitution2: "'smcp' Lowercase to Small Capitals lookup 12 subtable" asciitilde.sc
EndChar

StartChar: exclamdown
Encoding: 161 161 98
Width: 430
GlyphClass: 2
Flags: W
LayerCount: 4
Fore
SplineSet
11 748 m 128,-1,1
 3 793 3 793 28.5 826.5 c 128,-1,2
 54 860 54 860 99 860 c 128,-1,3
 144 860 144 860 183.5 826.5 c 128,-1,4
 223 793 223 793 231 748 c 128,-1,5
 239 703 239 703 211 671.5 c 128,-1,6
 183 640 183 640 138 640 c 128,-1,7
 93 640 93 640 56 671.5 c 128,-1,0
 19 703 19 703 11 748 c 128,-1,1
321 -446 m 0,8,9
 278 -446 278 -446 249.5 -410.5 c 128,-1,10
 221 -375 221 -375 213 -330 c 0,11,12
 210 -314 210 -314 206 -273.5 c 128,-1,13
 202 -233 202 -233 194.5 -157 c 128,-1,14
 187 -81 187 -81 180 1.5 c 128,-1,15
 173 84 173 84 160 224.5 c 128,-1,16
 147 365 147 365 135 494 c 1,17,18
 143 518 143 518 163 520 c 1,19,20
 185 512 185 512 195 498 c 1,21,22
 377 -192 377 -192 401 -330 c 0,23,24
 409 -375 409 -375 387.5 -410.5 c 128,-1,25
 366 -446 366 -446 321 -446 c 0,8,9
EndSplineSet
Validated: 33
Substitution2: "'smcp' Lowercase to Small Capitals lookup 12 subtable" exclamdown.sc
EndChar

StartChar: cent
Encoding: 162 162 99
Width: 892
GlyphClass: 2
Flags: W
LayerCount: 4
Fore
SplineSet
453 944 m 1,0,1
 509 944 509 944 511 932 c 2,2,-1
 525 -90 l 1,3,4
 469 -90 469 -90 467 -76 c 2,5,-1
 453 944 l 1,0,1
715 772 m 0,6,7
 724 723 724 723 705 699.5 c 128,-1,8
 686 676 686 676 656 676 c 0,9,10
 636 676 636 676 614 689 c 128,-1,11
 592 702 592 702 565.5 722.5 c 128,-1,12
 539 743 539 743 527 750 c 0,13,14
 489 773 489 773 466 780.5 c 128,-1,15
 443 788 443 788 406 788 c 0,16,17
 320 788 320 788 267.5 695.5 c 128,-1,18
 215 603 215 603 241 454 c 0,19,20
 271 286 271 286 376.5 201 c 128,-1,21
 482 116 482 116 625 116 c 0,22,23
 697 116 697 116 745.5 149 c 128,-1,24
 794 182 794 182 819 218 c 0,25,26
 820 218 820 218 824.5 214.5 c 128,-1,27
 829 211 829 211 834 204 c 128,-1,28
 839 197 839 197 840 190 c 0,29,30
 843 174 843 174 834 154 c 0,31,32
 823 128 823 128 803.5 102 c 128,-1,33
 784 76 784 76 753 48 c 128,-1,34
 722 20 722 20 674.5 2 c 128,-1,35
 627 -16 627 -16 572 -16 c 0,36,37
 455 -16 455 -16 351 42 c 128,-1,38
 247 100 247 100 181 191.5 c 128,-1,39
 115 283 115 283 97 388 c 0,40,41
 82 472 82 472 99 550 c 128,-1,42
 116 628 116 628 156 686 c 128,-1,43
 196 744 196 744 251.5 787.5 c 128,-1,44
 307 831 307 831 370.5 853.5 c 128,-1,45
 434 876 434 876 497 876 c 0,46,47
 605 876 605 876 685 828 c 0,48,49
 693 821 693 821 703 803.5 c 128,-1,50
 713 786 713 786 715 772 c 0,6,7
EndSplineSet
Validated: 37
EndChar

StartChar: sterling
Encoding: 163 163 100
Width: 954
GlyphClass: 2
Flags: W
LayerCount: 4
Fore
SplineSet
514 1272 m 0,0,1
 562 1272 562 1272 591.5 1262 c 128,-1,2
 621 1252 621 1252 667 1224 c 0,3,4
 675 1217 675 1217 684.5 1199.5 c 128,-1,5
 694 1182 694 1182 697 1168 c 0,6,7
 706 1119 706 1119 687 1095.5 c 128,-1,8
 668 1072 668 1072 638 1072 c 0,9,10
 623 1072 623 1072 605 1080.5 c 128,-1,11
 587 1089 587 1089 576 1097.5 c 128,-1,12
 565 1106 565 1106 545.5 1123 c 128,-1,13
 526 1140 526 1140 519 1146 c 0,14,15
 493 1167 493 1167 478 1173.5 c 128,-1,16
 463 1180 463 1180 443 1180 c 0,17,18
 393 1180 393 1180 368 1142 c 128,-1,19
 343 1104 343 1104 341.5 1048 c 128,-1,20
 340 992 340 992 353 918 c 0,21,22
 367 840 367 840 409 718 c 0,23,24
 415 700 415 700 421 684 c 1,25,-1
 752 684 l 1,26,27
 768 673 768 673 767.5 657.5 c 128,-1,28
 767 642 767 642 760.5 629.5 c 128,-1,29
 754 617 754 617 747 612 c 1,30,-1
 444 612 l 1,31,32
 456 570 456 570 461 544 c 0,33,34
 478 446 478 446 435 346 c 128,-1,35
 392 246 392 246 345 194 c 1,36,37
 374 210 374 210 412 210 c 0,38,39
 448 210 448 210 485.5 195.5 c 128,-1,40
 523 181 523 181 552.5 163 c 128,-1,41
 582 145 582 145 633 130.5 c 128,-1,42
 684 116 684 116 744 116 c 0,43,44
 782 116 782 116 815 135 c 128,-1,45
 848 154 848 154 868 184.5 c 128,-1,46
 888 215 888 215 898.5 236.5 c 128,-1,47
 909 258 909 258 916 278 c 0,48,49
 917 278 917 278 924 273.5 c 128,-1,50
 931 269 931 269 938.5 261 c 128,-1,51
 946 253 946 253 947 246 c 0,52,53
 949 234 949 234 947 216 c 0,54,55
 943 189 943 189 924.5 152.5 c 128,-1,56
 906 116 906 116 876 76.5 c 128,-1,57
 846 37 846 37 798.5 10.5 c 128,-1,58
 751 -16 751 -16 696 -16 c 0,59,60
 639 -16 639 -16 581 2 c 128,-1,61
 523 20 523 20 485.5 41 c 128,-1,62
 448 62 448 62 403.5 80 c 128,-1,63
 359 98 359 98 325 98 c 0,64,65
 297 98 297 98 281 78.5 c 128,-1,66
 265 59 265 59 253.5 29 c 128,-1,67
 242 -1 242 -1 233 -12 c 1,68,69
 221 -12 221 -12 208.5 3 c 128,-1,70
 196 18 196 18 193 32 c 0,71,72
 183 88 183 88 266 188 c 0,73,74
 301 231 301 231 319.5 311 c 128,-1,75
 338 391 338 391 325 462 c 0,76,77
 322 481 322 481 278 612 c 1,78,-1
 113 612 l 1,79,80
 102 621 102 621 117 652.5 c 128,-1,81
 132 684 132 684 146 684 c 2,82,-1
 254 684 l 1,83,84
 225 773 225 773 220 798 c 0,85,86
 219 806 219 806 217 815 c 0,87,88
 201 905 201 905 217 986 c 0,89,90
 233 1076 233 1076 275.5 1137.5 c 128,-1,91
 318 1199 318 1199 381 1235.5 c 128,-1,92
 444 1272 444 1272 514 1272 c 0,0,1
EndSplineSet
Validated: 33
EndChar

StartChar: currency
Encoding: 164 164 101
Width: 1148
GlyphClass: 2
Flags: W
LayerCount: 4
Fore
SplineSet
644 304 m 0,0,1
 733 304 733 304 774.5 388 c 128,-1,2
 816 472 816 472 796 588 c 0,3,4
 772 725 772 725 683.5 825.5 c 128,-1,5
 595 926 595 926 500 926 c 0,6,7
 411 926 411 926 368.5 840 c 128,-1,8
 326 754 326 754 347 638 c 0,9,10
 371 501 371 501 460 402.5 c 128,-1,11
 549 304 549 304 644 304 c 0,0,1
745 910 m 1,12,-1
 843 1020 l 2,13,14
 850 1028 850 1028 869 1015.5 c 128,-1,15
 888 1003 888 1003 909 979 c 128,-1,16
 930 955 930 955 941 932 c 1,17,-1
 841 820 l 1,18,19
 916 723 916 723 935 614 c 0,20,21
 956 495 956 495 907 398 c 1,22,-1
 1036 282 l 2,23,24
 1045 274 1045 274 1035.5 257 c 128,-1,25
 1026 240 1026 240 1005 223.5 c 128,-1,26
 984 207 984 207 962 200 c 1,27,-1
 839 310 l 1,28,29
 756 240 756 240 639 240 c 0,30,31
 510 240 510 240 397 320 c 1,32,-1
 309 220 l 2,33,34
 302 212 302 212 283 224.5 c 128,-1,35
 264 237 264 237 243 261 c 128,-1,36
 222 285 222 285 211 308 c 1,37,-1
 301 410 l 1,38,39
 224 505 224 505 205 614 c 0,40,41
 182 745 182 745 240 846 c 1,42,-1
 116 958 l 2,43,44
 107 966 107 966 116.5 983 c 128,-1,45
 126 1000 126 1000 147 1016.5 c 128,-1,46
 168 1033 168 1033 190 1040 c 1,47,-1
 313 930 l 1,48,49
 392 992 392 992 506 992 c 0,50,51
 633 992 633 992 745 910 c 1,12,-1
EndSplineSet
Validated: 33
EndChar

StartChar: yen
Encoding: 165 165 102
Width: 1344
GlyphClass: 2
Flags: W
LayerCount: 4
Fore
SplineSet
637 436 m 1,0,-1
 441 436 l 1,1,2
 430 445 430 445 442 477.5 c 128,-1,3
 454 510 454 510 468 510 c 2,4,-1
 622 510 l 1,5,6
 616 528 616 528 604 546 c 0,7,8
 522 659 522 659 411.5 808 c 128,-1,9
 301 957 301 957 231 1052 c 0,10,11
 190 1106 190 1106 156.5 1135.5 c 128,-1,12
 123 1165 123 1165 74 1190 c 0,13,14
 48 1204 48 1204 12.5 1213 c 128,-1,15
 -23 1222 -23 1222 -43 1222 c 0,16,17
 -51 1222 -51 1222 -55.5 1247 c 128,-1,18
 -60 1272 -60 1272 -53 1280 c 1,19,20
 -19 1279 -19 1279 29.5 1276 c 128,-1,21
 78 1273 78 1273 116 1271.5 c 128,-1,22
 154 1270 154 1270 198 1270 c 0,23,24
 254 1270 254 1270 453 1280 c 1,25,26
 459 1271 459 1271 462.5 1246.5 c 128,-1,27
 466 1222 466 1222 459 1222 c 0,28,29
 440 1222 440 1222 415.5 1217.5 c 128,-1,30
 391 1213 391 1213 368.5 1197.5 c 128,-1,31
 346 1182 346 1182 350 1158 c 0,32,33
 354 1137 354 1137 385 1098 c 2,34,-1
 747 622 l 1,35,36
 795 749 795 749 851 917.5 c 128,-1,37
 907 1086 907 1086 919 1140 c 0,38,39
 922 1158 922 1158 920 1170 c 0,40,41
 919 1178 919 1178 904 1188.5 c 128,-1,42
 889 1199 889 1199 850.5 1209.5 c 128,-1,43
 812 1220 812 1220 761 1220 c 0,44,45
 757 1220 757 1220 751 1247 c 128,-1,46
 745 1274 745 1274 747 1278 c 1,47,48
 934 1268 934 1268 955 1268 c 0,49,50
 1002 1268 1002 1268 1036 1269.5 c 128,-1,51
 1070 1271 1070 1271 1108.5 1274 c 128,-1,52
 1147 1277 1147 1277 1173 1278 c 1,53,54
 1178 1269 1178 1269 1180.5 1244.5 c 128,-1,55
 1183 1220 1183 1220 1179 1220 c 0,56,57
 1165 1220 1165 1220 1150 1218.5 c 128,-1,58
 1135 1217 1135 1217 1105 1210.5 c 128,-1,59
 1075 1204 1075 1204 1050.5 1186 c 128,-1,60
 1026 1168 1026 1168 1015 1140 c 0,61,62
 973 1033 973 1033 802 558 c 0,63,64
 797 543 797 543 800 510 c 1,65,-1
 992 510 l 1,66,67
 1008 499 1008 499 1007 483 c 128,-1,68
 1006 467 1006 467 999.5 454 c 128,-1,69
 993 441 993 441 985 436 c 1,70,-1
 813 436 l 1,71,72
 820 393 820 393 828 350 c 1,73,-1
 1021 350 l 1,74,75
 1037 339 1037 339 1035.5 323 c 128,-1,76
 1034 307 1034 307 1027.5 294 c 128,-1,77
 1021 281 1021 281 1014 276 c 1,78,-1
 840 276 l 1,79,80
 847 232 l 0,81,82
 867 116 867 116 884 84 c 0,83,84
 890 70 890 70 943.5 61 c 128,-1,85
 997 52 997 52 1027 52 c 1,86,87
 1034 44 1034 44 1038.5 23 c 128,-1,88
 1043 2 1043 2 1037 -6 c 1,89,90
 830 4 830 4 802 4 c 0,91,92
 771 4 771 4 567 -6 c 1,93,94
 559 2 559 2 556 23 c 128,-1,95
 553 44 553 44 557 52 c 1,96,97
 587 52 587 52 637.5 61 c 128,-1,98
 688 70 688 70 690 84 c 0,99,100
 694 116 694 116 673 232 c 2,101,-1
 666 276 l 1,102,-1
 470 276 l 1,103,104
 459 285 459 285 471 317.5 c 128,-1,105
 483 350 483 350 497 350 c 2,106,-1
 653 350 l 1,107,-1
 637 436 l 1,0,-1
EndSplineSet
Validated: 33
EndChar

StartChar: brokenbar
Encoding: 166 166 103
Width: 428
GlyphClass: 2
Flags: W
LayerCount: 4
Fore
SplineSet
240 800 m 2,0,1
 241 790 241 790 202.5 780 c 128,-1,2
 164 770 164 770 153 770 c 0,3,4
 148 770 148 770 145.5 771.5 c 128,-1,5
 143 773 143 773 142 774.5 c 128,-1,6
 141 776 141 776 141 780.5 c 128,-1,7
 141 785 141 785 140 786 c 2,8,-1
 12 1514 l 2,9,10
 8 1526 8 1526 19 1530 c 0,11,12
 51 1540 51 1540 94 1540 c 0,13,14
 102 1540 102 1540 106.5 1537 c 128,-1,15
 111 1534 111 1534 111 1531 c 2,16,-1
 112 1528 l 1,17,-1
 240 800 l 2,0,1
320 -230 m 2,18,-1
 191 498 l 2,19,20
 187 510 187 510 198 514 c 0,21,22
 230 524 230 524 273 524 c 0,23,24
 281 524 281 524 285.5 521 c 128,-1,25
 290 518 290 518 290 515 c 2,26,-1
 291 512 l 1,27,-1
 419 -216 l 2,28,29
 420 -226 420 -226 381.5 -236 c 128,-1,30
 343 -246 343 -246 332 -246 c 0,31,32
 327 -246 327 -246 324.5 -244.5 c 128,-1,33
 322 -243 322 -243 321 -241.5 c 128,-1,34
 320 -240 320 -240 320 -235.5 c 128,-1,35
 320 -231 320 -231 320 -230 c 2,18,-1
EndSplineSet
Validated: 1
EndChar

StartChar: section
Encoding: 167 167 104
Width: 882
GlyphClass: 2
Flags: W
LayerCount: 4
Fore
SplineSet
405 -156 m 0,0,1
 360 -156 360 -156 320 -140 c 1,2,3
 304 -116 304 -116 299 -88 c 0,4,5
 295 -66 295 -66 315 -41 c 128,-1,6
 335 -16 335 -16 358 -16 c 0,7,8
 370 -16 370 -16 382 -19 c 128,-1,9
 394 -22 394 -22 400 -24 c 128,-1,10
 406 -26 406 -26 419 -32.5 c 128,-1,11
 432 -39 432 -39 434 -40 c 0,12,13
 469 -56 469 -56 501 -56 c 0,14,15
 535 -56 535 -56 569 -45.5 c 128,-1,16
 603 -35 603 -35 626.5 -9 c 128,-1,17
 650 17 650 17 644 52 c 0,18,19
 633 113 633 113 542.5 205 c 128,-1,20
 452 297 452 297 342 384 c 0,21,22
 289 426 289 426 246 465.5 c 128,-1,23
 203 505 203 505 157 558 c 128,-1,24
 111 611 111 611 79.5 671 c 128,-1,25
 48 731 48 731 38 792 c 0,26,27
 20 892 20 892 94 1031 c 0,28,29
 155 1146 155 1146 209 1200 c 0,30,31
 218 1211 218 1211 228 1222 c 0,32,33
 315 1306 315 1306 479 1306 c 0,34,35
 524 1306 524 1306 564 1290 c 1,36,37
 580 1266 580 1266 585 1238 c 0,38,39
 589 1216 589 1216 569 1191 c 128,-1,40
 549 1166 549 1166 526 1166 c 0,41,42
 514 1166 514 1166 502 1169 c 128,-1,43
 490 1172 490 1172 484 1174 c 128,-1,44
 478 1176 478 1176 465 1182.5 c 128,-1,45
 452 1189 452 1189 450 1190 c 0,46,47
 415 1206 415 1206 383 1206 c 0,48,49
 349 1206 349 1206 315 1195.5 c 128,-1,50
 281 1185 281 1185 257.5 1159 c 128,-1,51
 234 1133 234 1133 240 1098 c 0,52,53
 251 1037 251 1037 341.5 945 c 128,-1,54
 432 853 432 853 542 766 c 0,55,56
 595 724 595 724 638 684.5 c 128,-1,57
 681 645 681 645 727 592 c 128,-1,58
 773 539 773 539 804.5 479 c 128,-1,59
 836 419 836 419 846 358 c 0,60,61
 864 258 864 258 790 119 c 0,62,63
 729 4 729 4 675 -50 c 0,64,65
 666 -61 666 -61 656 -72 c 0,66,67
 569 -156 569 -156 405 -156 c 0,0,1
725 103 m 1,68,69
 726 105 726 105 727 106 c 0,70,71
 740 134 740 134 743.5 146.5 c 128,-1,72
 747 159 747 159 753 181 c 128,-1,73
 759 203 759 203 758.5 224 c 128,-1,74
 758 245 758 245 754 270 c 0,75,76
 720 463 720 463 459 670 c 0,77,78
 453 674 453 674 416 703 c 128,-1,79
 379 732 379 732 368 741 c 128,-1,80
 357 750 357 750 324 778.5 c 128,-1,81
 291 807 291 807 277.5 822 c 128,-1,82
 264 837 264 837 239.5 864.5 c 128,-1,83
 215 892 215 892 203 913 c 128,-1,84
 191 934 191 934 179 961 c 128,-1,85
 167 988 167 988 163 1014 c 0,86,87
 160 1031 160 1031 159 1047 c 1,88,89
 158 1045 158 1045 157 1044 c 0,90,91
 144 1016 144 1016 140.5 1003.5 c 128,-1,92
 137 991 137 991 131 969 c 128,-1,93
 125 947 125 947 125.5 926 c 128,-1,94
 126 905 126 905 130 880 c 0,95,96
 164 687 164 687 425 480 c 0,97,98
 431 476 431 476 468 447 c 128,-1,99
 505 418 505 418 516 409 c 128,-1,100
 527 400 527 400 560 371.5 c 128,-1,101
 593 343 593 343 606.5 328 c 128,-1,102
 620 313 620 313 644.5 285.5 c 128,-1,103
 669 258 669 258 681 237 c 128,-1,104
 693 216 693 216 705 189 c 128,-1,105
 717 162 717 162 721 136 c 0,106,107
 724 119 724 119 725 103 c 1,68,69
EndSplineSet
Validated: 33
EndChar

StartChar: copyright
Encoding: 169 169 106
Width: 1318
GlyphClass: 2
Flags: W
LayerCount: 4
Fore
SplineSet
935 552 m 0,0,1
 937 543 937 543 931 487.5 c 128,-1,2
 925 432 925 432 917 428 c 0,3,4
 830 390 830 390 712 390 c 0,5,6
 591 390 591 390 494 471.5 c 128,-1,7
 397 553 397 553 376 672 c 0,8,9
 354 794 354 794 419 880 c 128,-1,10
 484 966 484 966 606 966 c 0,11,12
 731 966 731 966 837 928 c 1,13,14
 889 814 889 814 890 806 c 0,15,16
 891 799 891 799 882 793.5 c 128,-1,17
 873 788 873 788 862 788 c 0,18,19
 856 788 856 788 847 792 c 1,20,21
 842 805 842 805 829.5 820 c 128,-1,22
 817 835 817 835 794.5 854 c 128,-1,23
 772 873 772 873 732 885.5 c 128,-1,24
 692 898 692 898 642 898 c 0,25,26
 562 898 562 898 517 836 c 128,-1,27
 472 774 472 774 487 690 c 0,28,29
 507 578 507 578 583.5 516 c 128,-1,30
 660 454 660 454 739 454 c 0,31,32
 842 454 842 454 876 492 c 0,33,34
 884 502 884 502 888 518.5 c 128,-1,35
 892 535 892 535 892.5 546.5 c 128,-1,36
 893 558 893 558 894 558 c 0,37,38
 931 558 931 558 935 552 c 0,0,1
178 684 m 128,-1,40
 201 553 201 553 285 441.5 c 128,-1,41
 369 330 369 330 491.5 265 c 128,-1,42
 614 200 614 200 745 200 c 128,-1,43
 876 200 876 200 976 265 c 128,-1,44
 1076 330 1076 330 1121.5 441.5 c 128,-1,45
 1167 553 1167 553 1144 684 c 128,-1,46
 1121 815 1121 815 1036.5 926.5 c 128,-1,47
 952 1038 952 1038 829 1103 c 128,-1,48
 706 1168 706 1168 575 1168 c 128,-1,49
 444 1168 444 1168 344.5 1103 c 128,-1,50
 245 1038 245 1038 200 926.5 c 128,-1,39
 155 815 155 815 178 684 c 128,-1,40
112 684 m 128,-1,52
 72 910 72 910 204 1070 c 128,-1,53
 336 1230 336 1230 562 1230 c 0,54,55
 711 1230 711 1230 849.5 1157 c 128,-1,56
 988 1084 988 1084 1084 958 c 128,-1,57
 1180 832 1180 832 1206 684 c 128,-1,58
 1232 536 1232 536 1181 410 c 128,-1,59
 1130 284 1130 284 1016.5 211 c 128,-1,60
 903 138 903 138 754 138 c 0,61,62
 528 138 528 138 340 298 c 128,-1,51
 152 458 152 458 112 684 c 128,-1,52
EndSplineSet
Validated: 33
EndChar

StartChar: ordfeminine
Encoding: 170 170 107
Width: 690
GlyphClass: 2
Flags: W
LayerCount: 4
Fore
SplineSet
343 572 m 0,0,1
 376 572 376 572 414.5 599.5 c 128,-1,2
 453 627 453 627 451 640 c 2,3,-1
 421 810 l 1,4,5
 409 806 409 806 381 797 c 128,-1,6
 353 788 353 788 331.5 781 c 128,-1,7
 310 774 310 774 300 770 c 0,8,9
 220 736 220 736 232 670 c 0,10,11
 239 631 239 631 271.5 601.5 c 128,-1,12
 304 572 304 572 343 572 c 0,0,1
322 1112 m 0,13,14
 382 1112 382 1112 437.5 1057 c 128,-1,15
 493 1002 493 1002 507 924 c 2,16,-1
 557 638 l 2,17,18
 569 572 569 572 611 572 c 0,19,20
 619 572 619 572 627 574.5 c 128,-1,21
 635 577 635 577 640 580 c 128,-1,22
 645 583 645 583 650 586 c 2,23,-1
 654 590 l 2,24,25
 660 590 660 590 662 580 c 0,26,27
 664 566 664 566 658 554 c 0,28,29
 646 539 646 539 615 519.5 c 128,-1,30
 584 500 584 500 564 500 c 0,31,32
 535 500 535 500 505.5 528 c 128,-1,33
 476 556 476 556 464 590 c 1,34,35
 448 571 448 571 394.5 534.5 c 128,-1,36
 341 498 341 498 310 498 c 0,37,38
 241 498 241 498 186.5 544 c 128,-1,39
 132 590 132 590 120 658 c 0,40,41
 113 697 113 697 129.5 727.5 c 128,-1,42
 146 758 146 758 171 768 c 0,43,44
 387 850 387 850 397 856 c 0,45,46
 407 861 407 861 408.5 866.5 c 128,-1,47
 410 872 410 872 407 890 c 2,48,-1
 400 928 l 2,49,50
 391 978 391 978 352.5 1015 c 128,-1,51
 314 1052 314 1052 260 1052 c 0,52,53
 225 1052 225 1052 211 1033.5 c 128,-1,54
 197 1015 197 1015 196 974 c 0,55,56
 197 908 197 908 144 908 c 0,57,58
 123 908 123 908 106 926 c 128,-1,59
 89 944 89 944 86 966 c 0,60,61
 82 990 82 990 90 1000 c 0,62,63
 124 1039 124 1039 189 1075.5 c 128,-1,64
 254 1112 254 1112 322 1112 c 0,13,14
EndSplineSet
Validated: 33
EndChar

StartChar: guillemotleft
Encoding: 171 171 108
Width: 964
GlyphClass: 2
Flags: W
LayerCount: 4
Fore
SplineSet
414 492 m 0,0,1
 412 506 412 506 418 528 c 1,2,3
 643 680 643 680 780 846 c 1,4,5
 817 835 817 835 828 822 c 1,6,7
 825 792 825 792 739.5 676.5 c 128,-1,8
 654 561 654 561 590 494 c 1,9,10
 678 427 678 427 804.5 311.5 c 128,-1,11
 931 196 931 196 944 166 c 1,12,13
 937 153 937 153 904 142 c 1,14,15
 709 308 709 308 430 460 c 1,16,17
 417 475 417 475 414 492 c 0,0,1
54 492 m 0,18,19
 52 506 52 506 58 528 c 1,20,21
 283 680 283 680 420 846 c 1,22,23
 457 835 457 835 468 822 c 1,24,25
 465 792 465 792 379.5 676.5 c 128,-1,26
 294 561 294 561 230 494 c 1,27,28
 318 427 318 427 444.5 311.5 c 128,-1,29
 571 196 571 196 584 166 c 1,30,31
 577 153 577 153 544 142 c 1,32,33
 349 308 349 308 70 460 c 1,34,35
 57 475 57 475 54 492 c 0,18,19
EndSplineSet
Validated: 1
EndChar

StartChar: logicalnot
Encoding: 172 172 109
Width: 1174
GlyphClass: 2
Flags: W
LayerCount: 4
Fore
SplineSet
985 840 m 1,0,-1
 1074 338 l 2,1,2
 1072 336 1072 336 1059 329.5 c 128,-1,3
 1046 323 1046 323 1024.5 315.5 c 128,-1,4
 1003 308 1003 308 985 308 c 0,5,6
 965 310 965 310 956 322 c 1,7,-1
 885 728 l 1,8,-1
 75 728 l 2,9,10
 63 728 63 728 59 748 c 0,11,12
 53 840 53 840 73 840 c 2,13,-1
 985 840 l 1,0,-1
EndSplineSet
Validated: 33
EndChar

StartChar: degree
Encoding: 176 176 113
Width: 548
GlyphClass: 2
Flags: W
LayerCount: 4
Fore
SplineSet
150 1072 m 128,-1,1
 159 1021 159 1021 202 984.5 c 128,-1,2
 245 948 245 948 296 948 c 128,-1,3
 347 948 347 948 376 984.5 c 128,-1,4
 405 1021 405 1021 396 1072 c 128,-1,5
 387 1123 387 1123 345 1158.5 c 128,-1,6
 303 1194 303 1194 252 1194 c 128,-1,7
 201 1194 201 1194 171 1158.5 c 128,-1,0
 141 1123 141 1123 150 1072 c 128,-1,1
76 1072 m 128,-1,9
 62 1153 62 1153 110 1210.5 c 128,-1,10
 158 1268 158 1268 239 1268 c 128,-1,11
 320 1268 320 1268 388 1210.5 c 128,-1,12
 456 1153 456 1153 470 1072 c 128,-1,13
 484 991 484 991 437 932.5 c 128,-1,14
 390 874 390 874 309 874 c 128,-1,15
 228 874 228 874 159 932.5 c 128,-1,8
 90 991 90 991 76 1072 c 128,-1,9
EndSplineSet
Validated: 33
EndChar

StartChar: plusminus
Encoding: 177 177 114
Width: 1096
GlyphClass: 2
Flags: W
LayerCount: 4
Fore
SplineSet
178 124 m 1,0,1
 1090 124 l 0,2,3
 1097 124 1097 124 1103.5 117.5 c 128,-1,4
 1110 111 1110 111 1112 100 c 0,5,6
 1116 76 1116 76 1111.5 50.5 c 128,-1,7
 1107 25 1107 25 1096 12 c 1,8,-1
 180 12 l 2,9,10
 168 12 168 12 164 32 c 0,11,12
 162 45 162 45 164.5 79.5 c 128,-1,13
 167 114 167 114 178 124 c 1,0,1
73 722 m 1,14,-1
 465 722 l 1,15,-1
 394 1122 l 1,16,17
 449 1144 449 1144 476 1144 c 0,18,19
 485 1144 485 1144 492 1141 c 128,-1,20
 499 1138 499 1138 502 1135 c 2,21,-1
 504 1132 l 1,22,-1
 577 722 l 1,23,-1
 985 722 l 2,24,25
 992 722 992 722 998.5 715.5 c 128,-1,26
 1005 709 1005 709 1007 698 c 0,27,28
 1011 674 1011 674 1006 648.5 c 128,-1,29
 1001 623 1001 623 990 610 c 1,30,-1
 596 610 l 1,31,-1
 668 206 l 1,32,33
 643 184 643 184 585 184 c 0,34,35
 575 184 575 184 566 190 c 128,-1,36
 557 196 557 196 556 202 c 2,37,-1
 484 610 l 1,38,-1
 74 610 l 2,39,40
 62 610 62 610 59 630 c 0,41,42
 57 643 57 643 59.5 677.5 c 128,-1,43
 62 712 62 712 73 722 c 1,14,-1
EndSplineSet
Validated: 1
EndChar

StartChar: uni00B2
Encoding: 178 178 115
Width: 716
GlyphClass: 2
Flags: W
LayerCount: 4
Fore
SplineSet
673 720 m 1,0,1
 669 699 669 699 657.5 622 c 128,-1,2
 646 545 646 545 636 508 c 1,3,-1
 172 508 l 2,4,5
 163 508 163 508 152.5 517 c 128,-1,6
 142 526 142 526 144 532 c 0,7,8
 165 560 165 560 214 620 c 128,-1,9
 263 680 263 680 303 733.5 c 128,-1,10
 343 787 343 787 370 836 c 0,11,12
 443 965 443 965 427 1060 c 0,13,14
 416 1124 416 1124 374 1164 c 128,-1,15
 332 1204 332 1204 270 1204 c 0,16,17
 228 1204 228 1204 195 1187 c 128,-1,18
 162 1170 162 1170 147 1152.5 c 128,-1,19
 132 1135 132 1135 113 1106 c 0,20,21
 108 1100 108 1100 90 1116 c 128,-1,22
 72 1132 72 1132 73 1140 c 0,23,24
 98 1203 98 1203 155 1248.5 c 128,-1,25
 212 1294 212 1294 278 1294 c 0,26,27
 383 1294 383 1294 460 1234 c 128,-1,28
 537 1174 537 1174 553 1080 c 0,29,30
 569 988 569 988 497 878 c 0,31,32
 474 843 474 843 293 618 c 1,33,-1
 533 618 l 2,34,35
 556 618 556 618 574 627 c 128,-1,36
 592 636 592 636 602 651 c 128,-1,37
 612 666 612 666 618 679 c 128,-1,38
 624 692 624 692 628.5 708 c 128,-1,39
 633 724 633 724 634 726 c 0,40,41
 635 729 635 729 643 732 c 0,42,43
 662 732 662 732 673 720 c 1,0,1
EndSplineSet
Validated: 33
EndChar

StartChar: mu
Encoding: 181 181 118
Width: 1082
GlyphClass: 2
Flags: W
LayerCount: 4
Fore
SplineSet
246 446 m 1,0,1
 269 315 269 315 311.5 221.5 c 128,-1,2
 354 128 354 128 404 128 c 0,3,4
 452 128 452 128 492.5 158 c 128,-1,5
 533 188 533 188 559.5 238 c 128,-1,6
 586 288 586 288 603.5 341.5 c 128,-1,7
 621 395 621 395 631 454 c 1,8,-1
 606 596 l 1,9,-1
 564 834 l 1,10,11
 582 874 582 874 605 874 c 0,12,13
 623 874 623 874 672 846 c 128,-1,14
 721 818 721 818 724 800 c 0,15,16
 726 790 726 790 727 772.5 c 128,-1,17
 728 755 728 755 729 726 c 2,18,-1
 729 668 l 2,19,20
 730 639 730 639 730.5 588 c 128,-1,21
 731 537 731 537 732 492 c 2,22,-1
 730 390 l 1,23,24
 750 278 750 278 800 205 c 128,-1,25
 850 132 850 132 916 132 c 0,26,27
 971 132 971 132 1007 192 c 1,28,29
 1014 192 1014 192 1028 174 c 0,30,31
 1036 162 1036 162 1038 152 c 0,32,33
 1030 85 1030 85 984.5 38.5 c 128,-1,34
 939 -8 939 -8 880 -8 c 0,35,36
 847 -7 847 -7 814 29.5 c 128,-1,37
 781 66 781 66 757.5 120 c 128,-1,38
 734 174 734 174 720 214 c 128,-1,39
 706 254 706 254 699 284 c 1,40,41
 685 227 685 227 663.5 177 c 128,-1,42
 642 127 642 127 611 81.5 c 128,-1,43
 580 36 580 36 536 9 c 128,-1,44
 492 -18 492 -18 442 -18 c 0,45,46
 353 -18 353 -18 277 202 c 1,47,48
 279 197 279 197 288 146 c 0,49,50
 292 120 292 120 299 82 c 0,51,52
 300 74 300 74 301 67 c 0,53,54
 320 -40 320 -40 350 -170 c 0,55,56
 382 -309 382 -309 420 -414 c 1,57,58
 402 -454 402 -454 379 -454 c 0,59,60
 361 -454 361 -454 312 -426 c 128,-1,61
 263 -398 263 -398 260 -380 c 0,62,63
 249 -317 249 -317 210.5 -21 c 128,-1,64
 172 275 172 275 163 408 c 0,65,66
 159 432 159 432 142.5 502.5 c 128,-1,67
 126 573 126 573 122 596 c 2,68,-1
 80 834 l 1,69,70
 98 874 98 874 121 874 c 0,71,72
 139 874 139 874 188 846 c 128,-1,73
 237 818 237 818 240 800 c 0,74,75
 256 707 256 707 248 492 c 2,76,-1
 246 446 l 1,0,1
EndSplineSet
Validated: 33
EndChar

StartChar: paragraph
Encoding: 182 182 119
Width: 968
GlyphClass: 2
Flags: W
LayerCount: 4
Fore
SplineSet
641 666 m 1,0,1
 545 1212 l 1,2,3
 533 1222 533 1222 485 1222 c 0,4,5
 441 1222 441 1222 431 1210 c 1,6,7
 529 656 l 1,8,9
 547 656 547 656 592 659 c 128,-1,10
 637 662 637 662 641 666 c 1,0,1
653 584 m 1,11,12
 645 583 645 583 621.5 581.5 c 128,-1,13
 598 580 598 580 578 578 c 2,14,-1
 543 576 l 1,15,-1
 604 232 l 2,16,17
 624 116 624 116 636 84 c 0,18,19
 640 72 640 72 688 72 c 0,20,21
 738 72 738 72 738 84 c 0,22,23
 738 116 738 116 718 232 c 2,24,-1
 653 584 l 1,11,12
731 598 m 1,25,-1
 796 232 l 2,26,27
 816 116 816 116 832 84 c 0,28,29
 839 69 839 69 890.5 57.5 c 128,-1,30
 942 46 942 46 968 46 c 0,31,32
 971 46 971 46 975.5 20.5 c 128,-1,33
 980 -5 980 -5 978 -8 c 0,34,35
 928 -6 928 -6 853 -1 c 128,-1,36
 778 4 778 4 708 4 c 0,37,38
 670 4 670 4 432 -8 c 1,39,40
 427 0 427 0 423.5 20.5 c 128,-1,41
 420 41 420 41 426 46 c 1,42,43
 447 46 447 46 493.5 58 c 128,-1,44
 540 70 540 70 542 84 c 0,45,46
 546 116 546 116 526 232 c 2,47,-1
 465 574 l 1,48,49
 374 574 374 574 291.5 611 c 128,-1,50
 209 648 209 648 153.5 704 c 128,-1,51
 98 760 98 760 62.5 821.5 c 128,-1,52
 27 883 27 883 17 938 c 0,53,54
 -2 1043 -2 1043 34.5 1128.5 c 128,-1,55
 71 1214 71 1214 141.5 1259 c 128,-1,56
 212 1304 212 1304 295 1304 c 0,57,58
 354 1304 354 1304 392.5 1300 c 128,-1,59
 431 1296 431 1296 490 1296 c 0,60,61
 550 1296 550 1296 610 1298.5 c 128,-1,62
 670 1301 670 1301 701 1304 c 2,63,-1
 730 1306 l 1,64,65
 738 1298 738 1298 741.5 1275.5 c 128,-1,66
 745 1253 745 1253 738 1248 c 1,67,68
 710 1248 710 1248 673 1236 c 128,-1,69
 636 1224 636 1224 631 1208 c 0,70,71
 629 1187 629 1187 648 1080 c 2,72,-1
 719 678 l 1,73,74
 723 677 723 677 746.5 683.5 c 128,-1,75
 770 690 770 690 792 697 c 2,76,-1
 812 704 l 1,77,78
 832 704 832 704 834 692 c 0,79,80
 835 678 835 678 818 650.5 c 128,-1,81
 801 623 801 623 789 618 c 0,82,83
 755 601 755 601 731 598 c 1,25,-1
EndSplineSet
Validated: 33
EndChar

StartChar: periodcentered
Encoding: 183 183 120
Width: 448
GlyphClass: 2
Flags: W
LayerCount: 4
Fore
SplineSet
107.5 528 m 128,-1,1
 99 576 99 576 127 610 c 128,-1,2
 155 644 155 644 203 644 c 128,-1,3
 251 644 251 644 291 610 c 128,-1,4
 331 576 331 576 339.5 528 c 128,-1,5
 348 480 348 480 320.5 445 c 128,-1,6
 293 410 293 410 245 410 c 128,-1,7
 197 410 197 410 156.5 445 c 128,-1,0
 116 480 116 480 107.5 528 c 128,-1,1
EndSplineSet
Validated: 33
EndChar

StartChar: uni00B9
Encoding: 185 185 122
Width: 584
GlyphClass: 2
Flags: W
LayerCount: 4
Fore
SplineSet
223 1036 m 2,0,1
 212 1099 212 1099 199 1118.5 c 128,-1,2
 186 1138 186 1138 167 1138 c 0,3,4
 146 1138 146 1138 61 1106 c 1,5,6
 41 1115 41 1115 37 1140 c 0,7,8
 35 1153 35 1153 40 1156 c 0,9,10
 126 1195 126 1195 193.5 1232 c 128,-1,11
 261 1269 261 1269 287 1286.5 c 128,-1,12
 313 1304 313 1304 314 1304 c 2,13,-1
 318 1304 l 2,14,15
 327 1304 327 1304 350 1258 c 1,16,17
 347 1174 347 1174 360 1096 c 2,18,-1
 434 680 l 2,19,20
 444 623 444 623 466 586 c 0,21,22
 472 577 472 577 515 567.5 c 128,-1,23
 558 558 558 558 575 558 c 0,24,25
 579 558 579 558 583 535 c 128,-1,26
 587 512 587 512 584 506 c 1,27,28
 559 507 559 507 497.5 509.5 c 128,-1,29
 436 512 436 512 391 512 c 128,-1,30
 346 512 346 512 280.5 509.5 c 128,-1,31
 215 507 215 507 192 506 c 1,32,33
 183 510 183 510 179.5 533 c 128,-1,34
 176 556 176 556 184 556 c 0,35,36
 206 556 206 556 247 565.5 c 128,-1,37
 288 575 288 575 291 584 c 0,38,39
 298 615 298 615 286 676 c 2,40,-1
 223 1036 l 2,0,1
EndSplineSet
Validated: 33
EndChar

StartChar: ordmasculine
Encoding: 186 186 123
Width: 776
GlyphClass: 2
Flags: W
LayerCount: 4
Fore
SplineSet
328 1060 m 0,0,1
 248 1060 248 1060 220.5 989 c 128,-1,2
 193 918 193 918 210 822 c 0,3,4
 229 712 229 712 295.5 627 c 128,-1,5
 362 542 362 542 454 542 c 0,6,7
 530 542 530 542 556 615 c 128,-1,8
 582 688 582 688 565 782 c 0,9,10
 553 851 553 851 523.5 912 c 128,-1,11
 494 973 494 973 442 1016.5 c 128,-1,12
 390 1060 390 1060 328 1060 c 0,0,1
338 1108 m 0,13,14
 468 1108 468 1108 572.5 1019.5 c 128,-1,15
 677 931 677 931 699 806 c 0,16,17
 721 680 721 680 648 587 c 128,-1,18
 575 494 575 494 446 494 c 0,19,20
 316 494 316 494 207.5 583.5 c 128,-1,21
 99 673 99 673 77 798 c 0,22,23
 54 926 54 926 129.5 1017 c 128,-1,24
 205 1108 205 1108 338 1108 c 0,13,14
EndSplineSet
Validated: 33
EndChar

StartChar: guillemotright
Encoding: 187 187 124
Width: 964
GlyphClass: 2
Flags: W
LayerCount: 4
Fore
SplineSet
554 492 m 0,0,1
 557 475 557 475 550 460 c 1,2,3
 325 308 325 308 188 142 c 1,4,5
 151 153 151 153 140 166 c 1,6,7
 143 196 143 196 228.5 311.5 c 128,-1,8
 314 427 314 427 378 494 c 1,9,10
 290 561 290 561 163.5 676.5 c 128,-1,11
 37 792 37 792 24 822 c 1,12,13
 31 835 31 835 64 846 c 1,14,15
 259 680 259 680 538 528 c 1,16,17
 552 506 552 506 554 492 c 0,0,1
914 492 m 0,18,19
 917 475 917 475 910 460 c 1,20,21
 685 308 685 308 548 142 c 1,22,23
 511 153 511 153 500 166 c 1,24,25
 503 196 503 196 588.5 311.5 c 128,-1,26
 674 427 674 427 738 494 c 1,27,28
 650 561 650 561 523.5 676.5 c 128,-1,29
 397 792 397 792 384 822 c 1,30,31
 391 835 391 835 424 846 c 1,32,33
 619 680 619 680 898 528 c 1,34,35
 912 506 912 506 914 492 c 0,18,19
EndSplineSet
Validated: 1
EndChar

StartChar: onequarter
Encoding: 188 188 125
Width: 1398
GlyphClass: 2
Flags: W
LayerCount: 4
Fore
SplineSet
1180 814 m 0,0,1
 1188 814 1188 814 1194 806.5 c 128,-1,2
 1200 799 1200 799 1202 790 c 2,3,-1
 1290 292 l 1,4,5
 1360 292 l 1,6,7
 1376 279 1376 279 1384.5 256.5 c 128,-1,8
 1393 234 1393 234 1386 212 c 1,9,-1
 1310 212 l 1,10,-1
 1347 0 l 1,11,12
 1342 -6 1342 -6 1288 -6 c 0,13,14
 1236 -6 1236 -6 1223 4 c 1,15,-1
 1186 212 l 1,16,-1
 856 212 l 2,17,18
 838 215 838 215 830 244 c 1,19,-1
 1144 790 l 2,20,21
 1159 814 1159 814 1180 814 c 0,0,1
1170 302 m 1,22,23
 1116 610 l 1,24,25
 1083 557 1083 557 1029.5 458 c 128,-1,26
 976 359 976 359 942 302 c 1,27,-1
 1170 302 l 1,22,23
271 1068 m 2,28,-1
 341 672 l 2,29,30
 351 616 351 616 372 574 c 0,31,32
 377 565 377 565 418.5 555.5 c 128,-1,33
 460 546 460 546 477 546 c 1,34,35
 485 536 485 536 487 521.5 c 128,-1,36
 489 507 489 507 487 502 c 1,37,38
 457 503 457 503 407.5 505.5 c 128,-1,39
 358 508 358 508 314 508 c 128,-1,40
 270 508 270 508 214 505.5 c 128,-1,41
 158 503 158 503 131 502 c 1,42,43
 123 507 123 507 120.5 523.5 c 128,-1,44
 118 540 118 540 123 546 c 1,45,46
 144 546 144 546 180 556 c 128,-1,47
 216 566 216 566 218 576 c 0,48,49
 227 618 227 618 218 668 c 2,50,-1
 152 1040 l 2,51,52
 147 1069 147 1069 134 1089.5 c 128,-1,53
 121 1110 121 1110 106 1110 c 0,54,55
 96 1110 96 1110 83.5 1106.5 c 128,-1,56
 71 1103 71 1103 47 1093 c 128,-1,57
 23 1083 23 1083 15 1080 c 1,58,59
 -3 1088 -3 1088 -17 1116 c 1,60,61
 7 1133 7 1133 224 1276 c 1,62,63
 236 1273 236 1273 245 1263.5 c 128,-1,64
 254 1254 254 1254 256 1244 c 0,65,66
 257 1146 257 1146 271 1068 c 2,28,-1
488 -25 m 0,67,68
 479 -23 479 -23 472 -19 c 128,-1,69
 465 -15 465 -15 463 -12 c 2,70,-1
 462 -8 l 1,71,-1
 936 1273 l 2,72,73
 936 1276 936 1276 944 1280.5 c 128,-1,74
 952 1285 952 1285 965 1288 c 128,-1,75
 978 1291 978 1291 995 1288 c 0,76,77
 1011 1285 1011 1285 1014 1268 c 1,78,-1
 547 4 l 2,79,80
 541 -8 541 -8 526 -19 c 128,-1,81
 511 -30 511 -30 488 -25 c 0,67,68
EndSplineSet
Validated: 33
EndChar

StartChar: onehalf
Encoding: 189 189 126
Width: 1500
GlyphClass: 2
Flags: W
LayerCount: 4
Fore
SplineSet
1111 784 m 0,0,1
 1216 784 1216 784 1293 724 c 128,-1,2
 1370 664 1370 664 1387 570 c 0,3,4
 1403 478 1403 478 1330 368 c 0,5,6
 1307 333 1307 333 1126 108 c 1,7,-1
 1366 108 l 2,8,9
 1389 108 1389 108 1407 117 c 128,-1,10
 1425 126 1425 126 1435.5 141 c 128,-1,11
 1446 156 1446 156 1451.5 169 c 128,-1,12
 1457 182 1457 182 1462 198 c 128,-1,13
 1467 214 1467 214 1467 216 c 0,14,15
 1468 219 1468 219 1476 222 c 0,16,17
 1495 222 1495 222 1506 210 c 1,18,19
 1502 189 1502 189 1490.5 112 c 128,-1,20
 1479 35 1479 35 1470 -2 c 1,21,-1
 1006 -2 l 2,22,23
 997 -2 997 -2 986.5 7 c 128,-1,24
 976 16 976 16 977 22 c 0,25,26
 987 37 987 37 1070.5 140.5 c 128,-1,27
 1154 244 1154 244 1192 304 c 0,28,29
 1279 445 1279 445 1260 550 c 0,30,31
 1249 614 1249 614 1207 654 c 128,-1,32
 1165 694 1165 694 1103 694 c 0,33,34
 1061 694 1061 694 1028 677 c 128,-1,35
 995 660 995 660 980 642.5 c 128,-1,36
 965 625 965 625 946 596 c 0,37,38
 941 590 941 590 923.5 606 c 128,-1,39
 906 622 906 622 906 630 c 0,40,41
 931 693 931 693 988 738.5 c 128,-1,42
 1045 784 1045 784 1111 784 c 0,0,1
277 1068 m 2,43,-1
 347 672 l 2,44,45
 357 616 357 616 378 574 c 0,46,47
 383 565 383 565 424.5 555.5 c 128,-1,48
 466 546 466 546 483 546 c 1,49,50
 491 536 491 536 493 521.5 c 128,-1,51
 495 507 495 507 493 502 c 1,52,53
 463 503 463 503 413.5 505.5 c 128,-1,54
 364 508 364 508 320 508 c 128,-1,55
 276 508 276 508 220 505.5 c 128,-1,56
 164 503 164 503 137 502 c 1,57,58
 129 507 129 507 126.5 523.5 c 128,-1,59
 124 540 124 540 129 546 c 1,60,61
 150 546 150 546 186 556 c 128,-1,62
 222 566 222 566 224 576 c 0,63,64
 233 618 233 618 224 668 c 2,65,-1
 158 1040 l 2,66,67
 153 1069 153 1069 140 1089.5 c 128,-1,68
 127 1110 127 1110 112 1110 c 0,69,70
 102 1110 102 1110 89.5 1106.5 c 128,-1,71
 77 1103 77 1103 53 1093 c 128,-1,72
 29 1083 29 1083 21 1080 c 1,73,74
 3 1088 3 1088 -11 1116 c 1,75,76
 13 1133 13 1133 230 1276 c 1,77,78
 242 1273 242 1273 251 1263.5 c 128,-1,79
 260 1254 260 1254 262 1244 c 0,80,81
 263 1146 263 1146 277 1068 c 2,43,-1
1016 1268 m 1,82,-1
 549 4 l 2,83,84
 543 -8 543 -8 528 -19 c 128,-1,85
 513 -30 513 -30 490 -25 c 0,86,87
 481 -23 481 -23 474 -19 c 128,-1,88
 467 -15 467 -15 465 -12 c 2,89,-1
 464 -8 l 1,90,-1
 938 1273 l 2,91,92
 938 1276 938 1276 946 1280.5 c 128,-1,93
 954 1285 954 1285 967 1288 c 128,-1,94
 980 1291 980 1291 997 1288 c 0,95,96
 1013 1285 1013 1285 1016 1268 c 1,82,-1
EndSplineSet
Validated: 33
EndChar

StartChar: threequarters
Encoding: 190 190 127
Width: 1400
GlyphClass: 2
Flags: W
LayerCount: 4
Fore
SplineSet
1182 814 m 0,0,1
 1190 814 1190 814 1196.5 806.5 c 128,-1,2
 1203 799 1203 799 1204 790 c 2,3,-1
 1292 292 l 1,4,5
 1362 292 l 1,6,7
 1378 279 1378 279 1386.5 256.5 c 128,-1,8
 1395 234 1395 234 1388 212 c 1,9,-1
 1312 212 l 1,10,-1
 1350 0 l 1,11,12
 1345 -6 1345 -6 1291 -6 c 0,13,14
 1239 -6 1239 -6 1225 4 c 1,15,-1
 1188 212 l 1,16,-1
 858 212 l 2,17,18
 840 215 840 215 833 244 c 1,19,-1
 1146 790 l 2,20,21
 1161 814 1161 814 1182 814 c 0,0,1
1172 302 m 1,22,23
 1118 610 l 1,24,25
 1085 557 1085 557 1031.5 458 c 128,-1,26
 978 359 978 359 944 302 c 1,27,-1
 1172 302 l 1,22,23
200 1292 m 0,28,29
 269 1292 269 1292 328.5 1251 c 128,-1,30
 388 1210 388 1210 401 1138 c 0,31,32
 411 1079 411 1079 382 1035 c 128,-1,33
 353 991 353 991 314 972 c 1,34,35
 365 972 365 972 439.5 916 c 128,-1,36
 514 860 514 860 529 772 c 0,37,38
 551 645 551 645 470 571.5 c 128,-1,39
 389 498 389 498 252 498 c 0,40,41
 216 498 216 498 172.5 506.5 c 128,-1,42
 129 515 129 515 112 528 c 0,43,44
 84 550 84 550 80 576 c 0,45,46
 75 605 75 605 90 623.5 c 128,-1,47
 105 642 105 642 130 642 c 0,48,49
 145 642 145 642 158 634 c 128,-1,50
 171 626 171 626 188.5 608 c 128,-1,51
 206 590 206 590 213 584 c 0,52,53
 248 554 248 554 296 554 c 0,54,55
 361 554 361 554 392 600.5 c 128,-1,56
 423 647 423 647 408 736 c 0,57,58
 395 808 395 808 342.5 858 c 128,-1,59
 290 908 290 908 233 908 c 0,60,61
 217 908 217 908 201 904.5 c 128,-1,62
 185 901 185 901 171 896.5 c 128,-1,63
 157 892 157 892 156 892 c 0,64,65
 149 898 149 898 142 916 c 0,66,67
 138 930 138 930 139 934 c 0,68,69
 216 950 216 950 261 996.5 c 128,-1,70
 306 1043 306 1043 293 1112 c 0,71,72
 286 1151 286 1151 249.5 1182.5 c 128,-1,73
 213 1214 213 1214 174 1214 c 0,74,75
 162 1214 162 1214 150 1212 c 128,-1,76
 138 1210 138 1210 128.5 1206 c 128,-1,77
 119 1202 119 1202 110 1197.5 c 128,-1,78
 101 1193 101 1193 93 1187 c 128,-1,79
 85 1181 85 1181 79.5 1176 c 128,-1,80
 74 1171 74 1171 67.5 1164.5 c 128,-1,81
 61 1158 61 1158 58 1154 c 2,82,-1
 51 1146 l 1,83,-1
 47 1140 l 1,84,85
 42 1142 42 1142 36 1149.5 c 128,-1,86
 30 1157 30 1157 26 1164 c 128,-1,87
 22 1171 22 1171 23 1172 c 0,88,89
 82 1292 82 1292 200 1292 c 0,28,29
1026 1268 m 1,90,-1
 559 4 l 2,91,92
 553 -8 553 -8 538 -19 c 128,-1,93
 523 -30 523 -30 500 -25 c 0,94,95
 491 -23 491 -23 484 -19 c 128,-1,96
 477 -15 477 -15 476 -12 c 2,97,-1
 474 -8 l 1,98,-1
 948 1273 l 2,99,100
 948 1276 948 1276 956 1280.5 c 128,-1,101
 964 1285 964 1285 977 1288 c 128,-1,102
 990 1291 990 1291 1007 1288 c 0,103,104
 1023 1285 1023 1285 1026 1268 c 1,90,-1
EndSplineSet
Validated: 33
EndChar

StartChar: questiondown
Encoding: 191 191 128
Width: 690
GlyphClass: 2
Flags: W
LayerCount: 4
Fore
SplineSet
481 748 m 128,-1,1
 489 703 489 703 461 671.5 c 128,-1,2
 433 640 433 640 388 640 c 128,-1,3
 343 640 343 640 306 671.5 c 128,-1,4
 269 703 269 703 261 748 c 128,-1,5
 253 793 253 793 278.5 826.5 c 128,-1,6
 304 860 304 860 349 860 c 128,-1,7
 394 860 394 860 433.5 826.5 c 128,-1,0
 473 793 473 793 481 748 c 128,-1,1
459 498 m 0,8,9
 487 431 487 431 507 316 c 0,10,11
 514 276 514 276 509.5 241.5 c 128,-1,12
 505 207 505 207 496.5 185 c 128,-1,13
 488 163 488 163 467 140 c 128,-1,14
 446 117 446 117 432.5 106 c 128,-1,15
 419 95 419 95 393 77 c 0,16,17
 384 71 384 71 381 68 c 0,18,19
 345 42 345 42 330 31 c 128,-1,20
 315 20 315 20 290.5 -2.5 c 128,-1,21
 266 -25 266 -25 257.5 -41.5 c 128,-1,22
 249 -58 249 -58 243.5 -83 c 128,-1,23
 238 -108 238 -108 242 -136 c 0,24,25
 255 -211 255 -211 307 -255.5 c 128,-1,26
 359 -300 359 -300 419 -300 c 128,-1,27
 479 -300 479 -300 522 -279 c 128,-1,28
 565 -258 565 -258 584 -258 c 0,29,30
 611 -258 611 -258 646.5 -286 c 128,-1,31
 682 -314 682 -314 690 -358 c 0,32,33
 699 -407 699 -407 685 -432 c 1,34,35
 659 -446 659 -446 591 -446 c 0,36,37
 550 -446 550 -446 496.5 -430.5 c 128,-1,38
 443 -415 443 -415 384 -383 c 128,-1,39
 325 -351 325 -351 273 -308 c 128,-1,40
 221 -265 221 -265 182.5 -204 c 128,-1,41
 144 -143 144 -143 132 -76 c 0,42,43
 114 27 114 27 147 96.5 c 128,-1,44
 180 166 180 166 280 230 c 0,45,46
 318 255 318 255 363 296.5 c 128,-1,47
 408 338 408 338 414 354 c 0,48,49
 418 365 418 365 417.5 384.5 c 128,-1,50
 417 404 417 404 415.5 417.5 c 128,-1,51
 414 431 414 431 408.5 459 c 128,-1,52
 403 487 403 487 401 494 c 0,53,54
 409 518 409 518 429 520 c 1,55,56
 450 512 450 512 459 498 c 0,8,9
EndSplineSet
Validated: 33
Substitution2: "'smcp' Lowercase to Small Capitals lookup 12 subtable" questiondown.sc
EndChar

StartChar: AE
Encoding: 198 198 135
Width: 1794
GlyphClass: 2
Flags: W
LayerCount: 4
Fore
SplineSet
1062 0 m 0,0,1
 1002 0 1002 0 944.5 -1.5 c 128,-1,2
 887 -3 887 -3 859 -4 c 2,3,-1
 831 -6 l 1,4,5
 826 -1 826 -1 823.5 13 c 128,-1,6
 821 27 821 27 820 39.5 c 128,-1,7
 819 52 819 52 821 52 c 0,8,9
 845 52 845 52 893 67 c 128,-1,10
 941 82 941 82 945 98 c 0,11,12
 949 152 949 152 929 270 c 2,13,-1
 886 510 l 1,14,15
 813 514 813 514 708 514 c 0,16,17
 657 514 657 514 506 504 c 1,18,-1
 497 498 l 1,19,20
 438 356 438 356 393 258 c 0,21,22
 335 134 335 134 340 104 c 0,23,24
 343 87 343 87 362 75.5 c 128,-1,25
 381 64 381 64 407 59.5 c 128,-1,26
 433 55 433 55 449.5 53.5 c 128,-1,27
 466 52 466 52 477 52 c 1,28,29
 482 48 482 48 487.5 25.5 c 128,-1,30
 493 3 493 3 491 -6 c 1,31,32
 462 -5 462 -5 427.5 -2 c 128,-1,33
 393 1 393 1 364 2.5 c 128,-1,34
 335 4 335 4 296 4 c 0,35,36
 255 4 255 4 225 2.5 c 128,-1,37
 195 1 195 1 159 -2 c 128,-1,38
 123 -5 123 -5 89 -6 c 1,39,40
 84 -2 84 -2 80.5 20 c 128,-1,41
 77 42 77 42 79 52 c 1,42,43
 97 52 97 52 132.5 64.5 c 128,-1,44
 168 77 168 77 187 90 c 0,45,46
 243 130 243 130 304 274 c 2,47,-1
 700 1168 l 2,48,49
 710 1191 710 1191 707 1208 c 0,50,51
 703 1232 703 1232 669 1245 c 128,-1,52
 635 1258 635 1258 609 1258 c 1,53,54
 600 1268 600 1268 597.5 1290 c 128,-1,55
 595 1312 595 1312 598 1316 c 1,56,57
 696 1314 696 1314 831 1314 c 0,58,59
 921 1314 921 1314 1139 1321 c 128,-1,60
 1357 1328 1357 1328 1470 1328 c 1,61,62
 1488 1270 1488 1270 1527.5 1175 c 128,-1,63
 1567 1080 1567 1080 1576 1056 c 1,64,65
 1568 1046 1568 1046 1542 1046 c 0,66,67
 1517 1046 1517 1046 1511 1060 c 0,68,69
 1460 1171 1460 1171 1398 1209.5 c 128,-1,70
 1336 1248 1336 1248 1246 1248 c 2,71,-1
 1074 1248 l 2,72,73
 943 1248 943 1248 940 1226 c 0,74,75
 936 1193 936 1193 950 1112 c 0,76,77
 952 1098 952 1098 955 1084 c 2,78,-1
 1021 710 l 2,79,80
 1021 703 1021 703 1045.5 700.5 c 128,-1,81
 1070 698 1070 698 1109 698 c 2,82,-1
 1215 698 l 2,83,84
 1265 698 1265 698 1293 699 c 128,-1,85
 1321 700 1321 700 1344.5 705 c 128,-1,86
 1368 710 1368 710 1377.5 718 c 128,-1,87
 1387 726 1387 726 1394.5 740.5 c 128,-1,88
 1402 755 1402 755 1404 775 c 128,-1,89
 1406 795 1406 795 1409 825 c 0,90,91
 1409 836 1409 836 1410 842 c 0,92,93
 1411 856 1411 856 1437 856 c 0,94,95
 1461 856 1461 856 1473 846 c 1,96,-1
 1540 468 l 1,97,98
 1533 460 1533 460 1509 460 c 0,99,100
 1483 460 1483 460 1474 476 c 0,101,102
 1439 555 1439 555 1425.5 576.5 c 128,-1,103
 1412 598 1412 598 1395 608 c 0,104,105
 1367 624 1367 624 1180 624 c 2,106,107
 1149 624 l 0,108,109
 1138 624 1138 624 1118.5 623.5 c 128,-1,110
 1099 623 1099 623 1087 622 c 128,-1,111
 1075 621 1075 621 1062.5 619 c 128,-1,112
 1050 617 1050 617 1044.5 613.5 c 128,-1,113
 1039 610 1039 610 1040 606 c 2,114,-1
 1107 226 l 2,115,116
 1109 216 1109 216 1110 205 c 0,117,118
 1115 177 1115 177 1123 143 c 0,119,120
 1133 95 1133 95 1143 88 c 0,121,122
 1163 74 1163 74 1190 71 c 128,-1,123
 1217 68 1217 68 1288 68 c 2,124,-1
 1384 68 l 2,125,126
 1456 68 1456 68 1523 82.5 c 128,-1,127
 1590 97 1590 97 1627 122 c 0,128,129
 1665 148 1665 148 1683 194.5 c 128,-1,130
 1701 241 1701 241 1717 324 c 0,131,132
 1718 336 1718 336 1743 336 c 0,133,134
 1781 336 1781 336 1795 324 c 1,135,136
 1791 298 1791 298 1780 241 c 128,-1,137
 1769 184 1769 184 1762.5 148.5 c 128,-1,138
 1756 113 1756 113 1750.5 68 c 128,-1,139
 1745 23 1745 23 1746 -8 c 1,140,141
 1643 -8 1643 -8 1422 -4 c 128,-1,142
 1201 0 1201 0 1062 0 c 0,0,1
872 594 m 1,143,-1
 777 1132 l 1,144,-1
 543 600 l 2,145,146
 542 592 542 592 546 592 c 0,147,148
 598 590 598 590 704 590 c 0,149,150
 797 590 797 590 872 594 c 1,143,-1
EndSplineSet
Validated: 33
EndChar

StartChar: Eth
Encoding: 208 208 145
Width: 1420
GlyphClass: 2
Flags: W
LayerCount: 4
Fore
SplineSet
737 622 m 1,0,-1
 105 622 l 2,1,2
 101 622 101 622 96 636.5 c 128,-1,3
 91 651 91 651 90 669.5 c 128,-1,4
 89 688 89 688 93 696 c 1,5,-1
 723 696 l 2,6,7
 729 696 729 696 735 666 c 128,-1,8
 741 636 741 636 737 622 c 1,0,-1
340 1082 m 2,9,-1
 491 230 l 2,10,11
 514 100 514 100 528 86 c 0,12,13
 553 58 553 58 697 58 c 0,14,15
 806 58 806 58 894 92.5 c 128,-1,16
 982 127 982 127 1044 195 c 128,-1,17
 1106 263 1106 263 1129 373.5 c 128,-1,18
 1152 484 1152 484 1127 626 c 0,19,20
 1104 758 1104 758 1054.5 864.5 c 128,-1,21
 1005 971 1005 971 940.5 1042 c 128,-1,22
 876 1113 876 1113 795.5 1161 c 128,-1,23
 715 1209 715 1209 631 1230.5 c 128,-1,24
 547 1252 547 1252 458 1252 c 0,25,26
 327 1252 327 1252 324 1230 c 0,27,28
 320 1197 320 1197 335 1112 c 0,29,30
 337 1098 337 1098 340 1082 c 2,9,-1
501 1316 m 0,31,32
 662 1316 662 1316 804 1266.5 c 128,-1,33
 946 1217 946 1217 1050 1130.5 c 128,-1,34
 1154 1044 1154 1044 1223.5 925 c 128,-1,35
 1293 806 1293 806 1317 668 c 0,36,37
 1336 561 1336 561 1331.5 467 c 128,-1,38
 1327 373 1327 373 1290.5 284.5 c 128,-1,39
 1254 196 1254 196 1184.5 133 c 128,-1,40
 1115 70 1115 70 993.5 32 c 128,-1,41
 872 -6 872 -6 708 -6 c 2,42,-1
 208 -6 l 1,43,44
 200 2 200 2 196.5 23 c 128,-1,45
 193 44 193 44 198 52 c 1,46,47
 228 52 228 52 278.5 61 c 128,-1,48
 329 70 329 70 330 84 c 0,49,50
 334 116 334 116 314 232 c 2,51,-1
 164 1086 l 2,52,53
 144 1202 144 1202 128 1234 c 0,54,55
 122 1248 122 1248 68 1257 c 128,-1,56
 14 1266 14 1266 -16 1266 c 1,57,58
 -23 1274 -23 1274 -27.5 1295 c 128,-1,59
 -32 1316 -32 1316 -26 1324 c 1,60,61
 181 1314 181 1314 212 1314 c 0,62,63
 250 1314 250 1314 353 1315 c 128,-1,64
 456 1316 456 1316 501 1316 c 0,31,32
EndSplineSet
Validated: 37
EndChar

StartChar: multiply
Encoding: 215 215 152
Width: 928
GlyphClass: 2
Flags: W
LayerCount: 4
Fore
SplineSet
398 494 m 1,0,-1
 59 782 l 1,1,2
 55 803 55 803 68 830.5 c 128,-1,3
 81 858 81 858 94 858 c 0,4,5
 104 858 104 858 108 854 c 0,6,7
 452 570 452 570 457 566 c 1,8,-1
 696 854 l 2,9,10
 699 858 699 858 708 858 c 0,11,12
 720 858 720 858 741.5 826.5 c 128,-1,13
 763 795 763 795 766 778 c 1,14,15
 540 506 540 506 535 500 c 1,16,-1
 866 210 l 1,17,18
 870 186 870 186 861 158 c 128,-1,19
 852 130 852 130 836 130 c 0,20,21
 826 130 826 130 821 134 c 2,22,-1
 475 428 l 1,23,-1
 230 132 l 2,24,25
 227 128 227 128 218 128 c 0,26,27
 206 128 206 128 184.5 160.5 c 128,-1,28
 163 193 163 193 160 210 c 1,29,30
 391 486 391 486 398 494 c 1,0,-1
EndSplineSet
Validated: 1
Substitution2: "'smcp' Lowercase to Small Capitals lookup 12 subtable" multiply.sc
EndChar

StartChar: Oslash
Encoding: 216 216 153
Width: 1496
GlyphClass: 2
Flags: W
LayerCount: 4
Fore
SplineSet
1010 1334 m 1,0,1
 1027 1330 1027 1330 1053 1314 c 128,-1,2
 1079 1298 1079 1298 1076 1290 c 2,3,-1
 472 -26 l 1,4,5
 454 -20 454 -20 428 -4 c 128,-1,6
 402 12 402 12 406 20 c 2,7,-1
 1010 1334 l 1,0,1
608 1266 m 0,8,9
 521 1266 521 1266 455.5 1232.5 c 128,-1,10
 390 1199 390 1199 352 1144 c 128,-1,11
 314 1089 314 1089 294 1015 c 128,-1,12
 274 941 274 941 273.5 862 c 128,-1,13
 273 783 273 783 288 700 c 0,14,15
 309 582 309 582 361.5 467 c 128,-1,16
 414 352 414 352 489.5 258 c 128,-1,17
 565 164 565 164 669 106 c 128,-1,18
 773 48 773 48 885 48 c 0,19,20
 972 48 972 48 1038 81.5 c 128,-1,21
 1104 115 1104 115 1141.5 170.5 c 128,-1,22
 1179 226 1179 226 1199.5 300.5 c 128,-1,23
 1220 375 1220 375 1220.5 455 c 128,-1,24
 1221 535 1221 535 1206 618 c 0,25,26
 1185 736 1185 736 1132 850.5 c 128,-1,27
 1079 965 1079 965 1003 1058 c 128,-1,28
 927 1151 927 1151 823.5 1208.5 c 128,-1,29
 720 1266 720 1266 608 1266 c 0,8,9
626 1334 m 0,30,31
 757 1334 757 1334 885 1283.5 c 128,-1,32
 1013 1233 1013 1233 1117.5 1145 c 128,-1,33
 1222 1057 1222 1057 1297 929.5 c 128,-1,34
 1372 802 1372 802 1398 656 c 0,35,36
 1422 519 1422 519 1391.5 393.5 c 128,-1,37
 1361 268 1361 268 1288.5 177.5 c 128,-1,38
 1216 87 1216 87 1105.5 33.5 c 128,-1,39
 995 -20 995 -20 865 -20 c 0,40,41
 734 -20 734 -20 606.5 30.5 c 128,-1,42
 479 81 479 81 375.5 169 c 128,-1,43
 272 257 272 257 197.5 384 c 128,-1,44
 123 511 123 511 98 656 c 0,45,46
 74 794 74 794 103.5 919.5 c 128,-1,47
 133 1045 133 1045 204.5 1135.5 c 128,-1,48
 276 1226 276 1226 386 1280 c 128,-1,49
 496 1334 496 1334 626 1334 c 0,30,31
EndSplineSet
Validated: 37
EndChar

StartChar: Thorn
Encoding: 222 222 159
Width: 1096
GlyphClass: 2
Flags: W
LayerCount: 4
Fore
SplineSet
212 1314 m 0,0,1
 241 1314 241 1314 444 1324 c 1,2,3
 452 1316 452 1316 455.5 1295 c 128,-1,4
 459 1274 459 1274 454 1266 c 1,5,6
 424 1266 424 1266 373.5 1257 c 128,-1,7
 323 1248 323 1248 322 1234 c 0,8,9
 318 1201 318 1201 332 1116 c 0,10,11
 334 1102 334 1102 338 1086 c 2,12,-1
 360 960 l 1,13,14
 389 984 389 984 440.5 998 c 128,-1,15
 492 1012 492 1012 526 1015 c 128,-1,16
 560 1018 560 1018 587 1018 c 0,17,18
 649 1018 649 1018 719.5 993.5 c 128,-1,19
 790 969 790 969 856.5 925.5 c 128,-1,20
 923 882 923 882 972.5 811.5 c 128,-1,21
 1022 741 1022 741 1036 658 c 0,22,23
 1068 476 1068 476 966 366 c 128,-1,24
 864 256 864 256 667 256 c 0,25,26
 613 256 613 256 578 272 c 1,27,28
 547 291 547 291 542 316 c 0,29,30
 542 318 542 318 542.5 320.5 c 128,-1,31
 543 323 543 323 545 325 c 128,-1,32
 547 327 547 327 551 326 c 0,33,34
 604 312 604 312 629 312 c 0,35,36
 753 312 753 312 818.5 395 c 128,-1,37
 884 478 884 478 858 624 c 0,38,39
 832 771 832 771 741.5 855.5 c 128,-1,40
 651 940 651 940 526 940 c 0,41,42
 495 940 495 940 449 925.5 c 128,-1,43
 403 911 403 911 389 880 c 0,44,45
 378 856 378 856 402 720 c 2,46,-1
 488 232 l 2,47,48
 491 216 491 216 494 202 c 0,49,50
 509 117 509 117 524 84 c 0,51,52
 530 70 530 70 584 61 c 128,-1,53
 638 52 638 52 668 52 c 1,54,55
 675 44 675 44 679.5 23 c 128,-1,56
 684 2 684 2 678 -6 c 1,57,58
 471 4 471 4 442 4 c 0,59,60
 411 4 411 4 208 -6 c 1,61,62
 200 2 200 2 196.5 23 c 128,-1,63
 193 44 193 44 198 52 c 1,64,65
 228 52 228 52 278.5 61 c 128,-1,66
 329 70 329 70 330 84 c 0,67,68
 334 116 334 116 314 232 c 2,69,-1
 164 1086 l 2,70,71
 144 1202 144 1202 128 1234 c 0,72,73
 122 1248 122 1248 68 1257 c 128,-1,74
 14 1266 14 1266 -16 1266 c 1,75,76
 -23 1274 -23 1274 -27.5 1295 c 128,-1,77
 -32 1316 -32 1316 -26 1324 c 1,78,79
 181 1314 181 1314 212 1314 c 0,0,1
EndSplineSet
Validated: 33
EndChar

